<?xml version="1.0" encoding="UTF-8" standalone="no"?>
<!DOCTYPE svg PUBLIC "-//W3C//DTD SVG 1.1//EN" "http://www.w3.org/Graphics/SVG/1.1/DTD/svg11.dtd">
<svg xmlns="http://www.w3.org/2000/svg" version="1.1" viewBox="0.00 0.00 200.00 200.00">
<g stroke-width="2.00" fill="none" stroke-linecap="butt">
<path stroke="#a1c6ff" vector-effect="non-scaling-stroke" d="
  M 149.14 55.87
  L 146.80 53.71
  A 0.85 0.84 51.5 0 0 145.80 53.59
  Q 145.58 53.71 145.45 53.90
  Q 144.83 54.74 145.58 55.47
  L 149.05 58.84
  A 0.50 0.50 0.0 0 0 149.74 58.85
  L 157.14 51.88
  A 0.69 0.68 40.0 0 0 157.04 50.81
  Q 156.93 50.74 156.81 50.66
  Q 156.01 50.08 155.30 50.77
  L 150.12 55.86
  Q 149.64 56.33 149.14 55.87"
/>
<path stroke="#a1c6ff" vector-effect="non-scaling-stroke" d="
  M 118.14 104.66
  Q 117.90 106.45 116.69 107.47
  Q 113.40 110.25 111.72 115.15"
/>
<path stroke="#a2acb2" vector-effect="non-scaling-stroke" d="
  M 111.72 115.15
  Q 98.54 131.57 94.27 137.79
  Q 92.73 140.03 91.83 145.59
  A 0.61 0.60 0.7 0 0 92.51 146.28
  L 94.44 146.01
  A 1.07 1.06 69.3 0 1 95.47 146.48
  L 97.99 150.38
  A 0.81 0.81 0.0 0 0 99.06 150.65
  L 101.97 149.05
  A 1.76 1.75 86.1 0 0 102.76 148.14
  C 104.10 144.62 107.03 141.98 109.30 139.01
  A 0.39 0.38 54.1 0 1 109.97 139.12
  Q 112.07 145.07 115.59 149.23
  A 1.68 1.61 -69.5 0 1 115.96 150.09
  L 116.57 155.83
  Q 116.65 156.60 116.42 157.33
  L 116.29 157.73
  Q 116.07 158.44 116.79 158.60
  Q 129.34 161.37 140.80 162.83
  C 146.93 163.60 152.29 163.47 156.10 157.94
  Q 156.50 157.36 157.20 157.36
  L 191.81 157.58
  Q 192.20 157.58 192.18 157.19
  L 192.17 156.84
  Q 192.15 156.48 191.79 156.48
  L 157.80 156.21
  Q 157.29 156.20 157.36 155.70
  Q 158.39 149.00 157.93 141.55
  C 157.66 137.03 158.45 132.57 158.28 127.99
  Q 158.09 123.02 154.53 119.38"
/>
<path stroke="#a1c6ff" vector-effect="non-scaling-stroke" d="
  M 154.53 119.38
  Q 154.05 117.51 152.55 116.23"
/>
<path stroke="#96b0d7" vector-effect="non-scaling-stroke" d="
  M 152.55 116.23
  Q 150.87 114.11 149.50 113.39"
/>
<path stroke="#a1c6ff" vector-effect="non-scaling-stroke" d="
  M 149.50 113.39
  Q 148.18 111.85 147.85 110.78
  Q 147.69 110.26 148.02 109.82
  C 154.50 101.51 150.40 86.61 145.80 78.21
  C 142.76 72.64 138.90 68.53 132.23 68.32"
/>
<path stroke="#93989b" vector-effect="non-scaling-stroke" d="
  M 132.23 68.32
  C 126.37 63.07 117.07 65.93 116.02 74.08
  C 115.26 79.97 108.98 82.99 111.09 89.73
  Q 111.59 91.34 112.43 92.95
  C 113.56 95.13 112.77 97.05 112.40 99.25
  Q 111.77 103.06 115.79 103.83
  Q 117.06 104.07 118.14 104.66"
/>
<path stroke="#345f9b" vector-effect="non-scaling-stroke" d="
  M 132.23 68.32
  Q 135.66 76.04 139.11 83.76
  Q 140.18 86.17 140.48 87.87
  C 141.49 93.53 137.32 99.95 133.00 104.23"
/>
<path stroke="#707478" vector-effect="non-scaling-stroke" d="
  M 133.00 104.23
  L 132.44 103.69"
/>
<path stroke="#93989b" vector-effect="non-scaling-stroke" d="
  M 132.44 103.69
  Q 132.30 100.56 133.84 97.65
  C 135.43 94.63 133.01 93.42 131.47 91.31
  Q 131.11 90.82 131.26 90.23
  C 132.09 86.90 135.95 82.79 130.93 80.59
  C 127.16 78.94 124.58 78.74 123.08 74.27
  A 1.67 1.65 72.6 0 0 121.05 73.20
  C 113.11 75.50 114.93 88.52 115.44 94.38
  Q 116.01 100.88 119.40 104.26"
/>
<path stroke="#345f9b" vector-effect="non-scaling-stroke" d="
  M 119.40 104.26
  Q 119.70 104.76 118.14 104.66"
/>
<path stroke="#dcdcdc" vector-effect="non-scaling-stroke" d="
  M 132.44 103.69
  L 123.77 106.36"
/>
<path stroke="#3777d7" vector-effect="non-scaling-stroke" d="
  M 149.50 113.39
  Q 140.57 111.29 136.44 112.62
  C 129.34 114.92 121.49 117.60 114.55 114.54
  Q 114.32 114.44 114.12 114.57
  Q 113.98 114.66 114.06 114.93
  Q 114.12 115.17 114.33 115.30
  Q 116.14 116.53 118.21 117.10
  C 123.49 118.54 128.99 119.01 134.45 117.56
  Q 137.48 116.75 140.42 116.11
  C 145.43 115.02 148.04 114.14 151.85 116.92
  A 0.31 0.31 0.0 0 0 152.33 116.61
  Q 152.31 116.49 152.55 116.23"
/>
<path stroke="#4373b2" vector-effect="non-scaling-stroke" d="
  M 154.53 119.38
  Q 145.07 117.30 139.25 125.44
  Q 135.61 130.54 132.33 135.87
  Q 130.02 139.62 127.55 140.96
  C 120.98 144.51 115.31 135.35 114.80 130.13
  Q 114.26 124.52 111.98 119.52
  Q 111.58 118.65 111.72 115.15"
/>
<path stroke="#a1c6ff" vector-effect="non-scaling-stroke" d="
  M 119.40 104.26
  Q 121.44 105.76 123.77 106.36"
/>
<path stroke="#7ea3dc" vector-effect="non-scaling-stroke" d="
  M 123.77 106.36
  Q 123.80 108.17 125.25 107.91
  Q 129.85 107.10 133.00 104.23"
/>
<path stroke="#dcdcdc" vector-effect="non-scaling-stroke" d="
  M 50.63 155.15
  L 6.17 155.19
  Q 5.75 155.19 5.75 155.61
  L 5.76 155.88
  Q 5.77 156.56 6.44 156.56
  L 54.18 157.06"
/>
<path stroke="#f0efef" vector-effect="non-scaling-stroke" d="
  M 54.18 157.06
  Q 55.65 157.16 56.58 157.65
  Q 67.53 163.41 77.80 164.33"
/>
<path stroke="#dcdcdc" vector-effect="non-scaling-stroke" d="
  M 77.80 164.33
  L 111.26 160.48
  Q 112.08 160.38 111.35 160.00
  Q 110.33 159.47 109.07 159.54
  Q 106.24 159.70 103.32 159.87
  C 101.87 159.95 100.56 160.58 99.08 160.37
  Q 97.50 160.15 95.92 160.36
  Q 86.77 161.58 78.07 162.48
  A 3.14 3.13 73.8 0 1 74.93 160.75
  Q 73.83 158.51 72.46 155.98
  Q 71.92 154.98 72.28 154.01
  Q 72.41 153.64 72.12 153.39
  Q 71.61 152.93 71.37 152.34
  Q 67.42 142.50 63.52 132.74
  A 3.70 3.69 -6.7 0 0 60.63 130.46
  L 44.72 128.14"
/>
<path stroke="#f0efef" vector-effect="non-scaling-stroke" d="
  M 44.72 128.14
  L 41.55 127.65
  Q 40.13 127.43 40.13 128.87
  Q 40.13 130.62 40.92 132.35
  Q 46.02 143.60 50.63 155.15"
/>
<path stroke="#cdcbcb" vector-effect="non-scaling-stroke" d="
  M 44.72 128.14
  Q 44.05 128.04 43.80 128.13
  Q 42.75 128.51 43.84 128.74
  Q 51.98 130.42 60.92 131.89
  A 1.85 1.84 84.1 0 1 62.35 133.06
  Q 65.87 142.40 69.77 151.35
  Q 70.01 151.90 71.33 156.26
  Q 72.54 160.28 76.15 162.87
  Q 76.30 162.97 76.29 163.14
  Q 76.29 163.20 76.23 163.22
  Q 75.61 163.40 76.16 163.73
  Q 77.03 164.24 77.80 164.33"
/>
<path stroke="#cdcbcb" vector-effect="non-scaling-stroke" d="
  M 54.18 157.06
  Q 54.17 155.34 50.63 155.15"
/>
<path stroke="#f0efef" vector-effect="non-scaling-stroke" d="
  M 111.27 151.21
  Q 111.12 150.38 110.44 150.15
  A 0.38 0.37 4.6 0 0 109.94 150.57
  Q 110.10 151.41 110.85 151.61
  A 0.35 0.34 -88.4 0 0 111.27 151.21"
/>
<path stroke="#f0efef" vector-effect="non-scaling-stroke" d="
  M 94.75 153.27
  C 93.84 154.62 94.08 157.02 95.98 157.29
  Q 97.04 157.44 96.43 156.56
  Q 96.24 156.29 96.05 156.03
  Q 95.75 155.64 95.83 155.16
  L 96.18 152.85
  A 0.50 0.49 79.1 0 0 95.44 152.34
  Q 95.08 152.54 94.94 152.91
  Q 94.87 153.11 94.75 153.27"
/>
<path stroke="#f0efef" vector-effect="non-scaling-stroke" d="
  M 113.6702 154.8657
  A 0.98 0.49 44.4 0 0 113.3128 153.8299
  A 0.98 0.49 44.4 0 0 112.2698 153.4943
  A 0.98 0.49 44.4 0 0 112.6272 154.5301
  A 0.98 0.49 44.4 0 0 113.6702 154.8657"
/>
<path stroke="#a2acb2" vector-effect="non-scaling-stroke" d="
  M 102.91 157.58
  Q 104.70 156.67 106.89 157.22
  Q 107.33 157.33 107.45 156.89
  L 107.53 156.57
  Q 107.66 156.09 107.16 156.04
  Q 104.64 155.81 102.56 157.06
  Q 102.48 157.11 102.51 157.19
  L 102.63 157.48
  Q 102.71 157.68 102.91 157.58"
/>
<path stroke="#3777d7" vector-effect="non-scaling-stroke" d="
  M 134.88 110.05
  C 131.00 111.19 124.96 113.11 121.14 111.63
  Q 119.85 111.12 120.78 112.14
  C 123.01 114.57 129.71 112.85 132.54 111.76
  Q 135.27 110.71 138.04 110.36
  Q 138.10 110.35 138.12 110.30
  Q 138.18 110.18 138.16 110.04
  Q 138.13 109.86 137.95 109.87
  C 136.91 109.89 135.85 109.77 134.88 110.05"
/>
<path stroke="#93989b" vector-effect="non-scaling-stroke" d="
  M 130.3340 81.7859
  A 1.78 0.58 4.7 0 0 128.6075 81.0620
  A 1.78 0.58 4.7 0 0 126.7860 81.4941
  A 1.78 0.58 4.7 0 0 128.5125 82.2180
  A 1.78 0.58 4.7 0 0 130.3340 81.7859"
/>
<path stroke="#93989b" vector-effect="non-scaling-stroke" d="
  M 119.55 83.09
  Q 120.45 82.68 119.60 82.17
  Q 118.80 81.70 117.80 82.07
  Q 117.09 82.33 117.24 83.10
  Q 117.31 83.47 117.69 83.47
  Q 118.67 83.49 119.55 83.09"
/>
<path stroke="#93989b" vector-effect="non-scaling-stroke" d="
  M 129.6790 85.4673
  A 1.13 0.42 8.0 0 0 128.6185 84.8941
  A 1.13 0.42 8.0 0 0 127.4410 85.1527
  A 1.13 0.42 8.0 0 0 128.5015 85.7259
  A 1.13 0.42 8.0 0 0 129.6790 85.4673"
/>
<path stroke="#93989b" vector-effect="non-scaling-stroke" d="
  M 118.53 86.09
  Q 118.95 86.23 119.33 86.05
  Q 119.94 85.76 119.34 85.45
  Q 118.59 85.05 117.90 85.16
  A 0.52 0.52 0.0 0 0 117.54 85.96
  Q 117.73 86.26 118.06 86.11
  A 0.66 0.65 42.2 0 1 118.53 86.09"
/>
<path stroke="#a2acb2" vector-effect="non-scaling-stroke" d="
  M 121.67 91.96
  Q 122.64 89.27 123.22 86.61
  Q 123.27 86.37 123.04 86.31
  L 123.03 86.31
  Q 122.80 86.25 122.73 86.47
  Q 121.87 89.33 120.99 92.45
  Q 120.71 93.43 121.62 93.82
  Q 122.26 94.09 121.95 93.47
  L 121.73 93.03
  Q 121.47 92.51 121.67 91.96"
/>
<path stroke="#93989b" vector-effect="non-scaling-stroke" d="
  M 128.76 88.63
  A 0.87 0.87 0.0 0 0 127.89 87.76
  A 0.87 0.87 0.0 0 0 127.02 88.63
  A 0.87 0.87 0.0 0 0 127.89 89.50
  A 0.87 0.87 0.0 0 0 128.76 88.63"
/>
<path stroke="#93989b" vector-effect="non-scaling-stroke" d="
  M 118.8635 89.9699
  A 0.92 0.75 75.3 0 0 119.3555 88.8897
  A 0.92 0.75 75.3 0 0 118.3965 88.1901
  A 0.92 0.75 75.3 0 0 117.9045 89.2703
  A 0.92 0.75 75.3 0 0 118.8635 89.9699"
/>
<path stroke="#dcdcdc" vector-effect="non-scaling-stroke" d="
  M 124.0603 97.8158
  A 2.09 0.65 134.3 0 0 125.9852 96.7740
  A 2.09 0.65 134.3 0 0 126.9797 94.8242
  A 2.09 0.65 134.3 0 0 125.0548 95.8660
  A 2.09 0.65 134.3 0 0 124.0603 97.8158"
/>
<path stroke="#f0efef" vector-effect="non-scaling-stroke" d="
  M 57.7608 146.2100
  A 2.39 1.31 51.1 0 0 57.2795 143.5274
  A 2.39 1.31 51.1 0 0 54.7592 142.4900
  A 2.39 1.31 51.1 0 0 55.2405 145.1726
  A 2.39 1.31 51.1 0 0 57.7608 146.2100"
/>
</g>
<path fill="#ffffff" d="
  M 0.00 0.00
  L 200.00 0.00
  L 200.00 200.00
  L 0.00 200.00
  L 0.00 0.00
  Z
  M 149.14 55.87
  L 146.80 53.71
  A 0.85 0.84 51.5 0 0 145.80 53.59
  Q 145.58 53.71 145.45 53.90
  Q 144.83 54.74 145.58 55.47
  L 149.05 58.84
  A 0.50 0.50 0.0 0 0 149.74 58.85
  L 157.14 51.88
  A 0.69 0.68 40.0 0 0 157.04 50.81
  Q 156.93 50.74 156.81 50.66
  Q 156.01 50.08 155.30 50.77
  L 150.12 55.86
  Q 149.64 56.33 149.14 55.87
  Z
  M 118.14 104.66
  Q 117.90 106.45 116.69 107.47
  Q 113.40 110.25 111.72 115.15
  Q 98.54 131.57 94.27 137.79
  Q 92.73 140.03 91.83 145.59
  A 0.61 0.60 0.7 0 0 92.51 146.28
  L 94.44 146.01
  A 1.07 1.06 69.3 0 1 95.47 146.48
  L 97.99 150.38
  A 0.81 0.81 0.0 0 0 99.06 150.65
  L 101.97 149.05
  A 1.76 1.75 86.1 0 0 102.76 148.14
  C 104.10 144.62 107.03 141.98 109.30 139.01
  A 0.39 0.38 54.1 0 1 109.97 139.12
  Q 112.07 145.07 115.59 149.23
  A 1.68 1.61 -69.5 0 1 115.96 150.09
  L 116.57 155.83
  Q 116.65 156.60 116.42 157.33
  L 116.29 157.73
  Q 116.07 158.44 116.79 158.60
  Q 129.34 161.37 140.80 162.83
  C 146.93 163.60 152.29 163.47 156.10 157.94
  Q 156.50 157.36 157.20 157.36
  L 191.81 157.58
  Q 192.20 157.58 192.18 157.19
  L 192.17 156.84
  Q 192.15 156.48 191.79 156.48
  L 157.80 156.21
  Q 157.29 156.20 157.36 155.70
  Q 158.39 149.00 157.93 141.55
  C 157.66 137.03 158.45 132.57 158.28 127.99
  Q 158.09 123.02 154.53 119.38
  Q 154.05 117.51 152.55 116.23
  Q 150.87 114.11 149.50 113.39
  Q 148.18 111.85 147.85 110.78
  Q 147.69 110.26 148.02 109.82
  C 154.50 101.51 150.40 86.61 145.80 78.21
  C 142.76 72.64 138.90 68.53 132.23 68.32
  C 126.37 63.07 117.07 65.93 116.02 74.08
  C 115.26 79.97 108.98 82.99 111.09 89.73
  Q 111.59 91.34 112.43 92.95
  C 113.56 95.13 112.77 97.05 112.40 99.25
  Q 111.77 103.06 115.79 103.83
  Q 117.06 104.07 118.14 104.66
  Z
  M 50.63 155.15
  L 6.17 155.19
  Q 5.75 155.19 5.75 155.61
  L 5.76 155.88
  Q 5.77 156.56 6.44 156.56
  L 54.18 157.06
  Q 55.65 157.16 56.58 157.65
  Q 67.53 163.41 77.80 164.33
  L 111.26 160.48
  Q 112.08 160.38 111.35 160.00
  Q 110.33 159.47 109.07 159.54
  Q 106.24 159.70 103.32 159.87
  C 101.87 159.95 100.56 160.58 99.08 160.37
  Q 97.50 160.15 95.92 160.36
  Q 86.77 161.58 78.07 162.48
  A 3.14 3.13 73.8 0 1 74.93 160.75
  Q 73.83 158.51 72.46 155.98
  Q 71.92 154.98 72.28 154.01
  Q 72.41 153.64 72.12 153.39
  Q 71.61 152.93 71.37 152.34
  Q 67.42 142.50 63.52 132.74
  A 3.70 3.69 -6.7 0 0 60.63 130.46
  L 44.72 128.14
  L 41.55 127.65
  Q 40.13 127.43 40.13 128.87
  Q 40.13 130.62 40.92 132.35
  Q 46.02 143.60 50.63 155.15
  Z
  M 111.27 151.21
  Q 111.12 150.38 110.44 150.15
  A 0.38 0.37 4.6 0 0 109.94 150.57
  Q 110.10 151.41 110.85 151.61
  A 0.35 0.34 -88.4 0 0 111.27 151.21
  Z
  M 94.75 153.27
  C 93.84 154.62 94.08 157.02 95.98 157.29
  Q 97.04 157.44 96.43 156.56
  Q 96.24 156.29 96.05 156.03
  Q 95.75 155.64 95.83 155.16
  L 96.18 152.85
  A 0.50 0.49 79.1 0 0 95.44 152.34
  Q 95.08 152.54 94.94 152.91
  Q 94.87 153.11 94.75 153.27
  Z
  M 113.6702 154.8657
  A 0.98 0.49 44.4 0 0 113.3128 153.8299
  A 0.98 0.49 44.4 0 0 112.2698 153.4943
  A 0.98 0.49 44.4 0 0 112.6272 154.5301
  A 0.98 0.49 44.4 0 0 113.6702 154.8657
  Z
  M 102.91 157.58
  Q 104.70 156.67 106.89 157.22
  Q 107.33 157.33 107.45 156.89
  L 107.53 156.57
  Q 107.66 156.09 107.16 156.04
  Q 104.64 155.81 102.56 157.06
  Q 102.48 157.11 102.51 157.19
  L 102.63 157.48
  Q 102.71 157.68 102.91 157.58
  Z"
/>
<path fill="#428dff" d="
  M 150.12 55.86
  L 155.30 50.77
  Q 156.01 50.08 156.81 50.66
  Q 156.93 50.74 157.04 50.81
  A 0.69 0.68 40.0 0 1 157.14 51.88
  L 149.74 58.85
  A 0.50 0.50 0.0 0 1 149.05 58.84
  L 145.58 55.47
  Q 144.83 54.74 145.45 53.90
  Q 145.58 53.71 145.80 53.59
  A 0.85 0.84 51.5 0 1 146.80 53.71
  L 149.14 55.87
  Q 149.64 56.33 150.12 55.86
  Z"
/>
<path fill="#263037" d="
  M 132.23 68.32
  Q 135.66 76.04 139.11 83.76
  Q 140.18 86.17 140.48 87.87
  C 141.49 93.53 137.32 99.95 133.00 104.23
  L 132.44 103.69
  Q 132.30 100.56 133.84 97.65
  C 135.43 94.63 133.01 93.42 131.47 91.31
  Q 131.11 90.82 131.26 90.23
  C 132.09 86.90 135.95 82.79 130.93 80.59
  C 127.16 78.94 124.58 78.74 123.08 74.27
  A 1.67 1.65 72.6 0 0 121.05 73.20
  C 113.11 75.50 114.93 88.52 115.44 94.38
  Q 116.01 100.88 119.40 104.26
  Q 119.70 104.76 118.14 104.66
  Q 117.06 104.07 115.79 103.83
  Q 111.77 103.06 112.40 99.25
  C 112.77 97.05 113.56 95.13 112.43 92.95
  Q 111.59 91.34 111.09 89.73
  C 108.98 82.99 115.26 79.97 116.02 74.08
  C 117.07 65.93 126.37 63.07 132.23 68.32
  Z"
/>
<path fill="#428dff" d="
  M 132.23 68.32
  C 138.90 68.53 142.76 72.64 145.80 78.21
  C 150.40 86.61 154.50 101.51 148.02 109.82
  Q 147.69 110.26 147.85 110.78
  Q 148.18 111.85 149.50 113.39
  Q 140.57 111.29 136.44 112.62
  C 129.34 114.92 121.49 117.60 114.55 114.54
  Q 114.32 114.44 114.12 114.57
  Q 113.98 114.66 114.06 114.93
  Q 114.12 115.17 114.33 115.30
  Q 116.14 116.53 118.21 117.10
  C 123.49 118.54 128.99 119.01 134.45 117.56
  Q 137.48 116.75 140.42 116.11
  C 145.43 115.02 148.04 114.14 151.85 116.92
  A 0.31 0.31 0.0 0 0 152.33 116.61
  Q 152.31 116.49 152.55 116.23
  Q 154.05 117.51 154.53 119.38
  Q 145.07 117.30 139.25 125.44
  Q 135.61 130.54 132.33 135.87
  Q 130.02 139.62 127.55 140.96
  C 120.98 144.51 115.31 135.35 114.80 130.13
  Q 114.26 124.52 111.98 119.52
  Q 111.58 118.65 111.72 115.15
  Q 113.40 110.25 116.69 107.47
  Q 117.90 106.45 118.14 104.66
  Q 119.70 104.76 119.40 104.26
  Q 121.44 105.76 123.77 106.36
  Q 123.80 108.17 125.25 107.91
  Q 129.85 107.10 133.00 104.23
  C 137.32 99.95 141.49 93.53 140.48 87.87
  Q 140.18 86.17 139.11 83.76
  Q 135.66 76.04 132.23 68.32
  Z
  M 134.88 110.05
  C 131.00 111.19 124.96 113.11 121.14 111.63
  Q 119.85 111.12 120.78 112.14
  C 123.01 114.57 129.71 112.85 132.54 111.76
  Q 135.27 110.71 138.04 110.36
  Q 138.10 110.35 138.12 110.30
  Q 138.18 110.18 138.16 110.04
  Q 138.13 109.86 137.95 109.87
  C 136.91 109.89 135.85 109.77 134.88 110.05
  Z"
/>
<path fill="#ffffff" d="
  M 132.44 103.69
  L 123.77 106.36
  Q 121.44 105.76 119.40 104.26
  Q 116.01 100.88 115.44 94.38
  C 114.93 88.52 113.11 75.50 121.05 73.20
  A 1.67 1.65 72.6 0 1 123.08 74.27
  C 124.58 78.74 127.16 78.94 130.93 80.59
  C 135.95 82.79 132.09 86.90 131.26 90.23
  Q 131.11 90.82 131.47 91.31
  C 133.01 93.42 135.43 94.63 133.84 97.65
  Q 132.30 100.56 132.44 103.69
  Z
  M 130.3340 81.7859
  A 1.78 0.58 4.7 0 0 128.6075 81.0620
  A 1.78 0.58 4.7 0 0 126.7860 81.4941
  A 1.78 0.58 4.7 0 0 128.5125 82.2180
  A 1.78 0.58 4.7 0 0 130.3340 81.7859
  Z
  M 119.55 83.09
  Q 120.45 82.68 119.60 82.17
  Q 118.80 81.70 117.80 82.07
  Q 117.09 82.33 117.24 83.10
  Q 117.31 83.47 117.69 83.47
  Q 118.67 83.49 119.55 83.09
  Z
  M 129.6790 85.4673
  A 1.13 0.42 8.0 0 0 128.6185 84.8941
  A 1.13 0.42 8.0 0 0 127.4410 85.1527
  A 1.13 0.42 8.0 0 0 128.5015 85.7259
  A 1.13 0.42 8.0 0 0 129.6790 85.4673
  Z
  M 118.53 86.09
  Q 118.95 86.23 119.33 86.05
  Q 119.94 85.76 119.34 85.45
  Q 118.59 85.05 117.90 85.16
  A 0.52 0.52 0.0 0 0 117.54 85.96
  Q 117.73 86.26 118.06 86.11
  A 0.66 0.65 42.2 0 1 118.53 86.09
  Z
  M 121.67 91.96
  Q 122.64 89.27 123.22 86.61
  Q 123.27 86.37 123.04 86.31
  L 123.03 86.31
  Q 122.80 86.25 122.73 86.47
  Q 121.87 89.33 120.99 92.45
  Q 120.71 93.43 121.62 93.82
  Q 122.26 94.09 121.95 93.47
  L 121.73 93.03
  Q 121.47 92.51 121.67 91.96
  Z
  M 128.76 88.63
  A 0.87 0.87 0.0 0 0 127.89 87.76
  A 0.87 0.87 0.0 0 0 127.02 88.63
  A 0.87 0.87 0.0 0 0 127.89 89.50
  A 0.87 0.87 0.0 0 0 128.76 88.63
  Z
  M 118.8635 89.9699
  A 0.92 0.75 75.3 0 0 119.3555 88.8897
  A 0.92 0.75 75.3 0 0 118.3965 88.1901
  A 0.92 0.75 75.3 0 0 117.9045 89.2703
  A 0.92 0.75 75.3 0 0 118.8635 89.9699
  Z
  M 124.0603 97.8158
  A 2.09 0.65 134.3 0 0 125.9852 96.7740
  A 2.09 0.65 134.3 0 0 126.9797 94.8242
  A 2.09 0.65 134.3 0 0 125.0548 95.8660
  A 2.09 0.65 134.3 0 0 124.0603 97.8158
  Z"
/>
<ellipse fill="#263037" cx="0.00" cy="0.00" transform="translate(128.56,81.64) rotate(4.7)" rx="1.78" ry="0.58"/>
<path fill="#263037" d="
  M 119.55 83.09
  Q 118.67 83.49 117.69 83.47
  Q 117.31 83.47 117.24 83.10
  Q 117.09 82.33 117.80 82.07
  Q 118.80 81.70 119.60 82.17
  Q 120.45 82.68 119.55 83.09
  Z"
/>
<ellipse fill="#263037" cx="0.00" cy="0.00" transform="translate(128.56,85.31) rotate(8.0)" rx="1.13" ry="0.42"/>
<path fill="#263037" d="
  M 118.06 86.11
  Q 117.73 86.26 117.54 85.96
  A 0.52 0.52 0.0 0 1 117.90 85.16
  Q 118.59 85.05 119.34 85.45
  Q 119.94 85.76 119.33 86.05
  Q 118.95 86.23 118.53 86.09
  A 0.66 0.65 42.2 0 0 118.06 86.11
  Z"
/>
<path fill="#445964" d="
  M 121.73 93.03
  L 121.95 93.47
  Q 122.26 94.09 121.62 93.82
  Q 120.71 93.43 120.99 92.45
  Q 121.87 89.33 122.73 86.47
  Q 122.80 86.25 123.03 86.31
  L 123.04 86.31
  Q 123.27 86.37 123.22 86.61
  Q 122.64 89.27 121.67 91.96
  Q 121.47 92.51 121.73 93.03
  Z"
/>
<circle fill="#263037" cx="127.89" cy="88.63" r="0.87"/>
<ellipse fill="#263037" cx="0.00" cy="0.00" transform="translate(118.63,89.08) rotate(75.3)" rx="0.92" ry="0.75"/>
<ellipse fill="#b9b8b8" cx="0.00" cy="0.00" transform="translate(125.52,96.32) rotate(134.3)" rx="2.09" ry="0.65"/>
<path fill="#b9b8b8" d="
  M 132.44 103.69
  L 133.00 104.23
  Q 129.85 107.10 125.25 107.91
  Q 123.80 108.17 123.77 106.36
  L 132.44 103.69
  Z"
/>
<path fill="#2c60ae" d="
  M 121.14 111.63
  C 124.96 113.11 131.00 111.19 134.88 110.05
  C 135.85 109.77 136.91 109.89 137.95 109.87
  Q 138.13 109.86 138.16 110.04
  Q 138.18 110.18 138.12 110.30
  Q 138.10 110.35 138.04 110.36
  Q 135.27 110.71 132.54 111.76
  C 129.71 112.85 123.01 114.57 120.78 112.14
  Q 119.85 111.12 121.14 111.63
  Z"
/>
<path fill="#2c60ae" d="
  M 149.50 113.39
  Q 150.87 114.11 152.55 116.23
  Q 152.31 116.49 152.33 116.61
  A 0.31 0.31 0.0 0 1 151.85 116.92
  C 148.04 114.14 145.43 115.02 140.42 116.11
  Q 137.48 116.75 134.45 117.56
  C 128.99 119.01 123.49 118.54 118.21 117.10
  Q 116.14 116.53 114.33 115.30
  Q 114.12 115.17 114.06 114.93
  Q 113.98 114.66 114.12 114.57
  Q 114.32 114.44 114.55 114.54
  C 121.49 117.60 129.34 114.92 136.44 112.62
  Q 140.57 111.29 149.50 113.39
  Z"
/>
<path fill="#445964" d="
  M 111.72 115.15
  Q 111.58 118.65 111.98 119.52
  Q 114.26 124.52 114.80 130.13
  C 115.31 135.35 120.98 144.51 127.55 140.96
  Q 130.02 139.62 132.33 135.87
  Q 135.61 130.54 139.25 125.44
  Q 145.07 117.30 154.53 119.38
  Q 158.09 123.02 158.28 127.99
  C 158.45 132.57 157.66 137.03 157.93 141.55
  Q 158.39 149.00 157.36 155.70
  Q 157.29 156.20 157.80 156.21
  L 191.79 156.48
  Q 192.15 156.48 192.17 156.84
  L 192.18 157.19
  Q 192.20 157.58 191.81 157.58
  L 157.20 157.36
  Q 156.50 157.36 156.10 157.94
  C 152.29 163.47 146.93 163.60 140.80 162.83
  Q 129.34 161.37 116.79 158.60
  Q 116.07 158.44 116.29 157.73
  L 116.42 157.33
  Q 116.65 156.60 116.57 155.83
  L 115.96 150.09
  A 1.68 1.61 -69.5 0 0 115.59 149.23
  Q 112.07 145.07 109.97 139.12
  A 0.39 0.38 54.1 0 0 109.30 139.01
  C 107.03 141.98 104.10 144.62 102.76 148.14
  A 1.76 1.75 86.1 0 1 101.97 149.05
  L 99.06 150.65
  A 0.81 0.81 0.0 0 1 97.99 150.38
  L 95.47 146.48
  A 1.07 1.06 69.3 0 0 94.44 146.01
  L 92.51 146.28
  A 0.61 0.60 0.7 0 1 91.83 145.59
  Q 92.73 140.03 94.27 137.79
  Q 98.54 131.57 111.72 115.15
  Z"
/>
<path fill="#e0dede" d="
  M 44.72 128.14
  Q 44.05 128.04 43.80 128.13
  Q 42.75 128.51 43.84 128.74
  Q 51.98 130.42 60.92 131.89
  A 1.85 1.84 84.1 0 1 62.35 133.06
  Q 65.87 142.40 69.77 151.35
  Q 70.01 151.90 71.33 156.26
  Q 72.54 160.28 76.15 162.87
  Q 76.30 162.97 76.29 163.14
  Q 76.29 163.20 76.23 163.22
  Q 75.61 163.40 76.16 163.73
  Q 77.03 164.24 77.80 164.33
  Q 67.53 163.41 56.58 157.65
  Q 55.65 157.16 54.18 157.06
  Q 54.17 155.34 50.63 155.15
  Q 46.02 143.60 40.92 132.35
  Q 40.13 130.62 40.13 128.87
  Q 40.13 127.43 41.55 127.65
  L 44.72 128.14
  Z
  M 57.7608 146.2100
  A 2.39 1.31 51.1 0 0 57.2795 143.5274
  A 2.39 1.31 51.1 0 0 54.7592 142.4900
  A 2.39 1.31 51.1 0 0 55.2405 145.1726
  A 2.39 1.31 51.1 0 0 57.7608 146.2100
  Z"
/>
<path fill="#b9b8b8" d="
  M 44.72 128.14
  L 60.63 130.46
  A 3.70 3.69 -6.7 0 1 63.52 132.74
  Q 67.42 142.50 71.37 152.34
  Q 71.61 152.93 72.12 153.39
  Q 72.41 153.64 72.28 154.01
  Q 71.92 154.98 72.46 155.98
  Q 73.83 158.51 74.93 160.75
  A 3.14 3.13 73.8 0 0 78.07 162.48
  Q 86.77 161.58 95.92 160.36
  Q 97.50 160.15 99.08 160.37
  C 100.56 160.58 101.87 159.95 103.32 159.87
  Q 106.24 159.70 109.07 159.54
  Q 110.33 159.47 111.35 160.00
  Q 112.08 160.38 111.26 160.48
  L 77.80 164.33
  Q 77.03 164.24 76.16 163.73
  Q 75.61 163.40 76.23 163.22
  Q 76.29 163.20 76.29 163.14
  Q 76.30 162.97 76.15 162.87
  Q 72.54 160.28 71.33 156.26
  Q 70.01 151.90 69.77 151.35
  Q 65.87 142.40 62.35 133.06
  A 1.85 1.84 84.1 0 0 60.92 131.89
  Q 51.98 130.42 43.84 128.74
  Q 42.75 128.51 43.80 128.13
  Q 44.05 128.04 44.72 128.14
  Z"
/>
<ellipse fill="#ffffff" cx="0.00" cy="0.00" transform="translate(56.26,144.35) rotate(51.1)" rx="2.39" ry="1.31"/>
<path fill="#e0dede" d="
  M 111.27 151.21
  A 0.35 0.34 -88.4 0 1 110.85 151.61
  Q 110.10 151.41 109.94 150.57
  A 0.38 0.37 4.6 0 1 110.44 150.15
  Q 111.12 150.38 111.27 151.21
  Z"
/>
<path fill="#e0dede" d="
  M 94.94 152.91
  Q 95.08 152.54 95.44 152.34
  A 0.50 0.49 79.1 0 1 96.18 152.85
  L 95.83 155.16
  Q 95.75 155.64 96.05 156.03
  Q 96.24 156.29 96.43 156.56
  Q 97.04 157.44 95.98 157.29
  C 94.08 157.02 93.84 154.62 94.75 153.27
  Q 94.87 153.11 94.94 152.91
  Z"
/>
<ellipse fill="#e0dede" cx="0.00" cy="0.00" transform="translate(112.97,154.18) rotate(44.4)" rx="0.98" ry="0.49"/>
<path fill="#b9b8b8" d="
  M 50.63 155.15
  Q 54.17 155.34 54.18 157.06
  L 6.44 156.56
  Q 5.77 156.56 5.76 155.88
  L 5.75 155.61
  Q 5.75 155.19 6.17 155.19
  L 50.63 155.15
  Z"
/>
<path fill="#445964" d="
  M 102.91 157.58
  Q 102.71 157.68 102.63 157.48
  L 102.51 157.19
  Q 102.48 157.11 102.56 157.06
  Q 104.64 155.81 107.16 156.04
  Q 107.66 156.09 107.53 156.57
  L 107.45 156.89
  Q 107.33 157.33 106.89 157.22
  Q 104.70 156.67 102.91 157.58
  Z"
/>
</svg>
