<?xml version="1.0" encoding="UTF-8" standalone="no"?>
<!DOCTYPE svg PUBLIC "-//W3C//DTD SVG 1.1//EN" "http://www.w3.org/Graphics/SVG/1.1/DTD/svg11.dtd">
<svg xmlns="http://www.w3.org/2000/svg" version="1.1" viewBox="0.00 0.00 200.00 200.00">
<g stroke-width="2.00" fill="none" stroke-linecap="butt">
<path stroke="#c1c3c3" vector-effect="non-scaling-stroke" d="
  M 38.48 103.09
  L 34.66 113.51
  Q 34.49 113.97 34.73 114.39
  Q 35.15 115.11 34.54 115.70
  Q 33.30 116.91 32.70 118.53
  A 2.12 2.12 0.0 0 1 29.93 119.77
  C 27.24 118.71 28.57 115.89 30.03 114.49
  Q 30.46 114.09 31.02 114.26
  Q 32.13 114.60 33.08 115.43
  Q 33.43 115.73 33.66 115.32
  L 33.83 115.01
  A 0.60 0.60 0.0 0 0 33.70 114.27
  Q 32.49 113.21 30.79 112.85
  Q 30.23 112.74 29.75 113.06
  C 26.95 114.93 25.79 119.21 29.53 120.97
  C 32.75 122.50 34.72 118.01 35.61 115.60
  Q 37.56 110.34 39.10 105.80
  Q 39.20 105.50 39.51 105.58
  L 40.23 105.77
  Q 40.65 105.88 40.55 106.31
  Q 38.93 113.38 38.17 119.52
  C 37.76 122.76 41.37 124.87 43.66 122.07
  C 45.80 119.45 45.48 115.38 41.23 115.71
  A 0.87 0.86 -84.4 0 0 40.45 116.36
  L 40.36 116.73
  A 0.34 0.34 0.0 0 0 40.75 117.15
  Q 42.35 116.84 43.50 117.95
  Q 43.81 118.26 43.74 118.69
  C 43.47 120.30 42.43 123.06 40.21 121.89
  Q 38.92 121.22 39.41 119.85
  Q 39.80 118.75 40.19 117.64
  Q 40.41 117.00 39.74 117.06
  Q 39.57 117.08 39.49 116.81
  Q 39.34 116.34 39.73 116.05
  Q 40.30 115.63 40.44 114.89
  Q 41.32 110.29 42.28 104.86"
/>
<path stroke="#dceaff" vector-effect="non-scaling-stroke" d="
  M 42.28 104.86
  Q 53.30 109.50 65.15 108.11"
/>
<path stroke="#d5d5d5" vector-effect="non-scaling-stroke" d="
  M 65.15 108.11
  L 64.19 114.14
  Q 64.12 114.64 63.81 115.04
  Q 63.46 115.50 63.69 115.99
  Q 63.91 116.43 64.38 116.56
  Q 65.20 116.79 65.85 117.25
  Q 67.37 118.32 69.26 118.83
  Q 69.80 118.97 70.12 119.43
  Q 71.15 120.86 72.89 121.08
  Q 74.55 121.29 73.31 120.17
  Q 70.50 117.63 66.62 116.22
  Q 66.34 116.12 66.33 115.83
  L 66.32 115.36
  Q 66.31 114.90 66.77 114.98
  Q 70.99 115.75 74.03 118.81
  Q 74.29 119.07 74.56 118.83
  L 74.76 118.66
  Q 74.93 118.51 74.79 118.33
  Q 72.97 116.14 70.59 115.21
  A 0.61 0.61 0.0 0 1 70.41 114.19
  Q 71.34 113.37 72.34 114.18
  Q 73.71 115.27 75.03 116.54
  C 75.96 117.43 75.98 118.55 76.35 119.68
  Q 76.53 120.26 75.98 120.50
  Q 74.03 121.36 73.82 123.02
  Q 73.69 124.04 74.64 123.66
  Q 75.98 123.13 76.67 121.53
  Q 76.99 120.80 77.54 121.38
  Q 78.80 122.73 77.67 123.42"
/>
<path stroke="#93989c" vector-effect="non-scaling-stroke" d="
  M 77.67 123.42
  Q 76.14 123.95 75.31 126.60
  A 0.61 0.60 87.8 0 0 76.11 127.35
  Q 77.44 126.81 77.98 124.63"
/>
<path stroke="#d5d5d5" vector-effect="non-scaling-stroke" d="
  M 77.98 124.63
  Q 81.02 124.25 78.79 127.21"
/>
<path stroke="#93989c" vector-effect="non-scaling-stroke" d="
  M 78.79 127.21
  Q 77.84 127.59 77.42 129.01"
/>
<path stroke="#a1c6ff" vector-effect="non-scaling-stroke" d="
  M 77.42 129.01
  Q 76.10 130.02 75.30 128.63"
/>
<path stroke="#93989c" vector-effect="non-scaling-stroke" d="
  M 75.30 128.63
  Q 73.28 129.13 72.71 131.42
  Q 72.59 131.93 73.01 132.25
  Q 73.41 132.55 74.01 132.20"
/>
<path stroke="#a1c6ff" vector-effect="non-scaling-stroke" d="
  M 74.01 132.20
  Q 74.74 131.94 74.79 133.47"
/>
<path stroke="#93989c" vector-effect="non-scaling-stroke" d="
  M 74.79 133.47
  Q 74.01 134.74 74.50 136.01
  Q 74.68 136.49 74.69 136.99
  L 74.78 143.98"
/>
<path stroke="#c1c3c3" vector-effect="non-scaling-stroke" d="
  M 74.78 143.98
  L 74.44 155.69"
/>
<path stroke="#d5d5d5" vector-effect="non-scaling-stroke" d="
  M 74.44 155.69
  L 72.20 160.25"
/>
<path stroke="#c1c3c3" vector-effect="non-scaling-stroke" d="
  M 72.20 160.25
  L 65.19 174.41
  Q 64.80 175.21 63.91 175.21
  L 59.72 175.22
  Q 58.90 175.22 58.74 174.42
  Q 57.81 169.76 58.35 166.83
  Q 58.92 163.71 58.48 161.64
  C 58.14 160.03 58.37 158.62 58.70 157.05
  A 1.62 1.62 0.0 0 0 57.13 155.09
  L 46.47 155.01
  A 1.19 1.18 83.8 0 0 45.31 156.46
  Q 45.90 159.05 45.48 161.85
  Q 45.11 164.30 45.47 166.59
  Q 45.96 169.70 45.16 172.92
  Q 44.90 173.99 45.61 173.16
  Q 47.61 170.83 47.01 168.17
  Q 46.89 167.67 47.37 167.48
  Q 47.77 167.31 48.21 167.36
  Q 49.02 167.44 49.16 168.24
  Q 49.56 170.47 47.72 171.13
  Q 47.21 171.32 47.63 171.67
  Q 48.01 171.98 48.53 171.90
  Q 49.25 171.79 49.86 171.42
  A 4.72 3.68 38.0 0 1 53.86 171.42
  Q 55.07 171.98 56.41 171.89
  Q 57.71 171.81 57.94 173.10
  L 58.01 173.52
  Q 58.28 175.05 56.73 175.06
  L 53.01 175.08
  A 1.01 1.01 0.0 0 1 51.99 174.01
  L 52.08 172.37
  A 0.30 0.29 89.2 0 0 51.77 172.06
  L 51.47 172.08
  A 0.06 0.06 0.0 0 0 51.42 172.15
  Q 51.59 173.27 51.17 174.47
  A 0.91 0.89 3.9 0 1 50.49 175.05
  Q 48.20 175.47 45.88 174.56
  Q 45.52 174.42 45.16 174.56
  Q 43.79 175.11 42.06 175.06
  Q 35.23 174.90 28.48 174.88
  Q 28.35 174.88 28.39 175.00
  L 28.48 175.31
  A 0.28 0.27 81.3 0 0 28.74 175.51
  L 75.35 175.70"
/>
<path stroke="#a1c6ff" vector-effect="non-scaling-stroke" d="
  M 75.35 175.70
  L 123.53 176.00"
/>
<path stroke="#d5d5d5" vector-effect="non-scaling-stroke" d="
  M 123.53 176.00
  L 174.46 176.54
  Q 174.74 176.54 174.74 176.26
  L 174.75 175.97
  Q 174.75 175.75 174.54 175.74
  Q 169.74 175.57 164.96 175.66
  Q 164.36 175.67 163.91 175.24
  Q 163.50 174.84 163.78 174.27
  Q 164.12 173.60 164.00 172.85
  Q 163.18 167.88 164.11 162.34
  Q 164.52 159.90 162.91 158.49
  A 1.75 1.70 14.3 0 1 162.39 157.64
  C 161.68 154.72 160.19 151.44 160.59 148.49
  Q 160.72 147.59 159.84 147.35
  L 159.34 147.22
  A 0.68 0.68 0.0 0 0 158.50 147.72
  L 156.23 157.51
  Q 156.13 157.93 155.80 158.22
  Q 154.28 159.51 154.46 161.66
  Q 154.99 168.24 154.42 174.79
  Q 154.37 175.40 153.78 175.55
  Q 151.44 176.15 149.26 175.05
  Q 148.75 174.79 148.32 175.16
  Q 147.45 175.91 146.76 175.02
  Q 146.46 174.62 145.96 174.63
  L 138.04 174.81
  Q 136.71 174.84 136.80 173.51
  L 136.97 171.07
  Q 137.05 169.93 138.18 170.10
  Q 141.22 170.53 143.93 170.36
  Q 146.19 170.23 146.23 172.68
  Q 146.27 174.85 146.80 172.75
  Q 147.05 171.75 146.60 170.72
  Q 146.46 170.39 146.58 170.09
  Q 147.02 168.96 145.81 168.97
  L 138.50 169.03
  A 1.67 1.65 87.2 0 1 136.83 167.50
  L 136.74 166.33
  Q 136.61 164.77 138.17 164.78
  L 147.55 164.85
  Q 148.04 164.86 148.33 165.25
  Q 149.61 167.00 148.23 168.81
  Q 147.88 169.26 148.23 169.71
  C 149.47 171.31 148.30 172.70 148.85 174.51
  Q 148.86 174.57 148.92 174.57
  L 149.20 174.54
  A 0.27 0.27 0.0 0 0 149.45 174.28
  L 149.72 165.53
  A 1.45 1.45 0.0 0 0 148.28 164.03
  L 136.84 163.91
  A 0.76 0.76 0.0 0 0 136.07 164.66
  L 135.89 174.44
  Q 135.88 174.92 135.52 175.24
  Q 135.02 175.70 134.16 175.55
  A 1.32 1.32 0.0 0 1 133.19 174.83
  Q 129.57 167.44 126.22 160.76
  C 124.57 157.47 125.00 153.90 125.36 149.30"
/>
<path stroke="#a1c6ff" vector-effect="non-scaling-stroke" d="
  M 125.36 149.30
  Q 125.85 146.92 125.34 145.29"
/>
<path stroke="#93989c" vector-effect="non-scaling-stroke" d="
  M 125.34 145.29
  Q 124.73 142.93 125.21 141.45
  Q 125.38 140.92 125.23 140.39
  Q 124.91 139.31 125.17 138.34
  Q 125.29 137.89 125.29 137.42
  L 125.27 132.01"
/>
<path stroke="#a1c6ff" vector-effect="non-scaling-stroke" d="
  M 125.27 132.01
  Q 125.00 130.65 125.75 130.32
  Q 126.02 130.20 126.90 130.23"
/>
<path stroke="#93989c" vector-effect="non-scaling-stroke" d="
  M 126.90 130.23
  L 127.59 132.50
  Q 127.73 132.98 128.21 132.82
  L 140.28 128.82"
/>
<path stroke="#d5d5d5" vector-effect="non-scaling-stroke" d="
  M 140.28 128.82
  L 142.14 143.05"
/>
<path stroke="#c1c3c3" vector-effect="non-scaling-stroke" d="
  M 142.14 143.05
  C 142.85 147.45 142.63 153.04 137.57 154.80
  Q 137.21 154.92 136.90 154.69
  Q 136.75 154.57 136.57 154.64
  Q 136.26 154.75 136.08 155.01
  Q 135.40 155.97 134.57 156.72
  Q 134.12 157.14 133.59 156.83
  L 132.59 156.26
  Q 131.93 155.88 132.41 156.47
  C 133.14 157.38 134.27 157.58 135.23 156.86
  C 138.10 154.68 141.07 154.72 142.55 150.77
  Q 143.56 148.07 142.62 142.52"
/>
<path stroke="#d5d5d5" vector-effect="non-scaling-stroke" d="
  M 142.62 142.52
  Q 142.09 136.48 141.62 130.38
  Q 141.59 129.88 140.86 128.18"
/>
<path stroke="#93989c" vector-effect="non-scaling-stroke" d="
  M 140.86 128.18
  Q 140.65 127.63 140.79 126.77"
/>
<path stroke="#d5d5d5" vector-effect="non-scaling-stroke" d="
  M 140.79 126.77
  L 142.33 125.22"
/>
<path stroke="#c1c3c3" vector-effect="non-scaling-stroke" d="
  M 142.33 125.22
  Q 142.65 124.98 142.78 124.77
  Q 142.92 124.57 142.82 124.34
  Q 140.02 118.03 139.28 110.92
  Q 138.31 101.68 130.20 97.44
  Q 125.80 95.15 121.28 93.71
  Q 120.88 94.00 120.92 92.96"
/>
<path stroke="#93989c" vector-effect="non-scaling-stroke" d="
  M 120.92 92.96
  C 126.09 88.51 128.64 82.27 124.90 75.86
  Q 123.00 72.59 120.84 69.61
  A 3.57 3.55 -60.2 0 1 120.18 67.15
  C 120.76 61.69 121.66 57.51 117.84 52.84
  Q 110.68 44.07 97.72 42.64"
/>
<path stroke="#dceaff" vector-effect="non-scaling-stroke" d="
  M 97.72 42.64
  Q 96.54 40.93 94.80 38.50
  C 86.32 26.66 72.35 20.63 57.92 20.92
  C 31.97 21.45 12.68 45.81 16.45 71.21
  Q 19.12 89.23 35.09 100.63
  Q 36.91 101.92 38.48 103.09"
/>
<path stroke="#70839c" vector-effect="non-scaling-stroke" d="
  M 97.72 42.64
  Q 90.99 46.12 84.59 52.60
  Q 82.17 55.05 80.55 57.79
  C 78.67 60.95 79.61 67.57 79.83 71.27
  Q 79.90 72.46 79.01 73.26
  C 73.48 78.17 69.72 83.58 74.38 90.81
  Q 75.47 92.50 80.06 94.51"
/>
<path stroke="#b2c0d5" vector-effect="non-scaling-stroke" d="
  M 80.06 94.51
  Q 80.03 95.37 79.52 95.55
  Q 75.85 96.79 72.39 98.53
  Q 66.28 101.59 65.15 108.11"
/>
<path stroke="#9eaec3" vector-effect="non-scaling-stroke" d="
  M 42.28 104.86
  Q 42.57 102.12 44.02 99.26"
/>
<path stroke="#b2c0d5" vector-effect="non-scaling-stroke" d="
  M 44.02 99.26
  Q 47.93 97.87 49.76 94.18
  A 1.23 1.23 0.0 0 0 48.44 92.42
  Q 46.40 92.78 46.65 91.54"
/>
<path stroke="#9eaec3" vector-effect="non-scaling-stroke" d="
  M 46.65 91.54
  Q 48.11 90.60 48.22 89.75
  Q 48.53 87.41 46.89 89.12
  Q 44.16 91.98 41.40 95.69
  Q 40.30 97.17 39.66 99.18
  Q 39.00 101.26 38.48 103.09"
/>
<path stroke="#555c5f" vector-effect="non-scaling-stroke" d="
  M 120.92 92.96
  L 120.36 93.77"
/>
<path stroke="#686e71" vector-effect="non-scaling-stroke" d="
  M 120.36 93.77
  L 114.04 92.03
  Q 113.56 91.89 113.27 91.50
  Q 111.77 89.43 109.79 88.20"
/>
<path stroke="#686e71" vector-effect="non-scaling-stroke" d="
  M 109.79 88.20
  Q 109.31 87.73 109.21 86.98"
/>
<path stroke="#93989c" vector-effect="non-scaling-stroke" d="
  M 109.21 86.98
  C 111.26 84.42 111.70 81.83 112.43 78.91
  C 113.16 75.99 115.29 74.53 115.72 71.44
  A 0.81 0.80 -78.1 0 0 115.14 70.55
  Q 109.16 68.87 102.58 66.86
  Q 97.20 65.21 95.38 58.59
  Q 95.25 58.11 94.75 58.20
  Q 94.23 58.29 94.13 58.82
  Q 92.85 65.74 87.33 70.77
  C 83.94 73.87 88.37 75.72 89.10 78.40
  Q 90.27 82.71 91.57 84.67
  C 92.71 86.38 96.46 90.52 99.80 92.08"
/>
<path stroke="#686e71" vector-effect="non-scaling-stroke" d="
  M 99.80 92.08
  L 100.03 92.64"
/>
<path stroke="#93989c" vector-effect="non-scaling-stroke" d="
  M 100.03 92.64
  L 92.50 95.94"
/>
<path stroke="#686e71" vector-effect="non-scaling-stroke" d="
  M 92.50 95.94
  Q 90.58 93.64 91.36 89.56
  Q 91.78 87.41 90.44 89.15
  Q 89.28 90.65 88.19 92.25
  Q 87.89 92.67 87.41 92.86
  L 81.87 95.03
  Q 81.41 95.21 80.97 94.98
  L 80.06 94.51"
/>
<path stroke="#979998" vector-effect="non-scaling-stroke" d="
  M 46.65 91.54
  L 42.30 96.23"
/>
<path stroke="#c1c3c3" vector-effect="non-scaling-stroke" d="
  M 42.30 96.23
  Q 41.02 96.99 40.77 99.63
  Q 40.72 100.15 41.24 100.14
  L 41.52 100.13
  A 0.57 0.56 -88.9 0 0 42.07 99.59
  Q 42.13 98.51 43.04 97.21"
/>
<path stroke="#979998" vector-effect="non-scaling-stroke" d="
  M 43.04 97.21
  Q 44.27 95.74 44.02 99.26"
/>
<path stroke="#d5d5d5" vector-effect="non-scaling-stroke" d="
  M 43.04 97.21
  L 42.98 96.64
  A 0.46 0.45 -87.4 0 0 42.63 96.25
  Q 42.46 96.21 42.30 96.23"
/>
<path stroke="#979998" vector-effect="non-scaling-stroke" d="
  M 120.36 93.77
  Q 121.90 95.16 124.51 96.10
  Q 126.67 96.88 130.91 99.53
  Q 134.74 101.93 136.10 104.05
  C 138.69 108.07 138.78 112.80 139.50 117.37
  A 1.26 1.25 75.2 0 1 138.71 118.74
  L 125.81 123.62
  Q 125.70 123.66 125.79 123.75
  L 126.13 124.08
  A 0.28 0.27 56.6 0 0 126.40 124.14
  L 138.55 119.77
  Q 140.05 119.23 140.62 120.72
  L 142.33 125.22"
/>
<path stroke="#686e71" vector-effect="non-scaling-stroke" d="
  M 140.79 126.77
  Q 140.65 125.97 140.35 126.05
  Q 133.78 127.89 127.20 129.78"
/>
<path stroke="#769cd5" vector-effect="non-scaling-stroke" d="
  M 127.20 129.78
  Q 125.75 129.92 124.39 129.30
  Q 124.02 129.13 123.67 129.34
  Q 123.43 129.49 123.25 129.49
  Q 101.30 129.25 79.25 129.06"
/>
<path stroke="#686e71" vector-effect="non-scaling-stroke" d="
  M 79.25 129.06
  Q 79.54 127.05 78.79 127.21"
/>
<path stroke="#686e71" vector-effect="non-scaling-stroke" d="
  M 77.98 124.63
  Q 77.97 124.16 77.67 123.42"
/>
<path stroke="#686e71" vector-effect="non-scaling-stroke" d="
  M 99.16 112.72
  L 98.23 112.51
  A 0.82 0.53 -12.0 0 1 98.10 112.46
  Q 94.82 110.51 91.61 107.96
  A 0.46 0.45 19.4 0 0 90.87 108.31
  L 90.87 108.70
  A 1.13 1.11 15.8 0 0 91.42 109.66
  L 99.42 114.47
  Q 100.68 115.23 102.03 114.64
  Q 105.58 113.11 108.98 111.20
  Q 110.53 110.34 110.62 108.87
  Q 110.68 107.91 109.97 108.56
  Q 106.80 111.45 102.66 113.16
  Q 102.20 113.35 101.84 113.69
  Q 101.01 114.47 100.19 113.82"
/>
<path stroke="#d5d5d5" vector-effect="non-scaling-stroke" d="
  M 109.79 88.20
  L 109.11 88.20
  Q 108.59 88.20 108.30 88.64
  C 106.36 91.66 103.92 93.74 100.03 92.64"
/>
<path stroke="#d5d5d5" vector-effect="non-scaling-stroke" d="
  M 109.21 86.98
  C 106.96 88.33 105.73 90.65 103.56 91.50
  Q 101.77 92.21 99.80 92.08"
/>
<path stroke="#d5d5d5" vector-effect="non-scaling-stroke" d="
  M 109.79 88.20
  Q 109.43 89.89 109.44 91.57
  Q 109.46 93.54 108.98 94.86
  Q 105.31 105.04 101.22 113.47
  Q 100.96 114.01 100.19 113.82"
/>
<path stroke="#93989c" vector-effect="non-scaling-stroke" d="
  M 100.19 113.82
  Q 99.39 113.49 99.16 112.72"
/>
<path stroke="#d5d5d5" vector-effect="non-scaling-stroke" d="
  M 99.16 112.72
  L 92.50 95.94"
/>
<path stroke="#345f9c" vector-effect="non-scaling-stroke" d="
  M 125.27 132.01
  Q 124.38 132.22 124.40 133.15
  A 0.63 0.63 0.0 0 1 123.76 133.79
  L 74.79 133.47"
/>
<path stroke="#345f9c" vector-effect="non-scaling-stroke" d="
  M 79.25 129.06
  Q 77.85 129.96 77.42 129.01"
/>
<path stroke="#686e71" vector-effect="non-scaling-stroke" d="
  M 140.86 128.18
  Q 140.12 129.79 140.28 128.82"
/>
<path stroke="#345f9c" vector-effect="non-scaling-stroke" d="
  M 126.90 130.23
  Q 126.97 129.99 127.20 129.78"
/>
<path stroke="#345f9c" vector-effect="non-scaling-stroke" d="
  M 125.34 145.29
  L 75.64 144.99"
/>
<path stroke="#555c5f" vector-effect="non-scaling-stroke" d="
  M 75.64 144.99
  Q 75.63 145.22 75.32 145.13
  Q 75.01 145.04 74.94 144.73
  L 74.78 143.98"
/>
<path stroke="#345f9c" vector-effect="non-scaling-stroke" d="
  M 75.30 128.63
  Q 75.85 130.69 74.01 132.20"
/>
<path stroke="#979998" vector-effect="non-scaling-stroke" d="
  M 142.62 142.52
  Q 142.71 143.12 142.14 143.05"
/>
<path stroke="#769cd5" vector-effect="non-scaling-stroke" d="
  M 125.36 149.30
  L 125.31 147.23
  Q 125.28 146.32 124.88 147.13
  Q 124.63 147.62 124.64 148.25
  Q 124.70 152.78 124.41 157.39
  C 124.25 159.81 125.08 162.23 125.06 164.75
  Q 125.03 170.16 124.88 174.75
  Q 124.86 175.58 123.53 176.00"
/>
<path stroke="#638ac3" vector-effect="non-scaling-stroke" d="
  M 75.64 144.99
  Q 75.28 146.89 75.65 151.50
  Q 75.75 152.79 75.30 156.01
  Q 74.96 158.43 75.00 160.50
  Q 75.17 168.12 75.35 175.70"
/>
<path stroke="#979998" vector-effect="non-scaling-stroke" d="
  M 72.20 160.25
  Q 72.31 160.44 72.57 160.36
  Q 73.32 160.13 72.92 160.80
  Q 69.26 167.03 66.41 174.19
  A 0.54 0.53 12.6 0 0 66.88 174.92
  L 73.52 175.40
  A 0.87 0.86 -87.2 0 0 74.45 174.55
  Q 74.59 167.16 74.26 159.99
  Q 74.23 159.46 74.01 158.98
  Q 73.81 158.54 73.91 158.07
  L 74.44 155.69"
/>
<path stroke="#c1c3c3" vector-effect="non-scaling-stroke" d="
  M 162.9416 47.1729
  A 1.26 1.26 0.0 0 0 161.3654 46.3418
  L 141.7440 52.4157
  A 1.26 1.26 0.0 0 0 140.9129 53.9919
  L 144.1184 64.3471
  A 1.26 1.26 0.0 0 0 145.6946 65.1782
  L 165.3160 59.1043
  A 1.26 1.26 0.0 0 0 166.1471 57.5281
  L 162.9416 47.1729"
/>
<path stroke="#c1c3c3" vector-effect="non-scaling-stroke" d="
  M 150.38 93.78
  Q 150.47 95.93 152.13 97.74
  Q 158.62 104.81 165.30 112.01
  C 166.48 113.29 167.32 114.73 168.28 116.15
  A 0.72 0.71 -39.5 0 0 169.37 116.25
  L 175.45 110.25
  A 0.61 0.60 -50.5 0 0 175.36 109.32
  C 173.99 108.41 172.52 107.66 171.36 106.50
  Q 164.72 99.88 157.25 92.63
  Q 155.49 90.92 153.17 90.80
  Q 152.65 90.78 152.30 90.40
  L 150.86 88.86
  A 1.06 1.06 0.0 0 0 149.21 89.01
  L 148.79 89.66
  A 1.63 1.62 -50.0 0 0 148.96 91.66
  L 149.92 92.68
  Q 150.36 93.14 150.38 93.78"
/>
<path stroke="#d5d5d5" vector-effect="non-scaling-stroke" d="
  M 70.64 149.02
  Q 69.36 151.61 67.41 153.73
  A 1.25 1.24 -56.9 0 1 66.00 154.03
  Q 58.71 150.87 60.17 143.22
  Q 61.03 138.72 62.37 134.40
  C 63.49 130.77 62.35 127.39 60.85 124.13
  C 59.74 121.72 60.30 119.71 63.06 118.79
  Q 63.52 118.63 63.98 118.77
  Q 64.75 119.01 65.44 118.61
  Q 66.07 118.26 65.36 118.12
  Q 64.51 117.95 63.68 118.32
  Q 63.15 118.56 63.07 117.99
  Q 62.99 117.48 63.11 116.98
  A 0.72 0.72 0.0 0 0 62.61 116.12
  L 62.25 116.02
  A 0.71 0.71 0.0 0 0 61.38 116.46
  C 60.98 117.60 60.64 118.56 59.80 119.48
  Q 58.77 120.61 59.31 122.26
  Q 60.45 125.77 61.47 129.30
  Q 61.95 130.98 61.44 132.75
  Q 60.06 137.56 59.16 142.65
  Q 57.66 151.13 65.33 154.57
  C 68.81 156.13 71.47 149.16 72.30 146.75
  C 73.54 143.11 71.56 138.29 70.41 134.74
  Q 70.18 134.02 70.18 134.78
  Q 70.17 135.61 70.43 136.39
  Q 71.59 139.82 71.96 143.21
  Q 72.24 145.79 70.64 149.02"
/>
<path stroke="#d5d5d5" vector-effect="non-scaling-stroke" d="
  M 70.37 122.31
  Q 70.88 121.95 70.37 121.57
  Q 69.08 120.58 67.82 119.53
  A 0.65 0.64 -46.7 0 0 66.96 119.56
  L 66.50 119.99
  Q 66.12 120.35 65.61 120.26
  Q 63.85 119.95 62.65 121.29
  Q 62.27 121.72 62.77 121.99
  L 63.10 122.17
  A 0.37 0.36 -52.9 0 0 63.52 122.11
  Q 64.49 121.16 65.54 120.91
  Q 66.03 120.80 66.09 121.30
  Q 66.33 123.43 67.60 125.21
  Q 67.72 125.38 67.92 125.38
  Q 68.20 125.39 68.14 125.12
  L 67.45 121.83
  Q 67.30 121.12 68.01 121.24
  Q 69.39 121.46 70.06 122.70
  Q 70.14 122.86 70.25 122.72
  Q 70.34 122.63 70.31 122.46
  Q 70.29 122.37 70.37 122.31"
/>
<path stroke="#93989c" vector-effect="non-scaling-stroke" d="
  M 71.8846 123.5944
  A 0.74 0.74 0.0 0 0 71.6067 122.5854
  L 71.5023 122.5261
  A 0.74 0.74 0.0 0 0 70.4934 122.8040
  L 69.5154 124.5256
  A 0.74 0.74 0.0 0 0 69.7933 125.5346
  L 69.8977 125.5939
  A 0.74 0.74 0.0 0 0 70.9066 125.3160
  L 71.8846 123.5944"
/>
<path stroke="#93989c" vector-effect="non-scaling-stroke" d="
  M 73.7335 126.3097
  A 0.65 0.65 0.0 0 0 73.4449 125.4369
  L 73.2483 125.3381
  A 0.65 0.65 0.0 0 0 72.3756 125.6267
  L 71.1265 128.1103
  A 0.65 0.65 0.0 0 0 71.4151 128.9831
  L 71.6117 129.0819
  A 0.65 0.65 0.0 0 0 72.4844 128.7933
  L 73.7335 126.3097"
/>
<path stroke="#d5d5d5" vector-effect="non-scaling-stroke" d="
  M 70.38 129.63
  Q 69.55 128.01 68.93 126.17
  Q 68.91 126.11 68.85 126.13
  L 68.58 126.19
  Q 68.21 126.27 68.24 126.66
  Q 68.35 127.74 68.08 128.75
  A 0.82 0.81 7.4 0 1 67.29 129.35
  L 65.80 129.34
  Q 65.31 129.34 65.39 129.83
  L 65.45 130.22
  Q 65.51 130.61 65.91 130.56
  Q 66.83 130.45 67.51 129.77
  A 1.03 1.03 0.0 0 1 69.23 130.20
  Q 69.48 131.04 69.88 131.83
  Q 70.22 132.49 70.49 131.80
  Q 70.91 130.68 70.38 129.63"
/>
<path stroke="#d5d5d5" vector-effect="non-scaling-stroke" d="
  M 133.45 140.74
  Q 133.39 141.25 133.54 141.65"
/>
<path stroke="#c1c3c3" vector-effect="non-scaling-stroke" d="
  M 133.54 141.65
  Q 131.93 144.41 129.42 143.80
  Q 128.56 143.60 128.60 144.48
  Q 128.60 144.62 128.59 144.76
  Q 128.55 145.25 129.04 145.17
  Q 132.26 144.64 133.80 142.29"
/>
<path stroke="#d5d5d5" vector-effect="non-scaling-stroke" d="
  M 133.80 142.29
  Q 134.93 141.51 134.14 140.24"
/>
<path stroke="#c1c3c3" vector-effect="non-scaling-stroke" d="
  M 134.14 140.24
  Q 132.18 138.04 129.67 136.37
  C 128.77 135.78 128.22 134.85 127.82 133.88
  A 0.31 0.31 0.0 0 0 127.24 133.89
  Q 126.94 134.72 127.85 135.39
  Q 131.05 137.74 133.45 140.74"
/>
<path stroke="#979998" vector-effect="non-scaling-stroke" d="
  M 134.14 140.24
  Q 134.15 141.05 133.45 140.74"
/>
<path stroke="#979998" vector-effect="non-scaling-stroke" d="
  M 133.80 142.29
  Q 133.79 141.64 133.54 141.65"
/>
<path stroke="#c1c3c3" vector-effect="non-scaling-stroke" d="
  M 129.42 142.30
  A 0.26 0.26 0.0 0 0 129.92 142.20
  Q 129.87 140.10 127.41 138.71
  Q 126.38 138.14 127.21 138.98
  Q 128.64 140.44 129.42 142.30"
/>
<path stroke="#c1c3c3" vector-effect="non-scaling-stroke" d="
  M 135.98 140.46
  Q 135.92 140.64 136.11 140.68
  Q 138.71 141.27 140.42 143.76
  Q 140.47 143.84 140.55 143.79
  L 140.82 143.64
  Q 140.92 143.58 140.87 143.48
  Q 139.42 140.53 136.19 140.14
  Q 136.10 140.13 136.07 140.21
  L 135.98 140.46"
/>
<path stroke="#c1c3c3" vector-effect="non-scaling-stroke" d="
  M 136.81 144.46
  Q 137.00 142.61 135.60 141.90
  Q 134.95 141.57 135.31 142.20
  Q 136.04 143.47 136.17 144.73
  Q 136.22 145.28 135.75 145.55
  Q 131.66 148.00 127.06 149.26
  Q 126.86 149.31 126.90 149.51
  L 126.96 149.93
  Q 127.00 150.16 127.22 150.09
  Q 131.73 148.75 135.39 146.27
  A 1.27 1.27 0.0 0 1 137.37 147.19
  Q 137.61 149.48 135.82 151.38
  A 0.95 0.93 23.6 0 1 135.05 151.67
  Q 132.33 151.45 129.22 152.24
  Q 128.59 152.40 128.46 153.01
  Q 128.20 154.19 129.21 153.54
  Q 131.76 151.91 135.23 152.11
  Q 135.80 152.15 136.14 152.61
  Q 136.48 153.09 136.76 152.57
  Q 138.94 148.38 137.02 145.34
  A 1.46 1.41 -59.4 0 1 136.81 144.46"
/>
<path stroke="#c1c3c3" vector-effect="non-scaling-stroke" d="
  M 132.25 155.49
  Q 132.72 154.69 133.60 154.35
  Q 133.78 154.28 133.69 154.11
  L 133.69 154.10
  Q 133.64 154.01 133.55 154.06
  Q 132.00 154.78 130.49 155.48
  Q 129.83 155.78 130.51 156.03
  Q 131.69 156.44 132.25 155.49"
/>
<path stroke="#c1c3c3" vector-effect="non-scaling-stroke" d="
  M 127.90 155.10
  Q 127.79 154.47 127.32 154.90
  Q 127.13 155.08 127.04 155.30
  Q 126.95 155.54 127.05 155.78
  Q 127.36 156.46 128.05 156.52
  Q 128.98 156.59 128.33 155.92
  Q 127.99 155.55 127.90 155.10"
/>
<path stroke="#dceaff" vector-effect="non-scaling-stroke" d="
  M 72.60 47.97
  L 72.66 45.20"
/>
<path stroke="#b2c0d5" vector-effect="non-scaling-stroke" d="
  M 72.66 45.20
  Q 72.81 41.06 69.21 38.65"
/>
<path stroke="#9eaec3" vector-effect="non-scaling-stroke" d="
  M 69.21 38.65
  Q 69.90 37.32 71.02 38.19
  Q 73.85 40.39 74.43 43.96
  Q 74.45 44.08 74.57 44.07
  L 74.58 44.07
  Q 74.70 44.06 74.70 43.93
  Q 74.60 40.51 71.96 38.04
  Q 70.38 36.58 68.51 37.88
  Q 58.30 44.95 49.37 51.54
  Q 48.98 51.83 48.50 51.76
  Q 46.30 51.48 44.18 53.08
  Q 41.54 55.06 39.15 56.98
  C 34.70 60.58 40.87 73.78 45.98 70.49
  C 49.15 68.44 52.96 66.74 54.10 62.83
  A 1.22 1.16 82.0 0 1 54.54 62.21
  Q 62.87 56.10 71.99 49.91
  Q 73.63 48.79 74.62 47.10
  Q 74.81 46.77 74.79 46.40
  Q 74.74 45.62 74.12 46.11
  Q 73.23 46.83 72.60 47.97"
/>
<path stroke="#979998" vector-effect="non-scaling-stroke" d="
  M 69.21 38.65
  L 68.13 39.20"
/>
<path stroke="#c1c3c3" vector-effect="non-scaling-stroke" d="
  M 68.13 39.20
  L 50.55 51.82
  A 1.20 1.20 0.0 0 0 50.79 53.91
  Q 51.98 54.41 52.70 55.42
  Q 52.96 55.79 53.00 56.24
  L 53.35 60.20
  A 0.92 0.92 0.0 0 0 54.81 60.87
  L 72.60 47.97"
/>
<path stroke="#d5d5d5" vector-effect="non-scaling-stroke" d="
  M 72.66 45.20
  Q 71.35 40.71 68.13 39.20"
/>
<path stroke="#c1c3c3" vector-effect="non-scaling-stroke" d="
  M 41.52 57.19
  C 45.53 59.58 46.45 64.04 46.83 68.34
  A 0.39 0.39 0.0 0 0 47.45 68.62
  C 50.48 66.33 53.25 65.62 52.83 61.01
  Q 52.38 56.14 48.56 52.97
  A 1.98 1.97 -42.4 0 0 46.17 52.87
  Q 44.03 54.36 41.97 55.71
  Q 41.45 56.06 41.30 56.66
  A 0.48 0.47 -67.8 0 0 41.52 57.19"
/>
<path stroke="#c1c3c3" vector-effect="non-scaling-stroke" d="
  M 44.4578 69.5312
  A 6.08 2.31 68.1 0 0 44.3333 63.0284
  A 6.08 2.31 68.1 0 0 39.9222 58.2488
  A 6.08 2.31 68.1 0 0 40.0467 64.7516
  A 6.08 2.31 68.1 0 0 44.4578 69.5312"
/>
<path stroke="#c1c3c3" vector-effect="non-scaling-stroke" d="
  M 53.99 54.77
  Q 54.03 54.98 54.10 55.17
  Q 54.23 55.52 54.59 55.44
  Q 55.24 55.31 55.13 54.16
  A 1.14 1.12 7.9 0 0 54.39 53.20
  Q 53.33 52.81 52.92 53.44
  Q 52.65 53.85 53.14 53.92
  Q 53.52 53.98 53.76 54.27
  Q 53.93 54.49 53.99 54.77"
/>
<path stroke="#93989c" vector-effect="non-scaling-stroke" d="
  M 103.59 65.14
  L 99.07 59.95
  A 0.15 0.15 0.0 0 0 98.86 59.93
  L 98.78 60.00
  A 3.47 1.44 49.0 0 0 99.97 63.57
  L 100.13 63.75
  A 3.47 1.44 49.0 0 0 103.49 65.42
  L 103.57 65.35
  A 0.15 0.15 0.0 0 0 103.59 65.14"
/>
<path stroke="#c1c3c3" vector-effect="non-scaling-stroke" d="
  M 157.10 57.78
  Q 157.44 58.34 158.05 57.98
  Q 158.59 57.67 158.59 57.06
  L 158.58 55.18
  Q 158.57 54.64 158.95 54.25
  Q 160.65 52.47 159.48 50.97
  Q 158.25 49.37 160.00 50.38
  Q 161.40 51.19 161.74 52.93
  Q 161.83 53.43 161.40 53.68
  Q 159.36 54.87 160.09 57.20
  Q 160.24 57.67 159.75 57.79
  Q 158.83 58.01 158.55 58.89
  A 0.98 0.98 0.0 0 0 159.41 60.16
  Q 160.87 60.27 161.26 59.10
  Q 161.74 57.69 161.44 56.31
  Q 161.36 55.92 161.76 55.95
  Q 162.10 55.97 162.21 56.30
  Q 162.59 57.43 163.05 58.46
  A 0.73 0.73 0.0 0 0 164.08 58.80
  Q 164.28 58.68 164.52 58.67
  A 0.73 0.73 0.0 0 0 165.18 57.74
  L 162.49 48.22
  A 1.27 1.27 0.0 0 0 160.90 47.35
  L 142.74 52.84
  Q 141.52 53.21 141.88 54.43
  L 144.55 63.29
  A 1.43 1.43 0.0 0 0 146.37 64.24
  Q 147.91 63.73 149.10 62.72
  Q 149.44 62.42 149.89 62.54
  Q 151.30 62.92 152.65 62.15
  A 0.79 0.75 84.6 0 0 153.00 61.70
  Q 153.20 61.04 152.68 60.80
  Q 152.05 60.51 152.53 60.00
  L 153.77 58.69
  Q 154.16 58.27 154.10 57.71
  C 153.88 55.67 155.82 54.61 155.92 52.47
  Q 155.94 51.97 156.37 51.70
  Q 157.40 51.05 157.42 49.81
  Q 157.43 49.41 157.82 49.38
  Q 158.02 49.37 158.19 49.46
  Q 158.79 49.78 158.22 50.15
  Q 157.73 50.47 158.01 50.98
  Q 158.20 51.32 157.92 51.59
  Q 156.91 52.54 157.14 53.77
  Q 157.24 54.28 156.98 54.72
  L 155.25 57.68
  Q 155.19 57.78 155.28 57.85
  Q 155.47 57.99 155.59 58.20
  A 0.59 0.58 -29.7 0 1 155.37 58.99
  Q 154.51 59.47 153.84 60.28
  Q 153.37 60.84 154.02 61.16
  Q 155.33 61.83 156.90 60.83
  A 0.57 0.57 0.0 0 0 157.11 60.13
  Q 156.64 59.06 156.86 57.83
  Q 156.92 57.48 157.10 57.78"
/>
<path stroke="#c1c3c3" vector-effect="non-scaling-stroke" d="
  M 153.34 51.23
  Q 153.22 51.91 152.79 52.46
  Q 152.58 52.75 152.90 52.89
  L 153.30 53.08
  Q 153.56 53.20 153.73 52.96
  Q 154.21 52.27 154.31 51.28
  Q 154.32 51.18 154.22 51.14
  L 153.80 50.97
  Q 153.42 50.82 153.34 51.23"
/>
<path stroke="#c1c3c3" vector-effect="non-scaling-stroke" d="
  M 148.99 53.90
  Q 150.01 53.45 150.15 52.53
  A 0.32 0.32 0.0 0 0 149.65 52.23
  Q 148.98 52.71 148.58 53.45
  Q 148.12 54.29 148.99 53.90"
/>
<path stroke="#c1c3c3" vector-effect="non-scaling-stroke" d="
  M 144.99 53.89
  A 0.28 0.28 0.0 0 0 144.49 53.72
  Q 144.10 54.23 144.26 54.86
  Q 144.48 55.78 145.23 56.11
  Q 146.03 56.46 145.56 55.73
  Q 145.00 54.88 144.99 53.89"
/>
<path stroke="#c1c3c3" vector-effect="non-scaling-stroke" d="
  M 150.56 56.77
  L 149.99 57.08
  Q 149.52 57.33 149.71 57.82
  Q 150.28 59.30 148.96 60.47
  A 0.44 0.43 59.8 0 0 148.84 60.93
  L 148.97 61.33
  Q 149.08 61.67 149.41 61.50
  Q 150.33 61.02 150.67 59.99
  Q 151.33 58.03 152.75 55.81
  Q 153.76 54.25 151.95 54.65
  Q 150.90 54.88 150.98 56.01
  A 0.79 0.79 0.0 0 1 150.56 56.77"
/>
<path stroke="#c1c3c3" vector-effect="non-scaling-stroke" d="
  M 147.86 55.78
  Q 147.29 57.48 146.02 58.18
  Q 145.47 58.49 145.59 59.12
  Q 146.04 61.32 147.88 61.88
  Q 148.84 62.18 148.16 61.44
  Q 146.31 59.41 148.27 57.52
  Q 148.60 57.20 148.65 56.74
  Q 148.70 56.26 148.59 55.81
  Q 148.29 54.49 147.86 55.78"
/>
<path stroke="#d5d5d5" vector-effect="non-scaling-stroke" d="
  M 92.52 71.19
  L 98.09 70.48
  A 0.11 0.11 0.0 0 0 98.19 70.35
  L 98.18 70.26
  A 2.80 1.48 -7.3 0 0 95.21 69.15
  L 94.97 69.18
  A 2.80 1.48 -7.3 0 0 92.38 71.01
  L 92.40 71.10
  A 0.11 0.11 0.0 0 0 92.52 71.19"
/>
<path stroke="#d5d5d5" vector-effect="non-scaling-stroke" d="
  M 109.58 71.11
  L 109.70 70.34
  A 0.17 0.17 0.0 0 0 109.56 70.14
  L 105.49 69.49
  A 0.53 0.40 9.1 0 0 104.91 69.80
  L 104.86 70.12
  A 0.53 0.40 9.1 0 0 105.32 70.60
  L 109.38 71.25
  A 0.17 0.17 0.0 0 0 109.58 71.11"
/>
<path stroke="#c1c3c3" vector-effect="non-scaling-stroke" d="
  M 98.00 73.85
  L 92.78 73.79
  A 0.17 0.17 0.0 0 0 92.61 73.96
  L 92.61 74.04
  A 2.40 1.39 0.7 0 0 94.99 75.46
  L 95.75 75.46
  A 2.40 1.39 0.7 0 0 98.17 74.10
  L 98.17 74.02
  A 0.17 0.17 0.0 0 0 98.00 73.85"
/>
<path stroke="#c1c3c3" vector-effect="non-scaling-stroke" d="
  M 105.40 73.96
  Q 102.71 73.68 105.04 75.06
  Q 106.79 76.10 108.92 75.19
  Q 109.44 74.96 109.45 74.40
  Q 109.45 74.22 109.31 74.11
  Q 109.02 73.87 108.65 73.92
  Q 107.03 74.13 105.40 73.96"
/>
<path stroke="#d5d5d5" vector-effect="non-scaling-stroke" d="
  M 103.56 81.54
  L 98.81 81.26
  A 0.12 0.12 0.0 0 0 98.68 81.37
  L 98.68 81.45
  A 2.39 1.32 3.4 0 0 100.99 82.91
  L 101.20 82.93
  A 2.39 1.32 3.4 0 0 103.67 81.75
  L 103.67 81.67
  A 0.12 0.12 0.0 0 0 103.56 81.54"
/>
<path stroke="#d5d5d5" vector-effect="non-scaling-stroke" d="
  M 105.19 84.43
  L 105.15 84.15
  A 0.39 0.39 0.0 0 0 104.56 83.87
  Q 101.27 85.82 98.01 84.15
  Q 97.55 83.92 97.30 84.37
  L 97.16 84.61
  A 0.29 0.28 31.4 0 0 97.26 84.99
  Q 100.93 87.39 104.84 85.15
  Q 105.26 84.91 105.19 84.43"
/>
<path stroke="#979998" vector-effect="non-scaling-stroke" d="
  M 110.47 105.67
  Q 110.59 106.01 110.84 106.28
  Q 111.15 106.62 111.62 106.65
  C 114.03 106.83 117.90 109.88 119.70 111.23
  A 0.79 0.79 0.0 0 0 120.97 110.57
  C 120.87 107.13 119.15 102.99 117.55 99.96
  C 116.32 97.65 116.10 95.18 114.38 93.11
  Q 114.31 93.02 114.20 93.08
  L 113.95 93.22
  Q 113.54 93.46 113.73 93.89
  Q 117.22 101.56 119.96 109.18
  Q 120.36 110.28 119.36 109.68
  Q 115.38 107.29 111.09 103.85
  A 0.72 0.72 0.0 0 0 110.27 103.80
  Q 109.29 104.38 110.15 105.18
  A 1.30 1.23 13.3 0 1 110.47 105.67"
/>
<path stroke="#686e71" vector-effect="non-scaling-stroke" d="
  M 85.24 109.35
  L 91.38 105.84
  Q 92.11 105.43 92.17 104.60
  L 92.19 104.30
  Q 92.26 103.37 91.41 103.77
  Q 87.79 105.50 84.98 108.24"
/>
<path stroke="#979998" vector-effect="non-scaling-stroke" d="
  M 84.98 108.24
  Q 84.47 108.48 84.01 108.39
  A 0.51 0.51 0.0 0 1 83.67 107.62
  Q 84.56 106.23 85.08 104.71
  Q 86.81 99.56 87.97 94.21
  A 0.39 0.39 0.0 0 0 87.69 93.75
  L 87.38 93.66
  A 0.15 0.14 16.5 0 0 87.20 93.75
  L 82.60 108.24
  A 0.82 0.81 -70.5 0 0 83.07 109.24
  Q 84.51 109.83 85.24 109.35"
/>
<path stroke="#555c5f" vector-effect="non-scaling-stroke" d="
  M 84.98 108.24
  Q 84.69 108.95 85.24 109.35"
/>
<path stroke="#d5d5d5" vector-effect="non-scaling-stroke" d="
  M 78.70 114.40
  L 76.62 116.21
  A 0.80 0.80 0.0 0 0 76.66 117.44
  L 77.03 117.72
  A 0.97 0.96 -50.4 0 0 78.34 117.59
  Q 79.34 116.45 79.66 114.97
  A 0.59 0.59 0.0 0 0 78.70 114.40"
/>
<path stroke="#979998" vector-effect="non-scaling-stroke" d="
  M 104.06 120.05
  A 1.09 1.09 0.0 0 0 102.97 118.96
  A 1.09 1.09 0.0 0 0 101.88 120.05
  A 1.09 1.09 0.0 0 0 102.97 121.14
  A 1.09 1.09 0.0 0 0 104.06 120.05"
/>
<path stroke="#c1c3c3" vector-effect="non-scaling-stroke" d="
  M 40.5340 104.9455
  A 1.68 0.96 99.8 0 0 41.7660 103.4534
  A 1.68 0.96 99.8 0 0 41.1060 101.6345
  A 1.68 0.96 99.8 0 0 39.8740 103.1266
  A 1.68 0.96 99.8 0 0 40.5340 104.9455"
/>
<path stroke="#c1c3c3" vector-effect="non-scaling-stroke" d="
  M 149.58 90.91
  Q 149.93 91.80 150.68 92.46
  Q 151.06 92.81 151.40 92.41
  L 152.05 91.63
  A 0.70 0.70 0.0 0 0 151.90 90.59
  Q 151.13 90.11 150.35 89.98
  A 0.70 0.69 -5.6 0 0 149.58 90.91"
/>
<path stroke="#c1c3c3" vector-effect="non-scaling-stroke" d="
  M 167.40 108.02
  L 165.86 109.80
  Q 165.29 110.44 165.80 111.14
  L 168.52 114.89
  A 0.75 0.75 0.0 0 0 169.65 114.98
  L 173.92 110.70
  A 1.02 1.01 34.8 0 0 173.62 109.06
  Q 172.10 108.38 171.00 107.31
  Q 163.83 100.39 156.07 92.81
  C 153.04 89.85 148.97 95.09 153.16 97.09
  A 0.62 0.62 0.0 0 0 153.93 96.88
  L 154.62 95.88
  A 1.41 1.41 0.0 0 1 156.77 95.67
  L 167.33 106.04
  A 1.45 1.44 -47.2 0 1 167.40 108.02"
/>
<path stroke="#c1c3c3" vector-effect="non-scaling-stroke" d="
  M 156.22 96.33
  A 1.02 1.02 0.0 0 0 154.57 96.66
  L 154.16 97.58
  A 1.02 1.02 0.0 0 0 154.35 98.68
  L 163.95 109.18
  A 1.02 1.02 0.0 0 0 165.54 109.07
  L 166.54 107.62
  A 1.02 1.02 0.0 0 0 166.42 106.31
  L 156.22 96.33"
/>
<path stroke="#d5d5d5" vector-effect="non-scaling-stroke" d="
  M 44.49 98.32
  Q 47.41 96.28 48.58 94.06
  Q 48.82 93.60 48.32 93.64
  Q 48.17 93.65 48.01 93.59
  A 0.39 0.39 0.0 0 0 47.55 93.70
  Q 46.38 95.11 44.74 95.84
  A 0.71 0.69 78.9 0 0 44.33 96.47
  L 44.30 98.22
  Q 44.30 98.45 44.49 98.32"
/>
<path stroke="#c1c3c3" vector-effect="non-scaling-stroke" d="
  M 51.73 156.92
  Q 51.60 156.82 51.59 156.67
  Q 51.58 155.96 50.88 155.83
  Q 48.68 155.40 46.78 155.57
  Q 46.09 155.63 46.17 156.32
  L 46.23 156.77
  Q 46.31 157.47 47.02 157.47
  L 49.06 157.47
  Q 49.65 157.47 50.09 157.86
  Q 50.90 158.57 51.54 157.68
  Q 51.76 157.36 52.08 157.60
  Q 52.87 158.22 53.68 157.57
  A 1.57 1.56 -50.4 0 1 55.38 157.40
  Q 56.32 157.89 57.29 157.51
  A 0.86 0.85 -84.6 0 0 57.66 157.20
  Q 58.09 156.53 57.54 156.07
  Q 56.80 155.46 55.85 155.55
  L 53.05 155.81
  Q 52.57 155.86 52.30 156.26
  Q 52.16 156.47 52.12 156.75
  Q 52.06 157.15 51.73 156.92"
/>
<path stroke="#c1c3c3" vector-effect="non-scaling-stroke" d="
  M 48.1569 161.8600
  A 1.78 1.06 90.1 0 0 49.2200 160.0819
  A 1.78 1.06 90.1 0 0 48.1631 158.3000
  A 1.78 1.06 90.1 0 0 47.1000 160.0781
  A 1.78 1.06 90.1 0 0 48.1569 161.8600"
/>
<path stroke="#c1c3c3" vector-effect="non-scaling-stroke" d="
  M 55.3579 161.8092
  A 1.66 1.02 91.8 0 0 56.4295 160.1820
  A 1.66 1.02 91.8 0 0 55.4621 158.4908
  A 1.66 1.02 91.8 0 0 54.3905 160.1180
  A 1.66 1.02 91.8 0 0 55.3579 161.8092"
/>
<path stroke="#c1c3c3" vector-effect="non-scaling-stroke" d="
  M 51.41 161.14
  Q 52.73 160.84 52.94 159.52
  A 0.48 0.47 4.0 0 0 52.46 158.97
  L 50.98 159.00
  Q 50.55 159.00 50.47 159.43
  Q 50.35 160.00 50.53 160.54
  Q 50.77 161.26 50.33 161.88
  Q 49.24 163.43 47.40 162.57
  Q 46.35 162.08 46.08 163.21
  Q 45.77 164.49 46.09 165.86
  Q 46.30 166.79 47.23 166.58
  Q 48.96 166.20 50.65 167.10
  A 2.46 2.45 41.0 0 0 53.27 166.92
  Q 54.84 165.75 56.58 166.69
  Q 57.15 167.00 57.43 166.41
  Q 58.19 164.78 57.73 162.95
  Q 57.56 162.26 56.93 162.58
  Q 54.99 163.54 53.05 161.98
  Q 52.58 161.59 52.02 161.84
  Q 51.69 161.98 51.35 161.84
  Q 50.28 161.40 51.41 161.14"
/>
<path stroke="#c1c3c3" vector-effect="non-scaling-stroke" d="
  M 56.76 170.26
  L 56.04 167.61
  A 0.28 0.28 0.0 0 0 55.70 167.42
  L 55.45 167.49
  A 1.78 1.51 -15.2 0 0 54.12 169.41
  L 54.20 169.68
  A 1.78 1.51 -15.2 0 0 56.31 170.67
  L 56.56 170.60
  A 0.28 0.28 0.0 0 0 56.76 170.26"
/>
<path stroke="#c1c3c3" vector-effect="non-scaling-stroke" d="
  M 52.9916 168.7742
  A 0.84 0.84 0.0 0 0 52.2232 167.8681
  L 51.1469 167.7797
  A 0.84 0.84 0.0 0 0 50.2409 168.5480
  L 50.1884 169.1858
  A 0.84 0.84 0.0 0 0 50.9568 170.0919
  L 52.0331 170.1803
  A 0.84 0.84 0.0 0 0 52.9391 169.4120
  L 52.9916 168.7742"
/>
<path stroke="#a1c6ff" vector-effect="non-scaling-stroke" d="
  M 96.55 164.55
  Q 96.33 166.05 96.85 167.27
  Q 97.12 167.92 97.83 167.96
  L 100.94 168.15
  A 1.86 1.86 0.0 0 0 102.91 166.20
  Q 102.78 163.37 105.50 163.73
  Q 107.28 163.96 107.53 162.29
  C 107.73 160.94 107.94 159.42 107.37 158.16
  A 0.93 0.92 82.8 0 0 106.71 157.64
  L 104.06 157.11
  A 1.20 1.20 0.0 0 1 103.09 155.85
  C 103.34 152.40 99.63 152.44 97.45 153.20
  A 0.93 0.91 82.4 0 0 96.84 154.01
  Q 96.68 157.24 93.64 157.26
  Q 92.12 157.27 92.11 158.79
  L 92.09 162.07
  A 1.39 1.39 0.0 0 0 93.32 163.45
  L 95.94 163.75
  Q 96.66 163.83 96.55 164.55"
/>
<path stroke="#d5d5d5" vector-effect="non-scaling-stroke" d="
  M 158.70 154.29
  L 159.82 154.33
  A 0.23 0.23 0.0 0 0 160.06 154.11
  L 160.07 153.94
  A 4.54 0.69 -87.7 0 0 159.56 149.38
  L 159.36 149.37
  A 4.54 0.69 -87.7 0 0 158.49 153.88
  L 158.48 154.05
  A 0.23 0.23 0.0 0 0 158.70 154.29"
/>
<path stroke="#d5d5d5" vector-effect="non-scaling-stroke" d="
  M 160.47 155.40
  A 0.71 0.71 0.0 0 0 159.98 154.84
  L 159.39 154.66
  A 0.71 0.71 0.0 0 0 158.51 155.13
  L 157.68 157.75
  A 0.71 0.71 0.0 0 0 158.31 158.67
  L 160.16 158.80
  A 0.71 0.71 0.0 0 0 160.91 157.97
  L 160.47 155.40"
/>
<path stroke="#d5d5d5" vector-effect="non-scaling-stroke" d="
  M 161.36 170.83
  Q 159.07 172.29 156.09 170.11
  Q 155.59 169.75 155.49 170.35
  Q 155.12 172.50 155.23 174.40
  Q 155.32 175.82 156.86 175.76
  Q 157.19 175.74 161.90 175.55
  Q 163.40 175.49 163.21 174.00
  Q 162.96 171.98 162.67 169.67
  Q 162.38 167.45 162.79 165.41
  Q 163.28 162.98 163.05 160.61
  A 1.09 1.09 0.0 0 0 161.84 159.64
  Q 159.58 159.92 157.32 159.51
  A 1.80 1.80 0.0 0 0 155.20 161.45
  L 155.56 165.22
  Q 155.60 165.58 155.82 165.30
  Q 157.59 162.99 161.66 164.33
  Q 162.12 164.48 162.23 164.95
  A 0.41 0.40 6.7 0 1 161.66 165.40
  Q 158.71 164.02 156.88 165.49
  Q 156.23 166.02 156.38 167.04
  Q 156.49 167.74 156.46 168.46
  A 1.35 1.34 -71.3 0 0 157.02 169.61
  Q 158.69 170.81 161.08 170.19
  Q 163.25 169.62 161.36 170.83"
/>
<path stroke="#c1c3c3" vector-effect="non-scaling-stroke" d="
  M 51.8564 165.9492
  A 1.40 0.55 88.1 0 0 52.3597 164.5318
  A 1.40 0.55 88.1 0 0 51.7636 163.1508
  A 1.40 0.55 88.1 0 0 51.2603 164.5682
  A 1.40 0.55 88.1 0 0 51.8564 165.9492"
/>
</g>
<path fill="#ffffff" d="
  M 0.00 0.00
  L 200.00 0.00
  L 200.00 200.00
  L 0.00 200.00
  L 0.00 0.00
  Z
  M 38.48 103.09
  L 34.66 113.51
  Q 34.49 113.97 34.73 114.39
  Q 35.15 115.11 34.54 115.70
  Q 33.30 116.91 32.70 118.53
  A 2.12 2.12 0.0 0 1 29.93 119.77
  C 27.24 118.71 28.57 115.89 30.03 114.49
  Q 30.46 114.09 31.02 114.26
  Q 32.13 114.60 33.08 115.43
  Q 33.43 115.73 33.66 115.32
  L 33.83 115.01
  A 0.60 0.60 0.0 0 0 33.70 114.27
  Q 32.49 113.21 30.79 112.85
  Q 30.23 112.74 29.75 113.06
  C 26.95 114.93 25.79 119.21 29.53 120.97
  C 32.75 122.50 34.72 118.01 35.61 115.60
  Q 37.56 110.34 39.10 105.80
  Q 39.20 105.50 39.51 105.58
  L 40.23 105.77
  Q 40.65 105.88 40.55 106.31
  Q 38.93 113.38 38.17 119.52
  C 37.76 122.76 41.37 124.87 43.66 122.07
  C 45.80 119.45 45.48 115.38 41.23 115.71
  A 0.87 0.86 -84.4 0 0 40.45 116.36
  L 40.36 116.73
  A 0.34 0.34 0.0 0 0 40.75 117.15
  Q 42.35 116.84 43.50 117.95
  Q 43.81 118.26 43.74 118.69
  C 43.47 120.30 42.43 123.06 40.21 121.89
  Q 38.92 121.22 39.41 119.85
  Q 39.80 118.75 40.19 117.64
  Q 40.41 117.00 39.74 117.06
  Q 39.57 117.08 39.49 116.81
  Q 39.34 116.34 39.73 116.05
  Q 40.30 115.63 40.44 114.89
  Q 41.32 110.29 42.28 104.86
  Q 53.30 109.50 65.15 108.11
  L 64.19 114.14
  Q 64.12 114.64 63.81 115.04
  Q 63.46 115.50 63.69 115.99
  Q 63.91 116.43 64.38 116.56
  Q 65.20 116.79 65.85 117.25
  Q 67.37 118.32 69.26 118.83
  Q 69.80 118.97 70.12 119.43
  Q 71.15 120.86 72.89 121.08
  Q 74.55 121.29 73.31 120.17
  Q 70.50 117.63 66.62 116.22
  Q 66.34 116.12 66.33 115.83
  L 66.32 115.36
  Q 66.31 114.90 66.77 114.98
  Q 70.99 115.75 74.03 118.81
  Q 74.29 119.07 74.56 118.83
  L 74.76 118.66
  Q 74.93 118.51 74.79 118.33
  Q 72.97 116.14 70.59 115.21
  A 0.61 0.61 0.0 0 1 70.41 114.19
  Q 71.34 113.37 72.34 114.18
  Q 73.71 115.27 75.03 116.54
  C 75.96 117.43 75.98 118.55 76.35 119.68
  Q 76.53 120.26 75.98 120.50
  Q 74.03 121.36 73.82 123.02
  Q 73.69 124.04 74.64 123.66
  Q 75.98 123.13 76.67 121.53
  Q 76.99 120.80 77.54 121.38
  Q 78.80 122.73 77.67 123.42
  Q 76.14 123.95 75.31 126.60
  A 0.61 0.60 87.8 0 0 76.11 127.35
  Q 77.44 126.81 77.98 124.63
  Q 81.02 124.25 78.79 127.21
  Q 77.84 127.59 77.42 129.01
  Q 76.10 130.02 75.30 128.63
  Q 73.28 129.13 72.71 131.42
  Q 72.59 131.93 73.01 132.25
  Q 73.41 132.55 74.01 132.20
  Q 74.74 131.94 74.79 133.47
  Q 74.01 134.74 74.50 136.01
  Q 74.68 136.49 74.69 136.99
  L 74.78 143.98
  L 74.44 155.69
  L 72.20 160.25
  L 65.19 174.41
  Q 64.80 175.21 63.91 175.21
  L 59.72 175.22
  Q 58.90 175.22 58.74 174.42
  Q 57.81 169.76 58.35 166.83
  Q 58.92 163.71 58.48 161.64
  C 58.14 160.03 58.37 158.62 58.70 157.05
  A 1.62 1.62 0.0 0 0 57.13 155.09
  L 46.47 155.01
  A 1.19 1.18 83.8 0 0 45.31 156.46
  Q 45.90 159.05 45.48 161.85
  Q 45.11 164.30 45.47 166.59
  Q 45.96 169.70 45.16 172.92
  Q 44.90 173.99 45.61 173.16
  Q 47.61 170.83 47.01 168.17
  Q 46.89 167.67 47.37 167.48
  Q 47.77 167.31 48.21 167.36
  Q 49.02 167.44 49.16 168.24
  Q 49.56 170.47 47.72 171.13
  Q 47.21 171.32 47.63 171.67
  Q 48.01 171.98 48.53 171.90
  Q 49.25 171.79 49.86 171.42
  A 4.72 3.68 38.0 0 1 53.86 171.42
  Q 55.07 171.98 56.41 171.89
  Q 57.71 171.81 57.94 173.10
  L 58.01 173.52
  Q 58.28 175.05 56.73 175.06
  L 53.01 175.08
  A 1.01 1.01 0.0 0 1 51.99 174.01
  L 52.08 172.37
  A 0.30 0.29 89.2 0 0 51.77 172.06
  L 51.47 172.08
  A 0.06 0.06 0.0 0 0 51.42 172.15
  Q 51.59 173.27 51.17 174.47
  A 0.91 0.89 3.9 0 1 50.49 175.05
  Q 48.20 175.47 45.88 174.56
  Q 45.52 174.42 45.16 174.56
  Q 43.79 175.11 42.06 175.06
  Q 35.23 174.90 28.48 174.88
  Q 28.35 174.88 28.39 175.00
  L 28.48 175.31
  A 0.28 0.27 81.3 0 0 28.74 175.51
  L 75.35 175.70
  L 123.53 176.00
  L 174.46 176.54
  Q 174.74 176.54 174.74 176.26
  L 174.75 175.97
  Q 174.75 175.75 174.54 175.74
  Q 169.74 175.57 164.96 175.66
  Q 164.36 175.67 163.91 175.24
  Q 163.50 174.84 163.78 174.27
  Q 164.12 173.60 164.00 172.85
  Q 163.18 167.88 164.11 162.34
  Q 164.52 159.90 162.91 158.49
  A 1.75 1.70 14.3 0 1 162.39 157.64
  C 161.68 154.72 160.19 151.44 160.59 148.49
  Q 160.72 147.59 159.84 147.35
  L 159.34 147.22
  A 0.68 0.68 0.0 0 0 158.50 147.72
  L 156.23 157.51
  Q 156.13 157.93 155.80 158.22
  Q 154.28 159.51 154.46 161.66
  Q 154.99 168.24 154.42 174.79
  Q 154.37 175.40 153.78 175.55
  Q 151.44 176.15 149.26 175.05
  Q 148.75 174.79 148.32 175.16
  Q 147.45 175.91 146.76 175.02
  Q 146.46 174.62 145.96 174.63
  L 138.04 174.81
  Q 136.71 174.84 136.80 173.51
  L 136.97 171.07
  Q 137.05 169.93 138.18 170.10
  Q 141.22 170.53 143.93 170.36
  Q 146.19 170.23 146.23 172.68
  Q 146.27 174.85 146.80 172.75
  Q 147.05 171.75 146.60 170.72
  Q 146.46 170.39 146.58 170.09
  Q 147.02 168.96 145.81 168.97
  L 138.50 169.03
  A 1.67 1.65 87.2 0 1 136.83 167.50
  L 136.74 166.33
  Q 136.61 164.77 138.17 164.78
  L 147.55 164.85
  Q 148.04 164.86 148.33 165.25
  Q 149.61 167.00 148.23 168.81
  Q 147.88 169.26 148.23 169.71
  C 149.47 171.31 148.30 172.70 148.85 174.51
  Q 148.86 174.57 148.92 174.57
  L 149.20 174.54
  A 0.27 0.27 0.0 0 0 149.45 174.28
  L 149.72 165.53
  A 1.45 1.45 0.0 0 0 148.28 164.03
  L 136.84 163.91
  A 0.76 0.76 0.0 0 0 136.07 164.66
  L 135.89 174.44
  Q 135.88 174.92 135.52 175.24
  Q 135.02 175.70 134.16 175.55
  A 1.32 1.32 0.0 0 1 133.19 174.83
  Q 129.57 167.44 126.22 160.76
  C 124.57 157.47 125.00 153.90 125.36 149.30
  Q 125.85 146.92 125.34 145.29
  Q 124.73 142.93 125.21 141.45
  Q 125.38 140.92 125.23 140.39
  Q 124.91 139.31 125.17 138.34
  Q 125.29 137.89 125.29 137.42
  L 125.27 132.01
  Q 125.00 130.65 125.75 130.32
  Q 126.02 130.20 126.90 130.23
  L 127.59 132.50
  Q 127.73 132.98 128.21 132.82
  L 140.28 128.82
  L 142.14 143.05
  C 142.85 147.45 142.63 153.04 137.57 154.80
  Q 137.21 154.92 136.90 154.69
  Q 136.75 154.57 136.57 154.64
  Q 136.26 154.75 136.08 155.01
  Q 135.40 155.97 134.57 156.72
  Q 134.12 157.14 133.59 156.83
  L 132.59 156.26
  Q 131.93 155.88 132.41 156.47
  C 133.14 157.38 134.27 157.58 135.23 156.86
  C 138.10 154.68 141.07 154.72 142.55 150.77
  Q 143.56 148.07 142.62 142.52
  Q 142.09 136.48 141.62 130.38
  Q 141.59 129.88 140.86 128.18
  Q 140.65 127.63 140.79 126.77
  L 142.33 125.22
  Q 142.65 124.98 142.78 124.77
  Q 142.92 124.57 142.82 124.34
  Q 140.02 118.03 139.28 110.92
  Q 138.31 101.68 130.20 97.44
  Q 125.80 95.15 121.28 93.71
  Q 120.88 94.00 120.92 92.96
  C 126.09 88.51 128.64 82.27 124.90 75.86
  Q 123.00 72.59 120.84 69.61
  A 3.57 3.55 -60.2 0 1 120.18 67.15
  C 120.76 61.69 121.66 57.51 117.84 52.84
  Q 110.68 44.07 97.72 42.64
  Q 96.54 40.93 94.80 38.50
  C 86.32 26.66 72.35 20.63 57.92 20.92
  C 31.97 21.45 12.68 45.81 16.45 71.21
  Q 19.12 89.23 35.09 100.63
  Q 36.91 101.92 38.48 103.09
  Z
  M 162.9416 47.1729
  A 1.26 1.26 0.0 0 0 161.3654 46.3418
  L 141.7440 52.4157
  A 1.26 1.26 0.0 0 0 140.9129 53.9919
  L 144.1184 64.3471
  A 1.26 1.26 0.0 0 0 145.6946 65.1782
  L 165.3160 59.1043
  A 1.26 1.26 0.0 0 0 166.1471 57.5281
  L 162.9416 47.1729
  Z
  M 150.38 93.78
  Q 150.47 95.93 152.13 97.74
  Q 158.62 104.81 165.30 112.01
  C 166.48 113.29 167.32 114.73 168.28 116.15
  A 0.72 0.71 -39.5 0 0 169.37 116.25
  L 175.45 110.25
  A 0.61 0.60 -50.5 0 0 175.36 109.32
  C 173.99 108.41 172.52 107.66 171.36 106.50
  Q 164.72 99.88 157.25 92.63
  Q 155.49 90.92 153.17 90.80
  Q 152.65 90.78 152.30 90.40
  L 150.86 88.86
  A 1.06 1.06 0.0 0 0 149.21 89.01
  L 148.79 89.66
  A 1.63 1.62 -50.0 0 0 148.96 91.66
  L 149.92 92.68
  Q 150.36 93.14 150.38 93.78
  Z
  M 70.64 149.02
  Q 69.36 151.61 67.41 153.73
  A 1.25 1.24 -56.9 0 1 66.00 154.03
  Q 58.71 150.87 60.17 143.22
  Q 61.03 138.72 62.37 134.40
  C 63.49 130.77 62.35 127.39 60.85 124.13
  C 59.74 121.72 60.30 119.71 63.06 118.79
  Q 63.52 118.63 63.98 118.77
  Q 64.75 119.01 65.44 118.61
  Q 66.07 118.26 65.36 118.12
  Q 64.51 117.95 63.68 118.32
  Q 63.15 118.56 63.07 117.99
  Q 62.99 117.48 63.11 116.98
  A 0.72 0.72 0.0 0 0 62.61 116.12
  L 62.25 116.02
  A 0.71 0.71 0.0 0 0 61.38 116.46
  C 60.98 117.60 60.64 118.56 59.80 119.48
  Q 58.77 120.61 59.31 122.26
  Q 60.45 125.77 61.47 129.30
  Q 61.95 130.98 61.44 132.75
  Q 60.06 137.56 59.16 142.65
  Q 57.66 151.13 65.33 154.57
  C 68.81 156.13 71.47 149.16 72.30 146.75
  C 73.54 143.11 71.56 138.29 70.41 134.74
  Q 70.18 134.02 70.18 134.78
  Q 70.17 135.61 70.43 136.39
  Q 71.59 139.82 71.96 143.21
  Q 72.24 145.79 70.64 149.02
  Z
  M 70.37 122.31
  Q 70.88 121.95 70.37 121.57
  Q 69.08 120.58 67.82 119.53
  A 0.65 0.64 -46.7 0 0 66.96 119.56
  L 66.50 119.99
  Q 66.12 120.35 65.61 120.26
  Q 63.85 119.95 62.65 121.29
  Q 62.27 121.72 62.77 121.99
  L 63.10 122.17
  A 0.37 0.36 -52.9 0 0 63.52 122.11
  Q 64.49 121.16 65.54 120.91
  Q 66.03 120.80 66.09 121.30
  Q 66.33 123.43 67.60 125.21
  Q 67.72 125.38 67.92 125.38
  Q 68.20 125.39 68.14 125.12
  L 67.45 121.83
  Q 67.30 121.12 68.01 121.24
  Q 69.39 121.46 70.06 122.70
  Q 70.14 122.86 70.25 122.72
  Q 70.34 122.63 70.31 122.46
  Q 70.29 122.37 70.37 122.31
  Z
  M 71.8846 123.5944
  A 0.74 0.74 0.0 0 0 71.6067 122.5854
  L 71.5023 122.5261
  A 0.74 0.74 0.0 0 0 70.4934 122.8040
  L 69.5154 124.5256
  A 0.74 0.74 0.0 0 0 69.7933 125.5346
  L 69.8977 125.5939
  A 0.74 0.74 0.0 0 0 70.9066 125.3160
  L 71.8846 123.5944
  Z
  M 73.7335 126.3097
  A 0.65 0.65 0.0 0 0 73.4449 125.4369
  L 73.2483 125.3381
  A 0.65 0.65 0.0 0 0 72.3756 125.6267
  L 71.1265 128.1103
  A 0.65 0.65 0.0 0 0 71.4151 128.9831
  L 71.6117 129.0819
  A 0.65 0.65 0.0 0 0 72.4844 128.7933
  L 73.7335 126.3097
  Z
  M 70.38 129.63
  Q 69.55 128.01 68.93 126.17
  Q 68.91 126.11 68.85 126.13
  L 68.58 126.19
  Q 68.21 126.27 68.24 126.66
  Q 68.35 127.74 68.08 128.75
  A 0.82 0.81 7.4 0 1 67.29 129.35
  L 65.80 129.34
  Q 65.31 129.34 65.39 129.83
  L 65.45 130.22
  Q 65.51 130.61 65.91 130.56
  Q 66.83 130.45 67.51 129.77
  A 1.03 1.03 0.0 0 1 69.23 130.20
  Q 69.48 131.04 69.88 131.83
  Q 70.22 132.49 70.49 131.80
  Q 70.91 130.68 70.38 129.63
  Z
  M 133.45 140.74
  Q 133.39 141.25 133.54 141.65
  Q 131.93 144.41 129.42 143.80
  Q 128.56 143.60 128.60 144.48
  Q 128.60 144.62 128.59 144.76
  Q 128.55 145.25 129.04 145.17
  Q 132.26 144.64 133.80 142.29
  Q 134.93 141.51 134.14 140.24
  Q 132.18 138.04 129.67 136.37
  C 128.77 135.78 128.22 134.85 127.82 133.88
  A 0.31 0.31 0.0 0 0 127.24 133.89
  Q 126.94 134.72 127.85 135.39
  Q 131.05 137.74 133.45 140.74
  Z
  M 129.42 142.30
  A 0.26 0.26 0.0 0 0 129.92 142.20
  Q 129.87 140.10 127.41 138.71
  Q 126.38 138.14 127.21 138.98
  Q 128.64 140.44 129.42 142.30
  Z
  M 135.98 140.46
  Q 135.92 140.64 136.11 140.68
  Q 138.71 141.27 140.42 143.76
  Q 140.47 143.84 140.55 143.79
  L 140.82 143.64
  Q 140.92 143.58 140.87 143.48
  Q 139.42 140.53 136.19 140.14
  Q 136.10 140.13 136.07 140.21
  L 135.98 140.46
  Z
  M 136.81 144.46
  Q 137.00 142.61 135.60 141.90
  Q 134.95 141.57 135.31 142.20
  Q 136.04 143.47 136.17 144.73
  Q 136.22 145.28 135.75 145.55
  Q 131.66 148.00 127.06 149.26
  Q 126.86 149.31 126.90 149.51
  L 126.96 149.93
  Q 127.00 150.16 127.22 150.09
  Q 131.73 148.75 135.39 146.27
  A 1.27 1.27 0.0 0 1 137.37 147.19
  Q 137.61 149.48 135.82 151.38
  A 0.95 0.93 23.6 0 1 135.05 151.67
  Q 132.33 151.45 129.22 152.24
  Q 128.59 152.40 128.46 153.01
  Q 128.20 154.19 129.21 153.54
  Q 131.76 151.91 135.23 152.11
  Q 135.80 152.15 136.14 152.61
  Q 136.48 153.09 136.76 152.57
  Q 138.94 148.38 137.02 145.34
  A 1.46 1.41 -59.4 0 1 136.81 144.46
  Z
  M 132.25 155.49
  Q 132.72 154.69 133.60 154.35
  Q 133.78 154.28 133.69 154.11
  L 133.69 154.10
  Q 133.64 154.01 133.55 154.06
  Q 132.00 154.78 130.49 155.48
  Q 129.83 155.78 130.51 156.03
  Q 131.69 156.44 132.25 155.49
  Z
  M 127.90 155.10
  Q 127.79 154.47 127.32 154.90
  Q 127.13 155.08 127.04 155.30
  Q 126.95 155.54 127.05 155.78
  Q 127.36 156.46 128.05 156.52
  Q 128.98 156.59 128.33 155.92
  Q 127.99 155.55 127.90 155.10
  Z"
/>
<path fill="#b9d5ff" d="
  M 97.72 42.64
  Q 90.99 46.12 84.59 52.60
  Q 82.17 55.05 80.55 57.79
  C 78.67 60.95 79.61 67.57 79.83 71.27
  Q 79.90 72.46 79.01 73.26
  C 73.48 78.17 69.72 83.58 74.38 90.81
  Q 75.47 92.50 80.06 94.51
  Q 80.03 95.37 79.52 95.55
  Q 75.85 96.79 72.39 98.53
  Q 66.28 101.59 65.15 108.11
  Q 53.30 109.50 42.28 104.86
  Q 42.57 102.12 44.02 99.26
  Q 47.93 97.87 49.76 94.18
  A 1.23 1.23 0.0 0 0 48.44 92.42
  Q 46.40 92.78 46.65 91.54
  Q 48.11 90.60 48.22 89.75
  Q 48.53 87.41 46.89 89.12
  Q 44.16 91.98 41.40 95.69
  Q 40.30 97.17 39.66 99.18
  Q 39.00 101.26 38.48 103.09
  Q 36.91 101.92 35.09 100.63
  Q 19.12 89.23 16.45 71.21
  C 12.68 45.81 31.97 21.45 57.92 20.92
  C 72.35 20.63 86.32 26.66 94.80 38.50
  Q 96.54 40.93 97.72 42.64
  Z
  M 72.60 47.97
  L 72.66 45.20
  Q 72.81 41.06 69.21 38.65
  Q 69.90 37.32 71.02 38.19
  Q 73.85 40.39 74.43 43.96
  Q 74.45 44.08 74.57 44.07
  L 74.58 44.07
  Q 74.70 44.06 74.70 43.93
  Q 74.60 40.51 71.96 38.04
  Q 70.38 36.58 68.51 37.88
  Q 58.30 44.95 49.37 51.54
  Q 48.98 51.83 48.50 51.76
  Q 46.30 51.48 44.18 53.08
  Q 41.54 55.06 39.15 56.98
  C 34.70 60.58 40.87 73.78 45.98 70.49
  C 49.15 68.44 52.96 66.74 54.10 62.83
  A 1.22 1.16 82.0 0 1 54.54 62.21
  Q 62.87 56.10 71.99 49.91
  Q 73.63 48.79 74.62 47.10
  Q 74.81 46.77 74.79 46.40
  Q 74.74 45.62 74.12 46.11
  Q 73.23 46.83 72.60 47.97
  Z"
/>
<path fill="#838786" d="
  M 69.21 38.65
  L 68.13 39.20
  L 50.55 51.82
  A 1.20 1.20 0.0 0 0 50.79 53.91
  Q 51.98 54.41 52.70 55.42
  Q 52.96 55.79 53.00 56.24
  L 53.35 60.20
  A 0.92 0.92 0.0 0 0 54.81 60.87
  L 72.60 47.97
  Q 73.23 46.83 74.12 46.11
  Q 74.74 45.62 74.79 46.40
  Q 74.81 46.77 74.62 47.10
  Q 73.63 48.79 71.99 49.91
  Q 62.87 56.10 54.54 62.21
  A 1.22 1.16 82.0 0 0 54.10 62.83
  C 52.96 66.74 49.15 68.44 45.98 70.49
  C 40.87 73.78 34.70 60.58 39.15 56.98
  Q 41.54 55.06 44.18 53.08
  Q 46.30 51.48 48.50 51.76
  Q 48.98 51.83 49.37 51.54
  Q 58.30 44.95 68.51 37.88
  Q 70.38 36.58 71.96 38.04
  Q 74.60 40.51 74.70 43.93
  Q 74.70 44.06 74.58 44.07
  L 74.57 44.07
  Q 74.45 44.08 74.43 43.96
  Q 73.85 40.39 71.02 38.19
  Q 69.90 37.32 69.21 38.65
  Z
  M 41.52 57.19
  C 45.53 59.58 46.45 64.04 46.83 68.34
  A 0.39 0.39 0.0 0 0 47.45 68.62
  C 50.48 66.33 53.25 65.62 52.83 61.01
  Q 52.38 56.14 48.56 52.97
  A 1.98 1.97 -42.4 0 0 46.17 52.87
  Q 44.03 54.36 41.97 55.71
  Q 41.45 56.06 41.30 56.66
  A 0.48 0.47 -67.8 0 0 41.52 57.19
  Z
  M 44.4578 69.5312
  A 6.08 2.31 68.1 0 0 44.3333 63.0284
  A 6.08 2.31 68.1 0 0 39.9222 58.2488
  A 6.08 2.31 68.1 0 0 40.0467 64.7516
  A 6.08 2.31 68.1 0 0 44.4578 69.5312
  Z"
/>
<path fill="#aaaaaa" d="
  M 69.21 38.65
  Q 72.81 41.06 72.66 45.20
  Q 71.35 40.71 68.13 39.20
  L 69.21 38.65
  Z"
/>
<path fill="#ffffff" d="
  M 68.13 39.20
  Q 71.35 40.71 72.66 45.20
  L 72.60 47.97
  L 54.81 60.87
  A 0.92 0.92 0.0 0 1 53.35 60.20
  L 53.00 56.24
  Q 52.96 55.79 52.70 55.42
  Q 51.98 54.41 50.79 53.91
  A 1.20 1.20 0.0 0 1 50.55 51.82
  L 68.13 39.20
  Z
  M 53.99 54.77
  Q 54.03 54.98 54.10 55.17
  Q 54.23 55.52 54.59 55.44
  Q 55.24 55.31 55.13 54.16
  A 1.14 1.12 7.9 0 0 54.39 53.20
  Q 53.33 52.81 52.92 53.44
  Q 52.65 53.85 53.14 53.92
  Q 53.52 53.98 53.76 54.27
  Q 53.93 54.49 53.99 54.77
  Z"
/>
<path fill="#263138" d="
  M 97.72 42.64
  Q 110.68 44.07 117.84 52.84
  C 121.66 57.51 120.76 61.69 120.18 67.15
  A 3.57 3.55 -60.2 0 0 120.84 69.61
  Q 123.00 72.59 124.90 75.86
  C 128.64 82.27 126.09 88.51 120.92 92.96
  L 120.36 93.77
  L 114.04 92.03
  Q 113.56 91.89 113.27 91.50
  Q 111.77 89.43 109.79 88.20
  Q 109.31 87.73 109.21 86.98
  C 111.26 84.42 111.70 81.83 112.43 78.91
  C 113.16 75.99 115.29 74.53 115.72 71.44
  A 0.81 0.80 -78.1 0 0 115.14 70.55
  Q 109.16 68.87 102.58 66.86
  Q 97.20 65.21 95.38 58.59
  Q 95.25 58.11 94.75 58.20
  Q 94.23 58.29 94.13 58.82
  Q 92.85 65.74 87.33 70.77
  C 83.94 73.87 88.37 75.72 89.10 78.40
  Q 90.27 82.71 91.57 84.67
  C 92.71 86.38 96.46 90.52 99.80 92.08
  L 100.03 92.64
  L 92.50 95.94
  Q 90.58 93.64 91.36 89.56
  Q 91.78 87.41 90.44 89.15
  Q 89.28 90.65 88.19 92.25
  Q 87.89 92.67 87.41 92.86
  L 81.87 95.03
  Q 81.41 95.21 80.97 94.98
  L 80.06 94.51
  Q 75.47 92.50 74.38 90.81
  C 69.72 83.58 73.48 78.17 79.01 73.26
  Q 79.90 72.46 79.83 71.27
  C 79.61 67.57 78.67 60.95 80.55 57.79
  Q 82.17 55.05 84.59 52.60
  Q 90.99 46.12 97.72 42.64
  Z
  M 103.59 65.14
  L 99.07 59.95
  A 0.15 0.15 0.0 0 0 98.86 59.93
  L 98.78 60.00
  A 3.47 1.44 49.0 0 0 99.97 63.57
  L 100.13 63.75
  A 3.47 1.44 49.0 0 0 103.49 65.42
  L 103.57 65.35
  A 0.15 0.15 0.0 0 0 103.59 65.14
  Z"
/>
<path fill="#838786" d="
  M 166.1471 57.5281
  A 1.26 1.26 0.0 0 1 165.3160 59.1043
  L 145.6946 65.1782
  A 1.26 1.26 0.0 0 1 144.1184 64.3471
  L 140.9129 53.9919
  A 1.26 1.26 0.0 0 1 141.7440 52.4157
  L 161.3654 46.3418
  A 1.26 1.26 0.0 0 1 162.9416 47.1729
  L 166.1471 57.5281
  Z
  M 157.10 57.78
  Q 157.44 58.34 158.05 57.98
  Q 158.59 57.67 158.59 57.06
  L 158.58 55.18
  Q 158.57 54.64 158.95 54.25
  Q 160.65 52.47 159.48 50.97
  Q 158.25 49.37 160.00 50.38
  Q 161.40 51.19 161.74 52.93
  Q 161.83 53.43 161.40 53.68
  Q 159.36 54.87 160.09 57.20
  Q 160.24 57.67 159.75 57.79
  Q 158.83 58.01 158.55 58.89
  A 0.98 0.98 0.0 0 0 159.41 60.16
  Q 160.87 60.27 161.26 59.10
  Q 161.74 57.69 161.44 56.31
  Q 161.36 55.92 161.76 55.95
  Q 162.10 55.97 162.21 56.30
  Q 162.59 57.43 163.05 58.46
  A 0.73 0.73 0.0 0 0 164.08 58.80
  Q 164.28 58.68 164.52 58.67
  A 0.73 0.73 0.0 0 0 165.18 57.74
  L 162.49 48.22
  A 1.27 1.27 0.0 0 0 160.90 47.35
  L 142.74 52.84
  Q 141.52 53.21 141.88 54.43
  L 144.55 63.29
  A 1.43 1.43 0.0 0 0 146.37 64.24
  Q 147.91 63.73 149.10 62.72
  Q 149.44 62.42 149.89 62.54
  Q 151.30 62.92 152.65 62.15
  A 0.79 0.75 84.6 0 0 153.00 61.70
  Q 153.20 61.04 152.68 60.80
  Q 152.05 60.51 152.53 60.00
  L 153.77 58.69
  Q 154.16 58.27 154.10 57.71
  C 153.88 55.67 155.82 54.61 155.92 52.47
  Q 155.94 51.97 156.37 51.70
  Q 157.40 51.05 157.42 49.81
  Q 157.43 49.41 157.82 49.38
  Q 158.02 49.37 158.19 49.46
  Q 158.79 49.78 158.22 50.15
  Q 157.73 50.47 158.01 50.98
  Q 158.20 51.32 157.92 51.59
  Q 156.91 52.54 157.14 53.77
  Q 157.24 54.28 156.98 54.72
  L 155.25 57.68
  Q 155.19 57.78 155.28 57.85
  Q 155.47 57.99 155.59 58.20
  A 0.59 0.58 -29.7 0 1 155.37 58.99
  Q 154.51 59.47 153.84 60.28
  Q 153.37 60.84 154.02 61.16
  Q 155.33 61.83 156.90 60.83
  A 0.57 0.57 0.0 0 0 157.11 60.13
  Q 156.64 59.06 156.86 57.83
  Q 156.92 57.48 157.10 57.78
  Z"
/>
<path fill="#ffffff" d="
  M 156.86 57.83
  Q 156.64 59.06 157.11 60.13
  A 0.57 0.57 0.0 0 1 156.90 60.83
  Q 155.33 61.83 154.02 61.16
  Q 153.37 60.84 153.84 60.28
  Q 154.51 59.47 155.37 58.99
  A 0.59 0.58 -29.7 0 0 155.59 58.20
  Q 155.47 57.99 155.28 57.85
  Q 155.19 57.78 155.25 57.68
  L 156.98 54.72
  Q 157.24 54.28 157.14 53.77
  Q 156.91 52.54 157.92 51.59
  Q 158.20 51.32 158.01 50.98
  Q 157.73 50.47 158.22 50.15
  Q 158.79 49.78 158.19 49.46
  Q 158.02 49.37 157.82 49.38
  Q 157.43 49.41 157.42 49.81
  Q 157.40 51.05 156.37 51.70
  Q 155.94 51.97 155.92 52.47
  C 155.82 54.61 153.88 55.67 154.10 57.71
  Q 154.16 58.27 153.77 58.69
  L 152.53 60.00
  Q 152.05 60.51 152.68 60.80
  Q 153.20 61.04 153.00 61.70
  A 0.79 0.75 84.6 0 1 152.65 62.15
  Q 151.30 62.92 149.89 62.54
  Q 149.44 62.42 149.10 62.72
  Q 147.91 63.73 146.37 64.24
  A 1.43 1.43 0.0 0 1 144.55 63.29
  L 141.88 54.43
  Q 141.52 53.21 142.74 52.84
  L 160.90 47.35
  A 1.27 1.27 0.0 0 1 162.49 48.22
  L 165.18 57.74
  A 0.73 0.73 0.0 0 1 164.52 58.67
  Q 164.28 58.68 164.08 58.80
  A 0.73 0.73 0.0 0 1 163.05 58.46
  Q 162.59 57.43 162.21 56.30
  Q 162.10 55.97 161.76 55.95
  Q 161.36 55.92 161.44 56.31
  Q 161.74 57.69 161.26 59.10
  Q 160.87 60.27 159.41 60.16
  A 0.98 0.98 0.0 0 1 158.55 58.89
  Q 158.83 58.01 159.75 57.79
  Q 160.24 57.67 160.09 57.20
  Q 159.36 54.87 161.40 53.68
  Q 161.83 53.43 161.74 52.93
  Q 161.40 51.19 160.00 50.38
  Q 158.25 49.37 159.48 50.97
  Q 160.65 52.47 158.95 54.25
  Q 158.57 54.64 158.58 55.18
  L 158.59 57.06
  Q 158.59 57.67 158.05 57.98
  Q 157.44 58.34 157.10 57.78
  Q 156.92 57.48 156.86 57.83
  Z
  M 153.34 51.23
  Q 153.22 51.91 152.79 52.46
  Q 152.58 52.75 152.90 52.89
  L 153.30 53.08
  Q 153.56 53.20 153.73 52.96
  Q 154.21 52.27 154.31 51.28
  Q 154.32 51.18 154.22 51.14
  L 153.80 50.97
  Q 153.42 50.82 153.34 51.23
  Z
  M 148.99 53.90
  Q 150.01 53.45 150.15 52.53
  A 0.32 0.32 0.0 0 0 149.65 52.23
  Q 148.98 52.71 148.58 53.45
  Q 148.12 54.29 148.99 53.90
  Z
  M 144.99 53.89
  A 0.28 0.28 0.0 0 0 144.49 53.72
  Q 144.10 54.23 144.26 54.86
  Q 144.48 55.78 145.23 56.11
  Q 146.03 56.46 145.56 55.73
  Q 145.00 54.88 144.99 53.89
  Z
  M 150.56 56.77
  L 149.99 57.08
  Q 149.52 57.33 149.71 57.82
  Q 150.28 59.30 148.96 60.47
  A 0.44 0.43 59.8 0 0 148.84 60.93
  L 148.97 61.33
  Q 149.08 61.67 149.41 61.50
  Q 150.33 61.02 150.67 59.99
  Q 151.33 58.03 152.75 55.81
  Q 153.76 54.25 151.95 54.65
  Q 150.90 54.88 150.98 56.01
  A 0.79 0.79 0.0 0 1 150.56 56.77
  Z
  M 147.86 55.78
  Q 147.29 57.48 146.02 58.18
  Q 145.47 58.49 145.59 59.12
  Q 146.04 61.32 147.88 61.88
  Q 148.84 62.18 148.16 61.44
  Q 146.31 59.41 148.27 57.52
  Q 148.60 57.20 148.65 56.74
  Q 148.70 56.26 148.59 55.81
  Q 148.29 54.49 147.86 55.78
  Z"
/>
<path fill="#838786" d="
  M 153.34 51.23
  Q 153.42 50.82 153.80 50.97
  L 154.22 51.14
  Q 154.32 51.18 154.31 51.28
  Q 154.21 52.27 153.73 52.96
  Q 153.56 53.20 153.30 53.08
  L 152.90 52.89
  Q 152.58 52.75 152.79 52.46
  Q 153.22 51.91 153.34 51.23
  Z"
/>
<path fill="#838786" d="
  M 148.58 53.45
  Q 148.98 52.71 149.65 52.23
  A 0.32 0.32 0.0 0 1 150.15 52.53
  Q 150.01 53.45 148.99 53.90
  Q 148.12 54.29 148.58 53.45
  Z"
/>
<path fill="#ffffff" d="
  M 41.52 57.19
  A 0.48 0.47 -67.8 0 1 41.30 56.66
  Q 41.45 56.06 41.97 55.71
  Q 44.03 54.36 46.17 52.87
  A 1.98 1.97 -42.4 0 1 48.56 52.97
  Q 52.38 56.14 52.83 61.01
  C 53.25 65.62 50.48 66.33 47.45 68.62
  A 0.39 0.39 0.0 0 1 46.83 68.34
  C 46.45 64.04 45.53 59.58 41.52 57.19
  Z"
/>
<path fill="#838786" d="
  M 53.76 54.27
  Q 53.52 53.98 53.14 53.92
  Q 52.65 53.85 52.92 53.44
  Q 53.33 52.81 54.39 53.20
  A 1.14 1.12 7.9 0 1 55.13 54.16
  Q 55.24 55.31 54.59 55.44
  Q 54.23 55.52 54.10 55.17
  Q 54.03 54.98 53.99 54.77
  Q 53.93 54.49 53.76 54.27
  Z"
/>
<path fill="#838786" d="
  M 144.99 53.89
  Q 145.00 54.88 145.56 55.73
  Q 146.03 56.46 145.23 56.11
  Q 144.48 55.78 144.26 54.86
  Q 144.10 54.23 144.49 53.72
  A 0.28 0.28 0.0 0 1 144.99 53.89
  Z"
/>
<path fill="#838786" d="
  M 150.98 56.01
  Q 150.90 54.88 151.95 54.65
  Q 153.76 54.25 152.75 55.81
  Q 151.33 58.03 150.67 59.99
  Q 150.33 61.02 149.41 61.50
  Q 149.08 61.67 148.97 61.33
  L 148.84 60.93
  A 0.44 0.43 59.8 0 1 148.96 60.47
  Q 150.28 59.30 149.71 57.82
  Q 149.52 57.33 149.99 57.08
  L 150.56 56.77
  A 0.79 0.79 0.0 0 0 150.98 56.01
  Z"
/>
<path fill="#838786" d="
  M 147.86 55.78
  Q 148.29 54.49 148.59 55.81
  Q 148.70 56.26 148.65 56.74
  Q 148.60 57.20 148.27 57.52
  Q 146.31 59.41 148.16 61.44
  Q 148.84 62.18 147.88 61.88
  Q 146.04 61.32 145.59 59.12
  Q 145.47 58.49 146.02 58.18
  Q 147.29 57.48 147.86 55.78
  Z"
/>
<ellipse fill="#ffffff" cx="0.00" cy="0.00" transform="translate(42.19,63.89) rotate(68.1)" rx="6.08" ry="2.31"/>
<path fill="#ffffff" d="
  M 109.21 86.98
  C 106.96 88.33 105.73 90.65 103.56 91.50
  Q 101.77 92.21 99.80 92.08
  C 96.46 90.52 92.71 86.38 91.57 84.67
  Q 90.27 82.71 89.10 78.40
  C 88.37 75.72 83.94 73.87 87.33 70.77
  Q 92.85 65.74 94.13 58.82
  Q 94.23 58.29 94.75 58.20
  Q 95.25 58.11 95.38 58.59
  Q 97.20 65.21 102.58 66.86
  Q 109.16 68.87 115.14 70.55
  A 0.81 0.80 -78.1 0 1 115.72 71.44
  C 115.29 74.53 113.16 75.99 112.43 78.91
  C 111.70 81.83 111.26 84.42 109.21 86.98
  Z
  M 92.52 71.19
  L 98.09 70.48
  A 0.11 0.11 0.0 0 0 98.19 70.35
  L 98.18 70.26
  A 2.80 1.48 -7.3 0 0 95.21 69.15
  L 94.97 69.18
  A 2.80 1.48 -7.3 0 0 92.38 71.01
  L 92.40 71.10
  A 0.11 0.11 0.0 0 0 92.52 71.19
  Z
  M 109.58 71.11
  L 109.70 70.34
  A 0.17 0.17 0.0 0 0 109.56 70.14
  L 105.49 69.49
  A 0.53 0.40 9.1 0 0 104.91 69.80
  L 104.86 70.12
  A 0.53 0.40 9.1 0 0 105.32 70.60
  L 109.38 71.25
  A 0.17 0.17 0.0 0 0 109.58 71.11
  Z
  M 98.00 73.85
  L 92.78 73.79
  A 0.17 0.17 0.0 0 0 92.61 73.96
  L 92.61 74.04
  A 2.40 1.39 0.7 0 0 94.99 75.46
  L 95.75 75.46
  A 2.40 1.39 0.7 0 0 98.17 74.10
  L 98.17 74.02
  A 0.17 0.17 0.0 0 0 98.00 73.85
  Z
  M 105.40 73.96
  Q 102.71 73.68 105.04 75.06
  Q 106.79 76.10 108.92 75.19
  Q 109.44 74.96 109.45 74.40
  Q 109.45 74.22 109.31 74.11
  Q 109.02 73.87 108.65 73.92
  Q 107.03 74.13 105.40 73.96
  Z
  M 103.56 81.54
  L 98.81 81.26
  A 0.12 0.12 0.0 0 0 98.68 81.37
  L 98.68 81.45
  A 2.39 1.32 3.4 0 0 100.99 82.91
  L 101.20 82.93
  A 2.39 1.32 3.4 0 0 103.67 81.75
  L 103.67 81.67
  A 0.12 0.12 0.0 0 0 103.56 81.54
  Z
  M 105.19 84.43
  L 105.15 84.15
  A 0.39 0.39 0.0 0 0 104.56 83.87
  Q 101.27 85.82 98.01 84.15
  Q 97.55 83.92 97.30 84.37
  L 97.16 84.61
  A 0.29 0.28 31.4 0 0 97.26 84.99
  Q 100.93 87.39 104.84 85.15
  Q 105.26 84.91 105.19 84.43
  Z"
/>
<path fill="#ffffff" d="
  M 103.59 65.14
  A 0.15 0.15 0.0 0 1 103.57 65.35
  L 103.49 65.42
  A 3.47 1.44 49.0 0 1 100.13 63.75
  L 99.97 63.57
  A 3.47 1.44 49.0 0 1 98.78 60.00
  L 98.86 59.93
  A 0.15 0.15 0.0 0 1 99.07 59.95
  L 103.59 65.14
  Z"
/>
<path fill="#aaaaaa" d="
  M 92.52 71.19
  A 0.11 0.11 0.0 0 1 92.40 71.10
  L 92.38 71.01
  A 2.80 1.48 -7.3 0 1 94.97 69.18
  L 95.21 69.15
  A 2.80 1.48 -7.3 0 1 98.18 70.26
  L 98.19 70.35
  A 0.11 0.11 0.0 0 1 98.09 70.48
  L 92.52 71.19
  Z"
/>
<path fill="#aaaaaa" d="
  M 109.58 71.11
  A 0.17 0.17 0.0 0 1 109.38 71.25
  L 105.32 70.60
  A 0.53 0.40 9.1 0 1 104.86 70.12
  L 104.91 69.80
  A 0.53 0.40 9.1 0 1 105.49 69.49
  L 109.56 70.14
  A 0.17 0.17 0.0 0 1 109.70 70.34
  L 109.58 71.11
  Z"
/>
<path fill="#838786" d="
  M 98.00 73.85
  A 0.17 0.17 0.0 0 1 98.17 74.02
  L 98.17 74.10
  A 2.40 1.39 0.7 0 1 95.75 75.46
  L 94.99 75.46
  A 2.40 1.39 0.7 0 1 92.61 74.04
  L 92.61 73.96
  A 0.17 0.17 0.0 0 1 92.78 73.79
  L 98.00 73.85
  Z"
/>
<path fill="#838786" d="
  M 105.40 73.96
  Q 107.03 74.13 108.65 73.92
  Q 109.02 73.87 109.31 74.11
  Q 109.45 74.22 109.45 74.40
  Q 109.44 74.96 108.92 75.19
  Q 106.79 76.10 105.04 75.06
  Q 102.71 73.68 105.40 73.96
  Z"
/>
<path fill="#aaaaaa" d="
  M 103.56 81.54
  A 0.12 0.12 0.0 0 1 103.67 81.67
  L 103.67 81.75
  A 2.39 1.32 3.4 0 1 101.20 82.93
  L 100.99 82.91
  A 2.39 1.32 3.4 0 1 98.68 81.45
  L 98.68 81.37
  A 0.12 0.12 0.0 0 1 98.81 81.26
  L 103.56 81.54
  Z"
/>
<path fill="#aaaaaa" d="
  M 104.84 85.15
  Q 100.93 87.39 97.26 84.99
  A 0.29 0.28 31.4 0 1 97.16 84.61
  L 97.30 84.37
  Q 97.55 83.92 98.01 84.15
  Q 101.27 85.82 104.56 83.87
  A 0.39 0.39 0.0 0 1 105.15 84.15
  L 105.19 84.43
  Q 105.26 84.91 104.84 85.15
  Z"
/>
<path fill="#aaaaaa" d="
  M 109.21 86.98
  Q 109.31 87.73 109.79 88.20
  L 109.11 88.20
  Q 108.59 88.20 108.30 88.64
  C 106.36 91.66 103.92 93.74 100.03 92.64
  L 99.80 92.08
  Q 101.77 92.21 103.56 91.50
  C 105.73 90.65 106.96 88.33 109.21 86.98
  Z"
/>
<path fill="#ffffff" d="
  M 109.79 88.20
  Q 109.43 89.89 109.44 91.57
  Q 109.46 93.54 108.98 94.86
  Q 105.31 105.04 101.22 113.47
  Q 100.96 114.01 100.19 113.82
  Q 99.39 113.49 99.16 112.72
  L 92.50 95.94
  L 100.03 92.64
  C 103.92 93.74 106.36 91.66 108.30 88.64
  Q 108.59 88.20 109.11 88.20
  L 109.79 88.20
  Z"
/>
<path fill="#aaaaaa" d="
  M 109.79 88.20
  Q 111.77 89.43 113.27 91.50
  Q 113.56 91.89 114.04 92.03
  L 120.36 93.77
  Q 121.90 95.16 124.51 96.10
  Q 126.67 96.88 130.91 99.53
  Q 134.74 101.93 136.10 104.05
  C 138.69 108.07 138.78 112.80 139.50 117.37
  A 1.26 1.25 75.2 0 1 138.71 118.74
  L 125.81 123.62
  Q 125.70 123.66 125.79 123.75
  L 126.13 124.08
  A 0.28 0.27 56.6 0 0 126.40 124.14
  L 138.55 119.77
  Q 140.05 119.23 140.62 120.72
  L 142.33 125.22
  L 140.79 126.77
  Q 140.65 125.97 140.35 126.05
  Q 133.78 127.89 127.20 129.78
  Q 125.75 129.92 124.39 129.30
  Q 124.02 129.13 123.67 129.34
  Q 123.43 129.49 123.25 129.49
  Q 101.30 129.25 79.25 129.06
  Q 79.54 127.05 78.79 127.21
  Q 81.02 124.25 77.98 124.63
  Q 77.97 124.16 77.67 123.42
  Q 78.80 122.73 77.54 121.38
  Q 76.99 120.80 76.67 121.53
  Q 75.98 123.13 74.64 123.66
  Q 73.69 124.04 73.82 123.02
  Q 74.03 121.36 75.98 120.50
  Q 76.53 120.26 76.35 119.68
  C 75.98 118.55 75.96 117.43 75.03 116.54
  Q 73.71 115.27 72.34 114.18
  Q 71.34 113.37 70.41 114.19
  A 0.61 0.61 0.0 0 0 70.59 115.21
  Q 72.97 116.14 74.79 118.33
  Q 74.93 118.51 74.76 118.66
  L 74.56 118.83
  Q 74.29 119.07 74.03 118.81
  Q 70.99 115.75 66.77 114.98
  Q 66.31 114.90 66.32 115.36
  L 66.33 115.83
  Q 66.34 116.12 66.62 116.22
  Q 70.50 117.63 73.31 120.17
  Q 74.55 121.29 72.89 121.08
  Q 71.15 120.86 70.12 119.43
  Q 69.80 118.97 69.26 118.83
  Q 67.37 118.32 65.85 117.25
  Q 65.20 116.79 64.38 116.56
  Q 63.91 116.43 63.69 115.99
  Q 63.46 115.50 63.81 115.04
  Q 64.12 114.64 64.19 114.14
  L 65.15 108.11
  Q 66.28 101.59 72.39 98.53
  Q 75.85 96.79 79.52 95.55
  Q 80.03 95.37 80.06 94.51
  L 80.97 94.98
  Q 81.41 95.21 81.87 95.03
  L 87.41 92.86
  Q 87.89 92.67 88.19 92.25
  Q 89.28 90.65 90.44 89.15
  Q 91.78 87.41 91.36 89.56
  Q 90.58 93.64 92.50 95.94
  L 99.16 112.72
  L 98.23 112.51
  A 0.82 0.53 -12.0 0 1 98.10 112.46
  Q 94.82 110.51 91.61 107.96
  A 0.46 0.45 19.4 0 0 90.87 108.31
  L 90.87 108.70
  A 1.13 1.11 15.8 0 0 91.42 109.66
  L 99.42 114.47
  Q 100.68 115.23 102.03 114.64
  Q 105.58 113.11 108.98 111.20
  Q 110.53 110.34 110.62 108.87
  Q 110.68 107.91 109.97 108.56
  Q 106.80 111.45 102.66 113.16
  Q 102.20 113.35 101.84 113.69
  Q 101.01 114.47 100.19 113.82
  Q 100.96 114.01 101.22 113.47
  Q 105.31 105.04 108.98 94.86
  Q 109.46 93.54 109.44 91.57
  Q 109.43 89.89 109.79 88.20
  Z
  M 110.47 105.67
  Q 110.59 106.01 110.84 106.28
  Q 111.15 106.62 111.62 106.65
  C 114.03 106.83 117.90 109.88 119.70 111.23
  A 0.79 0.79 0.0 0 0 120.97 110.57
  C 120.87 107.13 119.15 102.99 117.55 99.96
  C 116.32 97.65 116.10 95.18 114.38 93.11
  Q 114.31 93.02 114.20 93.08
  L 113.95 93.22
  Q 113.54 93.46 113.73 93.89
  Q 117.22 101.56 119.96 109.18
  Q 120.36 110.28 119.36 109.68
  Q 115.38 107.29 111.09 103.85
  A 0.72 0.72 0.0 0 0 110.27 103.80
  Q 109.29 104.38 110.15 105.18
  A 1.30 1.23 13.3 0 1 110.47 105.67
  Z
  M 85.24 109.35
  L 91.38 105.84
  Q 92.11 105.43 92.17 104.60
  L 92.19 104.30
  Q 92.26 103.37 91.41 103.77
  Q 87.79 105.50 84.98 108.24
  Q 84.47 108.48 84.01 108.39
  A 0.51 0.51 0.0 0 1 83.67 107.62
  Q 84.56 106.23 85.08 104.71
  Q 86.81 99.56 87.97 94.21
  A 0.39 0.39 0.0 0 0 87.69 93.75
  L 87.38 93.66
  A 0.15 0.14 16.5 0 0 87.20 93.75
  L 82.60 108.24
  A 0.82 0.81 -70.5 0 0 83.07 109.24
  Q 84.51 109.83 85.24 109.35
  Z
  M 78.70 114.40
  L 76.62 116.21
  A 0.80 0.80 0.0 0 0 76.66 117.44
  L 77.03 117.72
  A 0.97 0.96 -50.4 0 0 78.34 117.59
  Q 79.34 116.45 79.66 114.97
  A 0.59 0.59 0.0 0 0 78.70 114.40
  Z
  M 104.06 120.05
  A 1.09 1.09 0.0 0 0 102.97 118.96
  A 1.09 1.09 0.0 0 0 101.88 120.05
  A 1.09 1.09 0.0 0 0 102.97 121.14
  A 1.09 1.09 0.0 0 0 104.06 120.05
  Z"
/>
<path fill="#838786" d="
  M 46.65 91.54
  L 42.30 96.23
  Q 41.02 96.99 40.77 99.63
  Q 40.72 100.15 41.24 100.14
  L 41.52 100.13
  A 0.57 0.56 -88.9 0 0 42.07 99.59
  Q 42.13 98.51 43.04 97.21
  Q 44.27 95.74 44.02 99.26
  Q 42.57 102.12 42.28 104.86
  Q 41.32 110.29 40.44 114.89
  Q 40.30 115.63 39.73 116.05
  Q 39.34 116.34 39.49 116.81
  Q 39.57 117.08 39.74 117.06
  Q 40.41 117.00 40.19 117.64
  Q 39.80 118.75 39.41 119.85
  Q 38.92 121.22 40.21 121.89
  C 42.43 123.06 43.47 120.30 43.74 118.69
  Q 43.81 118.26 43.50 117.95
  Q 42.35 116.84 40.75 117.15
  A 0.34 0.34 0.0 0 1 40.36 116.73
  L 40.45 116.36
  A 0.87 0.86 -84.4 0 1 41.23 115.71
  C 45.48 115.38 45.80 119.45 43.66 122.07
  C 41.37 124.87 37.76 122.76 38.17 119.52
  Q 38.93 113.38 40.55 106.31
  Q 40.65 105.88 40.23 105.77
  L 39.51 105.58
  Q 39.20 105.50 39.10 105.80
  Q 37.56 110.34 35.61 115.60
  C 34.72 118.01 32.75 122.50 29.53 120.97
  C 25.79 119.21 26.95 114.93 29.75 113.06
  Q 30.23 112.74 30.79 112.85
  Q 32.49 113.21 33.70 114.27
  A 0.60 0.60 0.0 0 1 33.83 115.01
  L 33.66 115.32
  Q 33.43 115.73 33.08 115.43
  Q 32.13 114.60 31.02 114.26
  Q 30.46 114.09 30.03 114.49
  C 28.57 115.89 27.24 118.71 29.93 119.77
  A 2.12 2.12 0.0 0 0 32.70 118.53
  Q 33.30 116.91 34.54 115.70
  Q 35.15 115.11 34.73 114.39
  Q 34.49 113.97 34.66 113.51
  L 38.48 103.09
  Q 39.00 101.26 39.66 99.18
  Q 40.30 97.17 41.40 95.69
  Q 44.16 91.98 46.89 89.12
  Q 48.53 87.41 48.22 89.75
  Q 48.11 90.60 46.65 91.54
  Z
  M 40.5340 104.9455
  A 1.68 0.96 99.8 0 0 41.7660 103.4534
  A 1.68 0.96 99.8 0 0 41.1060 101.6345
  A 1.68 0.96 99.8 0 0 39.8740 103.1266
  A 1.68 0.96 99.8 0 0 40.5340 104.9455
  Z"
/>
<path fill="#838786" d="
  M 149.92 92.68
  L 148.96 91.66
  A 1.63 1.62 -50.0 0 1 148.79 89.66
  L 149.21 89.01
  A 1.06 1.06 0.0 0 1 150.86 88.86
  L 152.30 90.40
  Q 152.65 90.78 153.17 90.80
  Q 155.49 90.92 157.25 92.63
  Q 164.72 99.88 171.36 106.50
  C 172.52 107.66 173.99 108.41 175.36 109.32
  A 0.61 0.60 -50.5 0 1 175.45 110.25
  L 169.37 116.25
  A 0.72 0.71 -39.5 0 1 168.28 116.15
  C 167.32 114.73 166.48 113.29 165.30 112.01
  Q 158.62 104.81 152.13 97.74
  Q 150.47 95.93 150.38 93.78
  Q 150.36 93.14 149.92 92.68
  Z
  M 149.58 90.91
  Q 149.93 91.80 150.68 92.46
  Q 151.06 92.81 151.40 92.41
  L 152.05 91.63
  A 0.70 0.70 0.0 0 0 151.90 90.59
  Q 151.13 90.11 150.35 89.98
  A 0.70 0.69 -5.6 0 0 149.58 90.91
  Z
  M 167.40 108.02
  L 165.86 109.80
  Q 165.29 110.44 165.80 111.14
  L 168.52 114.89
  A 0.75 0.75 0.0 0 0 169.65 114.98
  L 173.92 110.70
  A 1.02 1.01 34.8 0 0 173.62 109.06
  Q 172.10 108.38 171.00 107.31
  Q 163.83 100.39 156.07 92.81
  C 153.04 89.85 148.97 95.09 153.16 97.09
  A 0.62 0.62 0.0 0 0 153.93 96.88
  L 154.62 95.88
  A 1.41 1.41 0.0 0 1 156.77 95.67
  L 167.33 106.04
  A 1.45 1.44 -47.2 0 1 167.40 108.02
  Z
  M 156.22 96.33
  A 1.02 1.02 0.0 0 0 154.57 96.66
  L 154.16 97.58
  A 1.02 1.02 0.0 0 0 154.35 98.68
  L 163.95 109.18
  A 1.02 1.02 0.0 0 0 165.54 109.07
  L 166.54 107.62
  A 1.02 1.02 0.0 0 0 166.42 106.31
  L 156.22 96.33
  Z"
/>
<path fill="#ffffff" d="
  M 149.58 90.91
  A 0.70 0.69 -5.6 0 1 150.35 89.98
  Q 151.13 90.11 151.90 90.59
  A 0.70 0.70 0.0 0 1 152.05 91.63
  L 151.40 92.41
  Q 151.06 92.81 150.68 92.46
  Q 149.93 91.80 149.58 90.91
  Z"
/>
<path fill="#aaaaaa" d="
  M 46.65 91.54
  Q 46.40 92.78 48.44 92.42
  A 1.23 1.23 0.0 0 1 49.76 94.18
  Q 47.93 97.87 44.02 99.26
  Q 44.27 95.74 43.04 97.21
  L 42.98 96.64
  A 0.46 0.45 -87.4 0 0 42.63 96.25
  Q 42.46 96.21 42.30 96.23
  L 46.65 91.54
  Z
  M 44.49 98.32
  Q 47.41 96.28 48.58 94.06
  Q 48.82 93.60 48.32 93.64
  Q 48.17 93.65 48.01 93.59
  A 0.39 0.39 0.0 0 0 47.55 93.70
  Q 46.38 95.11 44.74 95.84
  A 0.71 0.69 78.9 0 0 44.33 96.47
  L 44.30 98.22
  Q 44.30 98.45 44.49 98.32
  Z"
/>
<path fill="#ffffff" d="
  M 167.40 108.02
  A 1.45 1.44 -47.2 0 0 167.33 106.04
  L 156.77 95.67
  A 1.41 1.41 0.0 0 0 154.62 95.88
  L 153.93 96.88
  A 0.62 0.62 0.0 0 1 153.16 97.09
  C 148.97 95.09 153.04 89.85 156.07 92.81
  Q 163.83 100.39 171.00 107.31
  Q 172.10 108.38 173.62 109.06
  A 1.02 1.01 34.8 0 1 173.92 110.70
  L 169.65 114.98
  A 0.75 0.75 0.0 0 1 168.52 114.89
  L 165.80 111.14
  Q 165.29 110.44 165.86 109.80
  L 167.40 108.02
  Z"
/>
<path fill="#838786" d="
  M 120.92 92.96
  Q 120.88 94.00 121.28 93.71
  Q 125.80 95.15 130.20 97.44
  Q 138.31 101.68 139.28 110.92
  Q 140.02 118.03 142.82 124.34
  Q 142.92 124.57 142.78 124.77
  Q 142.65 124.98 142.33 125.22
  L 140.62 120.72
  Q 140.05 119.23 138.55 119.77
  L 126.40 124.14
  A 0.28 0.27 56.6 0 1 126.13 124.08
  L 125.79 123.75
  Q 125.70 123.66 125.81 123.62
  L 138.71 118.74
  A 1.26 1.25 75.2 0 0 139.50 117.37
  C 138.78 112.80 138.69 108.07 136.10 104.05
  Q 134.74 101.93 130.91 99.53
  Q 126.67 96.88 124.51 96.10
  Q 121.90 95.16 120.36 93.77
  L 120.92 92.96
  Z"
/>
<path fill="#838786" d="
  M 110.15 105.18
  Q 109.29 104.38 110.27 103.80
  A 0.72 0.72 0.0 0 1 111.09 103.85
  Q 115.38 107.29 119.36 109.68
  Q 120.36 110.28 119.96 109.18
  Q 117.22 101.56 113.73 93.89
  Q 113.54 93.46 113.95 93.22
  L 114.20 93.08
  Q 114.31 93.02 114.38 93.11
  C 116.10 95.18 116.32 97.65 117.55 99.96
  C 119.15 102.99 120.87 107.13 120.97 110.57
  A 0.79 0.79 0.0 0 1 119.70 111.23
  C 117.90 109.88 114.03 106.83 111.62 106.65
  Q 111.15 106.62 110.84 106.28
  Q 110.59 106.01 110.47 105.67
  A 1.30 1.23 13.3 0 0 110.15 105.18
  Z"
/>
<path fill="#ffffff" d="
  M 44.49 98.32
  Q 44.30 98.45 44.30 98.22
  L 44.33 96.47
  A 0.71 0.69 78.9 0 1 44.74 95.84
  Q 46.38 95.11 47.55 93.70
  A 0.39 0.39 0.0 0 1 48.01 93.59
  Q 48.17 93.65 48.32 93.64
  Q 48.82 93.60 48.58 94.06
  Q 47.41 96.28 44.49 98.32
  Z"
/>
<path fill="#838786" d="
  M 84.98 108.24
  Q 84.69 108.95 85.24 109.35
  Q 84.51 109.83 83.07 109.24
  A 0.82 0.81 -70.5 0 1 82.60 108.24
  L 87.20 93.75
  A 0.15 0.14 16.5 0 1 87.38 93.66
  L 87.69 93.75
  A 0.39 0.39 0.0 0 1 87.97 94.21
  Q 86.81 99.56 85.08 104.71
  Q 84.56 106.23 83.67 107.62
  A 0.51 0.51 0.0 0 0 84.01 108.39
  Q 84.47 108.48 84.98 108.24
  Z"
/>
<path fill="#ffffff" d="
  M 156.22 96.33
  L 166.42 106.31
  A 1.02 1.02 0.0 0 1 166.54 107.62
  L 165.54 109.07
  A 1.02 1.02 0.0 0 1 163.95 109.18
  L 154.35 98.68
  A 1.02 1.02 0.0 0 1 154.16 97.58
  L 154.57 96.66
  A 1.02 1.02 0.0 0 1 156.22 96.33
  Z"
/>
<path fill="#ffffff" d="
  M 42.30 96.23
  Q 42.46 96.21 42.63 96.25
  A 0.46 0.45 -87.4 0 1 42.98 96.64
  L 43.04 97.21
  Q 42.13 98.51 42.07 99.59
  A 0.57 0.56 -88.9 0 1 41.52 100.13
  L 41.24 100.14
  Q 40.72 100.15 40.77 99.63
  Q 41.02 96.99 42.30 96.23
  Z"
/>
<ellipse fill="#ffffff" cx="0.00" cy="0.00" transform="translate(40.82,103.29) rotate(99.8)" rx="1.68" ry="0.96"/>
<path fill="#263138" d="
  M 85.24 109.35
  Q 84.69 108.95 84.98 108.24
  Q 87.79 105.50 91.41 103.77
  Q 92.26 103.37 92.19 104.30
  L 92.17 104.60
  Q 92.11 105.43 91.38 105.84
  L 85.24 109.35
  Z"
/>
<path fill="#263138" d="
  M 99.16 112.72
  Q 99.39 113.49 100.19 113.82
  Q 101.01 114.47 101.84 113.69
  Q 102.20 113.35 102.66 113.16
  Q 106.80 111.45 109.97 108.56
  Q 110.68 107.91 110.62 108.87
  Q 110.53 110.34 108.98 111.20
  Q 105.58 113.11 102.03 114.64
  Q 100.68 115.23 99.42 114.47
  L 91.42 109.66
  A 1.13 1.11 15.8 0 1 90.87 108.70
  L 90.87 108.31
  A 0.46 0.45 19.4 0 1 91.61 107.96
  Q 94.82 110.51 98.10 112.46
  A 0.82 0.53 -12.0 0 0 98.23 112.51
  L 99.16 112.72
  Z"
/>
<path fill="#ffffff" d="
  M 78.70 114.40
  A 0.59 0.59 0.0 0 1 79.66 114.97
  Q 79.34 116.45 78.34 117.59
  A 0.97 0.96 -50.4 0 1 77.03 117.72
  L 76.66 117.44
  A 0.80 0.80 0.0 0 1 76.62 116.21
  L 78.70 114.40
  Z"
/>
<path fill="#aaaaaa" d="
  M 71.96 143.21
  Q 71.59 139.82 70.43 136.39
  Q 70.17 135.61 70.18 134.78
  Q 70.18 134.02 70.41 134.74
  C 71.56 138.29 73.54 143.11 72.30 146.75
  C 71.47 149.16 68.81 156.13 65.33 154.57
  Q 57.66 151.13 59.16 142.65
  Q 60.06 137.56 61.44 132.75
  Q 61.95 130.98 61.47 129.30
  Q 60.45 125.77 59.31 122.26
  Q 58.77 120.61 59.80 119.48
  C 60.64 118.56 60.98 117.60 61.38 116.46
  A 0.71 0.71 0.0 0 1 62.25 116.02
  L 62.61 116.12
  A 0.72 0.72 0.0 0 1 63.11 116.98
  Q 62.99 117.48 63.07 117.99
  Q 63.15 118.56 63.68 118.32
  Q 64.51 117.95 65.36 118.12
  Q 66.07 118.26 65.44 118.61
  Q 64.75 119.01 63.98 118.77
  Q 63.52 118.63 63.06 118.79
  C 60.30 119.71 59.74 121.72 60.85 124.13
  C 62.35 127.39 63.49 130.77 62.37 134.40
  Q 61.03 138.72 60.17 143.22
  Q 58.71 150.87 66.00 154.03
  A 1.25 1.24 -56.9 0 0 67.41 153.73
  Q 69.36 151.61 70.64 149.02
  Q 72.24 145.79 71.96 143.21
  Z"
/>
<circle fill="#838786" cx="102.97" cy="120.05" r="1.09"/>
<path fill="#aaaaaa" d="
  M 70.31 122.46
  Q 70.34 122.63 70.25 122.72
  Q 70.14 122.86 70.06 122.70
  Q 69.39 121.46 68.01 121.24
  Q 67.30 121.12 67.45 121.83
  L 68.14 125.12
  Q 68.20 125.39 67.92 125.38
  Q 67.72 125.38 67.60 125.21
  Q 66.33 123.43 66.09 121.30
  Q 66.03 120.80 65.54 120.91
  Q 64.49 121.16 63.52 122.11
  A 0.37 0.36 -52.9 0 1 63.10 122.17
  L 62.77 121.99
  Q 62.27 121.72 62.65 121.29
  Q 63.85 119.95 65.61 120.26
  Q 66.12 120.35 66.50 119.99
  L 66.96 119.56
  A 0.65 0.64 -46.7 0 1 67.82 119.53
  Q 69.08 120.58 70.37 121.57
  Q 70.88 121.95 70.37 122.31
  Q 70.29 122.37 70.31 122.46
  Z"
/>
<rect fill="#263138" x="-0.80" y="-1.73" transform="translate(70.70,124.06) rotate(29.6)" width="1.60" height="3.46" rx="0.74"/>
<path fill="#263138" d="
  M 77.67 123.42
  Q 77.97 124.16 77.98 124.63
  Q 77.44 126.81 76.11 127.35
  A 0.61 0.60 87.8 0 1 75.31 126.60
  Q 76.14 123.95 77.67 123.42
  Z"
/>
<rect fill="#263138" x="-0.76" y="-2.04" transform="translate(72.43,127.21) rotate(26.7)" width="1.52" height="4.08" rx="0.65"/>
<path fill="#263138" d="
  M 140.79 126.77
  Q 140.65 127.63 140.86 128.18
  Q 140.12 129.79 140.28 128.82
  L 128.21 132.82
  Q 127.73 132.98 127.59 132.50
  L 126.90 130.23
  Q 126.97 129.99 127.20 129.78
  Q 133.78 127.89 140.35 126.05
  Q 140.65 125.97 140.79 126.77
  Z"
/>
<path fill="#aaaaaa" d="
  M 70.38 129.63
  Q 70.91 130.68 70.49 131.80
  Q 70.22 132.49 69.88 131.83
  Q 69.48 131.04 69.23 130.20
  A 1.03 1.03 0.0 0 0 67.51 129.77
  Q 66.83 130.45 65.91 130.56
  Q 65.51 130.61 65.45 130.22
  L 65.39 129.83
  Q 65.31 129.34 65.80 129.34
  L 67.29 129.35
  A 0.82 0.81 7.4 0 0 68.08 128.75
  Q 68.35 127.74 68.24 126.66
  Q 68.21 126.27 68.58 126.19
  L 68.85 126.13
  Q 68.91 126.11 68.93 126.17
  Q 69.55 128.01 70.38 129.63
  Z"
/>
<path fill="#263138" d="
  M 78.79 127.21
  Q 79.54 127.05 79.25 129.06
  Q 77.85 129.96 77.42 129.01
  Q 77.84 127.59 78.79 127.21
  Z"
/>
<path fill="#aaaaaa" d="
  M 140.86 128.18
  Q 141.59 129.88 141.62 130.38
  Q 142.09 136.48 142.62 142.52
  Q 142.71 143.12 142.14 143.05
  L 140.28 128.82
  Q 140.12 129.79 140.86 128.18
  Z"
/>
<path fill="#263138" d="
  M 75.30 128.63
  Q 75.85 130.69 74.01 132.20
  Q 73.41 132.55 73.01 132.25
  Q 72.59 131.93 72.71 131.42
  Q 73.28 129.13 75.30 128.63
  Z"
/>
<path fill="#428dff" d="
  M 75.30 128.63
  Q 76.10 130.02 77.42 129.01
  Q 77.85 129.96 79.25 129.06
  Q 101.30 129.25 123.25 129.49
  Q 123.43 129.49 123.67 129.34
  Q 124.02 129.13 124.39 129.30
  Q 125.75 129.92 127.20 129.78
  Q 126.97 129.99 126.90 130.23
  Q 126.02 130.20 125.75 130.32
  Q 125.00 130.65 125.27 132.01
  Q 124.38 132.22 124.40 133.15
  A 0.63 0.63 0.0 0 1 123.76 133.79
  L 74.79 133.47
  Q 74.74 131.94 74.01 132.20
  Q 75.85 130.69 75.30 128.63
  Z"
/>
<path fill="#263138" d="
  M 125.27 132.01
  L 125.29 137.42
  Q 125.29 137.89 125.17 138.34
  Q 124.91 139.31 125.23 140.39
  Q 125.38 140.92 125.21 141.45
  Q 124.73 142.93 125.34 145.29
  L 75.64 144.99
  Q 75.63 145.22 75.32 145.13
  Q 75.01 145.04 74.94 144.73
  L 74.78 143.98
  L 74.69 136.99
  Q 74.68 136.49 74.50 136.01
  Q 74.01 134.74 74.79 133.47
  L 123.76 133.79
  A 0.63 0.63 0.0 0 0 124.40 133.15
  Q 124.38 132.22 125.27 132.01
  Z"
/>
<path fill="#838786" d="
  M 134.14 140.24
  Q 134.15 141.05 133.45 140.74
  Q 131.05 137.74 127.85 135.39
  Q 126.94 134.72 127.24 133.89
  A 0.31 0.31 0.0 0 1 127.82 133.88
  C 128.22 134.85 128.77 135.78 129.67 136.37
  Q 132.18 138.04 134.14 140.24
  Z"
/>
<path fill="#838786" d="
  M 129.42 142.30
  Q 128.64 140.44 127.21 138.98
  Q 126.38 138.14 127.41 138.71
  Q 129.87 140.10 129.92 142.20
  A 0.26 0.26 0.0 0 1 129.42 142.30
  Z"
/>
<path fill="#aaaaaa" d="
  M 134.14 140.24
  Q 134.93 141.51 133.80 142.29
  Q 133.79 141.64 133.54 141.65
  Q 133.39 141.25 133.45 140.74
  Q 134.15 141.05 134.14 140.24
  Z"
/>
<path fill="#838786" d="
  M 136.19 140.14
  Q 139.42 140.53 140.87 143.48
  Q 140.92 143.58 140.82 143.64
  L 140.55 143.79
  Q 140.47 143.84 140.42 143.76
  Q 138.71 141.27 136.11 140.68
  Q 135.92 140.64 135.98 140.46
  L 136.07 140.21
  Q 136.10 140.13 136.19 140.14
  Z"
/>
<path fill="#838786" d="
  M 133.54 141.65
  Q 133.79 141.64 133.80 142.29
  Q 132.26 144.64 129.04 145.17
  Q 128.55 145.25 128.59 144.76
  Q 128.60 144.62 128.60 144.48
  Q 128.56 143.60 129.42 143.80
  Q 131.93 144.41 133.54 141.65
  Z"
/>
<path fill="#838786" d="
  M 137.02 145.34
  Q 138.94 148.38 136.76 152.57
  Q 136.48 153.09 136.14 152.61
  Q 135.80 152.15 135.23 152.11
  Q 131.76 151.91 129.21 153.54
  Q 128.20 154.19 128.46 153.01
  Q 128.59 152.40 129.22 152.24
  Q 132.33 151.45 135.05 151.67
  A 0.95 0.93 23.6 0 0 135.82 151.38
  Q 137.61 149.48 137.37 147.19
  A 1.27 1.27 0.0 0 0 135.39 146.27
  Q 131.73 148.75 127.22 150.09
  Q 127.00 150.16 126.96 149.93
  L 126.90 149.51
  Q 126.86 149.31 127.06 149.26
  Q 131.66 148.00 135.75 145.55
  Q 136.22 145.28 136.17 144.73
  Q 136.04 143.47 135.31 142.20
  Q 134.95 141.57 135.60 141.90
  Q 137.00 142.61 136.81 144.46
  A 1.46 1.41 -59.4 0 0 137.02 145.34
  Z"
/>
<path fill="#838786" d="
  M 142.62 142.52
  Q 143.56 148.07 142.55 150.77
  C 141.07 154.72 138.10 154.68 135.23 156.86
  C 134.27 157.58 133.14 157.38 132.41 156.47
  Q 131.93 155.88 132.59 156.26
  L 133.59 156.83
  Q 134.12 157.14 134.57 156.72
  Q 135.40 155.97 136.08 155.01
  Q 136.26 154.75 136.57 154.64
  Q 136.75 154.57 136.90 154.69
  Q 137.21 154.92 137.57 154.80
  C 142.63 153.04 142.85 147.45 142.14 143.05
  Q 142.71 143.12 142.62 142.52
  Z"
/>
<path fill="#838786" d="
  M 74.78 143.98
  L 74.94 144.73
  Q 75.01 145.04 75.32 145.13
  Q 75.63 145.22 75.64 144.99
  Q 75.28 146.89 75.65 151.50
  Q 75.75 152.79 75.30 156.01
  Q 74.96 158.43 75.00 160.50
  Q 75.17 168.12 75.35 175.70
  L 28.74 175.51
  A 0.28 0.27 81.3 0 1 28.48 175.31
  L 28.39 175.00
  Q 28.35 174.88 28.48 174.88
  Q 35.23 174.90 42.06 175.06
  Q 43.79 175.11 45.16 174.56
  Q 45.52 174.42 45.88 174.56
  Q 48.20 175.47 50.49 175.05
  A 0.91 0.89 3.9 0 0 51.17 174.47
  Q 51.59 173.27 51.42 172.15
  A 0.06 0.06 0.0 0 1 51.47 172.08
  L 51.77 172.06
  A 0.30 0.29 89.2 0 1 52.08 172.37
  L 51.99 174.01
  A 1.01 1.01 0.0 0 0 53.01 175.08
  L 56.73 175.06
  Q 58.28 175.05 58.01 173.52
  L 57.94 173.10
  Q 57.71 171.81 56.41 171.89
  Q 55.07 171.98 53.86 171.42
  A 4.72 3.68 38.0 0 0 49.86 171.42
  Q 49.25 171.79 48.53 171.90
  Q 48.01 171.98 47.63 171.67
  Q 47.21 171.32 47.72 171.13
  Q 49.56 170.47 49.16 168.24
  Q 49.02 167.44 48.21 167.36
  Q 47.77 167.31 47.37 167.48
  Q 46.89 167.67 47.01 168.17
  Q 47.61 170.83 45.61 173.16
  Q 44.90 173.99 45.16 172.92
  Q 45.96 169.70 45.47 166.59
  Q 45.11 164.30 45.48 161.85
  Q 45.90 159.05 45.31 156.46
  A 1.19 1.18 83.8 0 1 46.47 155.01
  L 57.13 155.09
  A 1.62 1.62 0.0 0 1 58.70 157.05
  C 58.37 158.62 58.14 160.03 58.48 161.64
  Q 58.92 163.71 58.35 166.83
  Q 57.81 169.76 58.74 174.42
  Q 58.90 175.22 59.72 175.22
  L 63.91 175.21
  Q 64.80 175.21 65.19 174.41
  L 72.20 160.25
  Q 72.31 160.44 72.57 160.36
  Q 73.32 160.13 72.92 160.80
  Q 69.26 167.03 66.41 174.19
  A 0.54 0.53 12.6 0 0 66.88 174.92
  L 73.52 175.40
  A 0.87 0.86 -87.2 0 0 74.45 174.55
  Q 74.59 167.16 74.26 159.99
  Q 74.23 159.46 74.01 158.98
  Q 73.81 158.54 73.91 158.07
  L 74.44 155.69
  L 74.78 143.98
  Z
  M 51.73 156.92
  Q 51.60 156.82 51.59 156.67
  Q 51.58 155.96 50.88 155.83
  Q 48.68 155.40 46.78 155.57
  Q 46.09 155.63 46.17 156.32
  L 46.23 156.77
  Q 46.31 157.47 47.02 157.47
  L 49.06 157.47
  Q 49.65 157.47 50.09 157.86
  Q 50.90 158.57 51.54 157.68
  Q 51.76 157.36 52.08 157.60
  Q 52.87 158.22 53.68 157.57
  A 1.57 1.56 -50.4 0 1 55.38 157.40
  Q 56.32 157.89 57.29 157.51
  A 0.86 0.85 -84.6 0 0 57.66 157.20
  Q 58.09 156.53 57.54 156.07
  Q 56.80 155.46 55.85 155.55
  L 53.05 155.81
  Q 52.57 155.86 52.30 156.26
  Q 52.16 156.47 52.12 156.75
  Q 52.06 157.15 51.73 156.92
  Z
  M 48.1569 161.8600
  A 1.78 1.06 90.1 0 0 49.2200 160.0819
  A 1.78 1.06 90.1 0 0 48.1631 158.3000
  A 1.78 1.06 90.1 0 0 47.1000 160.0781
  A 1.78 1.06 90.1 0 0 48.1569 161.8600
  Z
  M 55.3579 161.8092
  A 1.66 1.02 91.8 0 0 56.4295 160.1820
  A 1.66 1.02 91.8 0 0 55.4621 158.4908
  A 1.66 1.02 91.8 0 0 54.3905 160.1180
  A 1.66 1.02 91.8 0 0 55.3579 161.8092
  Z
  M 51.41 161.14
  Q 52.73 160.84 52.94 159.52
  A 0.48 0.47 4.0 0 0 52.46 158.97
  L 50.98 159.00
  Q 50.55 159.00 50.47 159.43
  Q 50.35 160.00 50.53 160.54
  Q 50.77 161.26 50.33 161.88
  Q 49.24 163.43 47.40 162.57
  Q 46.35 162.08 46.08 163.21
  Q 45.77 164.49 46.09 165.86
  Q 46.30 166.79 47.23 166.58
  Q 48.96 166.20 50.65 167.10
  A 2.46 2.45 41.0 0 0 53.27 166.92
  Q 54.84 165.75 56.58 166.69
  Q 57.15 167.00 57.43 166.41
  Q 58.19 164.78 57.73 162.95
  Q 57.56 162.26 56.93 162.58
  Q 54.99 163.54 53.05 161.98
  Q 52.58 161.59 52.02 161.84
  Q 51.69 161.98 51.35 161.84
  Q 50.28 161.40 51.41 161.14
  Z
  M 56.76 170.26
  L 56.04 167.61
  A 0.28 0.28 0.0 0 0 55.70 167.42
  L 55.45 167.49
  A 1.78 1.51 -15.2 0 0 54.12 169.41
  L 54.20 169.68
  A 1.78 1.51 -15.2 0 0 56.31 170.67
  L 56.56 170.60
  A 0.28 0.28 0.0 0 0 56.76 170.26
  Z
  M 52.9916 168.7742
  A 0.84 0.84 0.0 0 0 52.2232 167.8681
  L 51.1469 167.7797
  A 0.84 0.84 0.0 0 0 50.2409 168.5480
  L 50.1884 169.1858
  A 0.84 0.84 0.0 0 0 50.9568 170.0919
  L 52.0331 170.1803
  A 0.84 0.84 0.0 0 0 52.9391 169.4120
  L 52.9916 168.7742
  Z"
/>
<path fill="#428dff" d="
  M 125.34 145.29
  Q 125.85 146.92 125.36 149.30
  L 125.31 147.23
  Q 125.28 146.32 124.88 147.13
  Q 124.63 147.62 124.64 148.25
  Q 124.70 152.78 124.41 157.39
  C 124.25 159.81 125.08 162.23 125.06 164.75
  Q 125.03 170.16 124.88 174.75
  Q 124.86 175.58 123.53 176.00
  L 75.35 175.70
  Q 75.17 168.12 75.00 160.50
  Q 74.96 158.43 75.30 156.01
  Q 75.75 152.79 75.65 151.50
  Q 75.28 146.89 75.64 144.99
  L 125.34 145.29
  Z
  M 96.55 164.55
  Q 96.33 166.05 96.85 167.27
  Q 97.12 167.92 97.83 167.96
  L 100.94 168.15
  A 1.86 1.86 0.0 0 0 102.91 166.20
  Q 102.78 163.37 105.50 163.73
  Q 107.28 163.96 107.53 162.29
  C 107.73 160.94 107.94 159.42 107.37 158.16
  A 0.93 0.92 82.8 0 0 106.71 157.64
  L 104.06 157.11
  A 1.20 1.20 0.0 0 1 103.09 155.85
  C 103.34 152.40 99.63 152.44 97.45 153.20
  A 0.93 0.91 82.4 0 0 96.84 154.01
  Q 96.68 157.24 93.64 157.26
  Q 92.12 157.27 92.11 158.79
  L 92.09 162.07
  A 1.39 1.39 0.0 0 0 93.32 163.45
  L 95.94 163.75
  Q 96.66 163.83 96.55 164.55
  Z"
/>
<path fill="#aaaaaa" d="
  M 125.36 149.30
  C 125.00 153.90 124.57 157.47 126.22 160.76
  Q 129.57 167.44 133.19 174.83
  A 1.32 1.32 0.0 0 0 134.16 175.55
  Q 135.02 175.70 135.52 175.24
  Q 135.88 174.92 135.89 174.44
  L 136.07 164.66
  A 0.76 0.76 0.0 0 1 136.84 163.91
  L 148.28 164.03
  A 1.45 1.45 0.0 0 1 149.72 165.53
  L 149.45 174.28
  A 0.27 0.27 0.0 0 1 149.20 174.54
  L 148.92 174.57
  Q 148.86 174.57 148.85 174.51
  C 148.30 172.70 149.47 171.31 148.23 169.71
  Q 147.88 169.26 148.23 168.81
  Q 149.61 167.00 148.33 165.25
  Q 148.04 164.86 147.55 164.85
  L 138.17 164.78
  Q 136.61 164.77 136.74 166.33
  L 136.83 167.50
  A 1.67 1.65 87.2 0 0 138.50 169.03
  L 145.81 168.97
  Q 147.02 168.96 146.58 170.09
  Q 146.46 170.39 146.60 170.72
  Q 147.05 171.75 146.80 172.75
  Q 146.27 174.85 146.23 172.68
  Q 146.19 170.23 143.93 170.36
  Q 141.22 170.53 138.18 170.10
  Q 137.05 169.93 136.97 171.07
  L 136.80 173.51
  Q 136.71 174.84 138.04 174.81
  L 145.96 174.63
  Q 146.46 174.62 146.76 175.02
  Q 147.45 175.91 148.32 175.16
  Q 148.75 174.79 149.26 175.05
  Q 151.44 176.15 153.78 175.55
  Q 154.37 175.40 154.42 174.79
  Q 154.99 168.24 154.46 161.66
  Q 154.28 159.51 155.80 158.22
  Q 156.13 157.93 156.23 157.51
  L 158.50 147.72
  A 0.68 0.68 0.0 0 1 159.34 147.22
  L 159.84 147.35
  Q 160.72 147.59 160.59 148.49
  C 160.19 151.44 161.68 154.72 162.39 157.64
  A 1.75 1.70 14.3 0 0 162.91 158.49
  Q 164.52 159.90 164.11 162.34
  Q 163.18 167.88 164.00 172.85
  Q 164.12 173.60 163.78 174.27
  Q 163.50 174.84 163.91 175.24
  Q 164.36 175.67 164.96 175.66
  Q 169.74 175.57 174.54 175.74
  Q 174.75 175.75 174.75 175.97
  L 174.74 176.26
  Q 174.74 176.54 174.46 176.54
  L 123.53 176.00
  Q 124.86 175.58 124.88 174.75
  Q 125.03 170.16 125.06 164.75
  C 125.08 162.23 124.25 159.81 124.41 157.39
  Q 124.70 152.78 124.64 148.25
  Q 124.63 147.62 124.88 147.13
  Q 125.28 146.32 125.31 147.23
  L 125.36 149.30
  Z
  M 158.70 154.29
  L 159.82 154.33
  A 0.23 0.23 0.0 0 0 160.06 154.11
  L 160.07 153.94
  A 4.54 0.69 -87.7 0 0 159.56 149.38
  L 159.36 149.37
  A 4.54 0.69 -87.7 0 0 158.49 153.88
  L 158.48 154.05
  A 0.23 0.23 0.0 0 0 158.70 154.29
  Z
  M 160.47 155.40
  A 0.71 0.71 0.0 0 0 159.98 154.84
  L 159.39 154.66
  A 0.71 0.71 0.0 0 0 158.51 155.13
  L 157.68 157.75
  A 0.71 0.71 0.0 0 0 158.31 158.67
  L 160.16 158.80
  A 0.71 0.71 0.0 0 0 160.91 157.97
  L 160.47 155.40
  Z
  M 161.36 170.83
  Q 159.07 172.29 156.09 170.11
  Q 155.59 169.75 155.49 170.35
  Q 155.12 172.50 155.23 174.40
  Q 155.32 175.82 156.86 175.76
  Q 157.19 175.74 161.90 175.55
  Q 163.40 175.49 163.21 174.00
  Q 162.96 171.98 162.67 169.67
  Q 162.38 167.45 162.79 165.41
  Q 163.28 162.98 163.05 160.61
  A 1.09 1.09 0.0 0 0 161.84 159.64
  Q 159.58 159.92 157.32 159.51
  A 1.80 1.80 0.0 0 0 155.20 161.45
  L 155.56 165.22
  Q 155.60 165.58 155.82 165.30
  Q 157.59 162.99 161.66 164.33
  Q 162.12 164.48 162.23 164.95
  A 0.41 0.40 6.7 0 1 161.66 165.40
  Q 158.71 164.02 156.88 165.49
  Q 156.23 166.02 156.38 167.04
  Q 156.49 167.74 156.46 168.46
  A 1.35 1.34 -71.3 0 0 157.02 169.61
  Q 158.69 170.81 161.08 170.19
  Q 163.25 169.62 161.36 170.83
  Z"
/>
<path fill="#ffffff" d="
  M 158.70 154.29
  A 0.23 0.23 0.0 0 1 158.48 154.05
  L 158.49 153.88
  A 4.54 0.69 -87.7 0 1 159.36 149.37
  L 159.56 149.38
  A 4.54 0.69 -87.7 0 1 160.07 153.94
  L 160.06 154.11
  A 0.23 0.23 0.0 0 1 159.82 154.33
  L 158.70 154.29
  Z"
/>
<path fill="#ffffff" d="
  M 95.94 163.75
  L 93.32 163.45
  A 1.39 1.39 0.0 0 1 92.09 162.07
  L 92.11 158.79
  Q 92.12 157.27 93.64 157.26
  Q 96.68 157.24 96.84 154.01
  A 0.93 0.91 82.4 0 1 97.45 153.20
  C 99.63 152.44 103.34 152.40 103.09 155.85
  A 1.20 1.20 0.0 0 0 104.06 157.11
  L 106.71 157.64
  A 0.93 0.92 82.8 0 1 107.37 158.16
  C 107.94 159.42 107.73 160.94 107.53 162.29
  Q 107.28 163.96 105.50 163.73
  Q 102.78 163.37 102.91 166.20
  A 1.86 1.86 0.0 0 1 100.94 168.15
  L 97.83 167.96
  Q 97.12 167.92 96.85 167.27
  Q 96.33 166.05 96.55 164.55
  Q 96.66 163.83 95.94 163.75
  Z"
/>
<path fill="#838786" d="
  M 132.25 155.49
  Q 131.69 156.44 130.51 156.03
  Q 129.83 155.78 130.49 155.48
  Q 132.00 154.78 133.55 154.06
  Q 133.64 154.01 133.69 154.10
  L 133.69 154.11
  Q 133.78 154.28 133.60 154.35
  Q 132.72 154.69 132.25 155.49
  Z"
/>
<path fill="#ffffff" d="
  M 160.47 155.40
  L 160.91 157.97
  A 0.71 0.71 0.0 0 1 160.16 158.80
  L 158.31 158.67
  A 0.71 0.71 0.0 0 1 157.68 157.75
  L 158.51 155.13
  A 0.71 0.71 0.0 0 1 159.39 154.66
  L 159.98 154.84
  A 0.71 0.71 0.0 0 1 160.47 155.40
  Z"
/>
<path fill="#838786" d="
  M 127.90 155.10
  Q 127.99 155.55 128.33 155.92
  Q 128.98 156.59 128.05 156.52
  Q 127.36 156.46 127.05 155.78
  Q 126.95 155.54 127.04 155.30
  Q 127.13 155.08 127.32 154.90
  Q 127.79 154.47 127.90 155.10
  Z"
/>
<path fill="#ffffff" d="
  M 52.12 156.75
  Q 52.16 156.47 52.30 156.26
  Q 52.57 155.86 53.05 155.81
  L 55.85 155.55
  Q 56.80 155.46 57.54 156.07
  Q 58.09 156.53 57.66 157.20
  A 0.86 0.85 -84.6 0 1 57.29 157.51
  Q 56.32 157.89 55.38 157.40
  A 1.57 1.56 -50.4 0 0 53.68 157.57
  Q 52.87 158.22 52.08 157.60
  Q 51.76 157.36 51.54 157.68
  Q 50.90 158.57 50.09 157.86
  Q 49.65 157.47 49.06 157.47
  L 47.02 157.47
  Q 46.31 157.47 46.23 156.77
  L 46.17 156.32
  Q 46.09 155.63 46.78 155.57
  Q 48.68 155.40 50.88 155.83
  Q 51.58 155.96 51.59 156.67
  Q 51.60 156.82 51.73 156.92
  Q 52.06 157.15 52.12 156.75
  Z"
/>
<path fill="#aaaaaa" d="
  M 74.44 155.69
  L 73.91 158.07
  Q 73.81 158.54 74.01 158.98
  Q 74.23 159.46 74.26 159.99
  Q 74.59 167.16 74.45 174.55
  A 0.87 0.86 -87.2 0 1 73.52 175.40
  L 66.88 174.92
  A 0.54 0.53 12.6 0 1 66.41 174.19
  Q 69.26 167.03 72.92 160.80
  Q 73.32 160.13 72.57 160.36
  Q 72.31 160.44 72.20 160.25
  L 74.44 155.69
  Z"
/>
<ellipse fill="#ffffff" cx="0.00" cy="0.00" transform="translate(48.16,160.08) rotate(90.1)" rx="1.78" ry="1.06"/>
<ellipse fill="#ffffff" cx="0.00" cy="0.00" transform="translate(55.41,160.15) rotate(91.8)" rx="1.66" ry="1.02"/>
<path fill="#ffffff" d="
  M 51.35 161.84
  Q 51.69 161.98 52.02 161.84
  Q 52.58 161.59 53.05 161.98
  Q 54.99 163.54 56.93 162.58
  Q 57.56 162.26 57.73 162.95
  Q 58.19 164.78 57.43 166.41
  Q 57.15 167.00 56.58 166.69
  Q 54.84 165.75 53.27 166.92
  A 2.46 2.45 41.0 0 1 50.65 167.10
  Q 48.96 166.20 47.23 166.58
  Q 46.30 166.79 46.09 165.86
  Q 45.77 164.49 46.08 163.21
  Q 46.35 162.08 47.40 162.57
  Q 49.24 163.43 50.33 161.88
  Q 50.77 161.26 50.53 160.54
  Q 50.35 160.00 50.47 159.43
  Q 50.55 159.00 50.98 159.00
  L 52.46 158.97
  A 0.48 0.47 4.0 0 1 52.94 159.52
  Q 52.73 160.84 51.41 161.14
  Q 50.28 161.40 51.35 161.84
  Z
  M 51.8564 165.9492
  A 1.40 0.55 88.1 0 0 52.3597 164.5318
  A 1.40 0.55 88.1 0 0 51.7636 163.1508
  A 1.40 0.55 88.1 0 0 51.2603 164.5682
  A 1.40 0.55 88.1 0 0 51.8564 165.9492
  Z"
/>
<path fill="#ffffff" d="
  M 161.36 170.83
  Q 163.25 169.62 161.08 170.19
  Q 158.69 170.81 157.02 169.61
  A 1.35 1.34 -71.3 0 1 156.46 168.46
  Q 156.49 167.74 156.38 167.04
  Q 156.23 166.02 156.88 165.49
  Q 158.71 164.02 161.66 165.40
  A 0.41 0.40 6.7 0 0 162.23 164.95
  Q 162.12 164.48 161.66 164.33
  Q 157.59 162.99 155.82 165.30
  Q 155.60 165.58 155.56 165.22
  L 155.20 161.45
  A 1.80 1.80 0.0 0 1 157.32 159.51
  Q 159.58 159.92 161.84 159.64
  A 1.09 1.09 0.0 0 1 163.05 160.61
  Q 163.28 162.98 162.79 165.41
  Q 162.38 167.45 162.67 169.67
  Q 162.96 171.98 163.21 174.00
  Q 163.40 175.49 161.90 175.55
  Q 157.19 175.74 156.86 175.76
  Q 155.32 175.82 155.23 174.40
  Q 155.12 172.50 155.49 170.35
  Q 155.59 169.75 156.09 170.11
  Q 159.07 172.29 161.36 170.83
  Z"
/>
<ellipse fill="#838786" cx="0.00" cy="0.00" transform="translate(51.81,164.55) rotate(88.1)" rx="1.40" ry="0.55"/>
<path fill="#ffffff" d="
  M 56.76 170.26
  A 0.28 0.28 0.0 0 1 56.56 170.60
  L 56.31 170.67
  A 1.78 1.51 -15.2 0 1 54.20 169.68
  L 54.12 169.41
  A 1.78 1.51 -15.2 0 1 55.45 167.49
  L 55.70 167.42
  A 0.28 0.28 0.0 0 1 56.04 167.61
  L 56.76 170.26
  Z"
/>
<rect fill="#ffffff" x="-1.38" y="-1.16" transform="translate(51.59,168.98) rotate(4.7)" width="2.76" height="2.32" rx="0.84"/>
</svg>
