<?xml version="1.0" encoding="UTF-8" standalone="no"?>
<!DOCTYPE svg PUBLIC "-//W3C//DTD SVG 1.1//EN" "http://www.w3.org/Graphics/SVG/1.1/DTD/svg11.dtd">
<svg xmlns="http://www.w3.org/2000/svg" version="1.1" viewBox="0.00 0.00 200.00 200.00">
<g stroke-width="2.00" fill="none" stroke-linecap="butt">
<path stroke="#f5f5f5" vector-effect="non-scaling-stroke" d="
  M 200.00 117.68
  Q 198.80 116.13 196.09 117.98
  C 193.50 119.75 191.85 124.10 190.64 126.91
  Q 190.49 127.26 190.26 127.55
  Q 189.99 127.90 190.13 128.34
  Q 190.31 128.91 189.73 129.07
  L 188.98 129.29"
/>
<path stroke="#a1c6ff" vector-effect="non-scaling-stroke" d="
  M 188.98 129.29
  Q 186.10 121.69 183.28 114.00
  Q 181.13 108.12 176.27 105.34"
/>
<path stroke="#dceaff" vector-effect="non-scaling-stroke" d="
  M 176.27 105.34
  Q 180.60 103.66 184.58 99.57
  C 191.86 92.08 195.92 83.51 196.45 73.24
  C 198.17 40.41 162.86 19.77 134.97 36.69
  Q 119.47 46.09 116.32 65.20"
/>
<path stroke="#94999c" vector-effect="non-scaling-stroke" d="
  M 116.32 65.20
  Q 104.72 62.81 100.54 72.47
  A 1.12 1.12 0.0 0 0 101.37 74.02
  Q 102.66 74.25 103.70 74.96
  A 0.52 0.52 0.0 0 0 104.51 74.47
  C 104.08 70.95 106.80 66.47 110.79 67.11
  C 112.68 67.42 113.76 69.12 115.46 69.84
  Q 117.78 70.83 118.51 68.26
  A 0.81 0.80 32.2 0 1 119.89 67.95
  Q 122.98 71.45 123.67 76.26"
/>
<path stroke="#dceaff" vector-effect="non-scaling-stroke" d="
  M 123.67 76.26
  Q 123.81 78.41 123.62 80.60
  C 123.28 84.59 124.07 88.19 123.19 92.08
  C 122.80 93.83 123.95 95.01 124.97 96.28
  Q 131.34 104.17 140.22 107.63"
/>
<path stroke="#a1c6ff" vector-effect="non-scaling-stroke" d="
  M 140.22 107.63
  L 136.45 111.72"
/>
<path stroke="#f5f5f5" vector-effect="non-scaling-stroke" d="
  M 136.45 111.72
  L 117.87 100.33"
/>
<path stroke="#a1c6ff" vector-effect="non-scaling-stroke" d="
  M 117.87 100.33
  Q 116.95 101.08 116.32 102.21
  C 115.23 104.14 114.06 104.81 112.02 105.16
  Q 104.34 106.46 100.76 99.03"
/>
<path stroke="#f5f5f5" vector-effect="non-scaling-stroke" d="
  M 100.76 99.03
  Q 98.39 99.66 97.27 100.54
  C 95.42 102.00 94.14 103.88 92.01 104.82
  Q 87.48 106.80 82.86 110.36
  A 1.20 1.20 0.0 0 1 81.96 110.60
  Q 80.60 110.41 80.34 108.71"
/>
<path stroke="#94999c" vector-effect="non-scaling-stroke" d="
  M 80.34 108.71
  C 79.38 105.22 76.13 106.52 73.64 105.18
  Q 72.60 104.62 71.46 102.83
  Q 70.32 101.04 68.76 99.68"
/>
<path stroke="#a1c6ff" vector-effect="non-scaling-stroke" d="
  M 68.76 99.68
  Q 67.76 98.52 67.74 97.21"
/>
<path stroke="#94999c" vector-effect="non-scaling-stroke" d="
  M 67.74 97.21
  Q 70.33 94.05 70.31 89.70
  A 1.96 1.93 25.7 0 0 69.87 88.47
  Q 68.24 86.43 69.11 84.06
  A 3.23 3.23 0.0 0 0 68.06 80.39
  Q 66.11 78.88 66.14 76.39
  A 2.65 2.64 -79.9 0 0 64.37 73.85
  Q 62.94 73.35 61.48 72.73
  C 59.03 71.68 58.06 69.23 55.77 68.15
  C 50.94 65.89 46.18 67.67 44.45 72.63
  C 43.49 75.38 41.76 77.20 41.71 80.33
  Q 41.67 82.79 40.63 85.09
  C 39.06 88.54 41.00 94.34 42.39 97.51
  C 43.51 100.08 45.81 101.34 48.50 101.87
  Q 48.96 101.96 48.88 102.35"
/>
<path stroke="#a1c6ff" vector-effect="non-scaling-stroke" d="
  M 48.88 102.35
  Q 48.01 105.13 46.37 107.15
  Q 46.05 107.54 46.03 108.05
  L 44.77 138.46"
/>
<path stroke="#cacbcc" vector-effect="non-scaling-stroke" d="
  M 44.77 138.46
  Q 44.58 139.28 42.69 140.74
  A 0.58 0.58 0.0 0 0 42.82 141.74
  Q 43.71 142.10 44.82 141.23"
/>
<path stroke="#a1c6ff" vector-effect="non-scaling-stroke" d="
  M 44.82 141.23
  Q 46.41 141.50 47.05 142.18
  Q 49.68 144.96 52.71 145.85"
/>
<path stroke="#f5f5f5" vector-effect="non-scaling-stroke" d="
  M 52.71 145.85
  L 53.71 153.28
  Q 53.79 153.86 53.21 153.87
  L 52.47 153.89"
/>
<path stroke="#94999c" vector-effect="non-scaling-stroke" d="
  M 52.47 153.89
  L 32.05 143.79
  A 7.04 6.95 58.5 0 0 29.14 143.07
  L 9.23 142.64
  Q 7.43 142.60 9.14 143.14
  L 19.54 146.48
  Q 20.10 146.66 20.52 147.08
  Q 20.88 147.44 21.37 147.47
  Q 21.94 147.51 22.19 147.00
  Q 22.54 146.31 23.17 145.85
  A 0.99 0.99 0.0 0 1 24.75 146.71
  L 24.68 147.75
  Q 24.56 149.62 25.64 148.09
  Q 26.04 147.52 26.50 147.03
  Q 26.76 146.76 27.15 146.73
  Q 27.52 146.69 27.75 146.97
  C 28.26 147.58 28.03 148.39 27.79 149.06
  Q 27.53 149.77 28.22 150.08
  Q 34.33 152.79 40.68 153.75"
/>
<path stroke="#f5f5f5" vector-effect="non-scaling-stroke" d="
  M 40.68 153.75
  Q 41.33 154.29 41.12 155.18
  Q 41.00 155.69 40.47 155.68
  Q 39.62 155.65 39.16 156.40
  Q 36.72 160.30 35.97 164.52
  Q 35.90 164.91 35.56 165.12
  Q 34.52 165.78 33.00 165.78
  Q 19.46 165.78 5.81 165.77
  Q 5.67 165.77 5.61 165.89
  L 5.41 166.29
  Q 5.26 166.59 5.60 166.60
  L 43.48 166.73"
/>
<path stroke="#a1c6ff" vector-effect="non-scaling-stroke" d="
  M 43.48 166.73
  L 59.80 166.55"
/>
<path stroke="#f5f5f5" vector-effect="non-scaling-stroke" d="
  M 59.80 166.55
  Q 60.86 167.01 62.00 167.04
  Q 73.56 167.34 83.76 167.40
  Q 110.49 167.56 139.35 167.59
  A 0.36 0.35 -11.4 0 0 139.68 167.10
  L 139.53 166.74
  A 0.90 0.90 0.0 0 0 138.70 166.19
  L 132.29 166.20
  A 0.86 0.86 0.0 0 1 131.43 165.29
  L 131.91 156.88
  Q 131.94 156.35 132.38 156.05
  Q 133.15 155.52 134.04 155.13
  C 137.67 153.51 140.03 148.19 140.62 144.59
  Q 140.91 142.78 140.55 137.90
  Q 140.30 134.55 140.33 131.19"
/>
<path stroke="#a1c6ff" vector-effect="non-scaling-stroke" d="
  M 140.33 131.19
  Q 142.83 131.07 144.69 132.02
  Q 145.19 132.27 145.14 132.83
  L 144.38 142.35
  Q 144.34 142.81 144.79 142.74
  L 152.13 141.58"
/>
<path stroke="#94999c" vector-effect="non-scaling-stroke" d="
  M 152.13 141.58
  C 157.49 140.95 163.32 140.33 168.31 138.20
  C 170.79 137.15 176.21 135.45 178.53 137.47
  A 0.48 0.48 0.0 0 0 179.32 137.12
  Q 179.36 134.90 180.23 133.19"
/>
<path stroke="#a1c6ff" vector-effect="non-scaling-stroke" d="
  M 180.23 133.19
  L 186.79 132.52"
/>
<path stroke="#f5f5f5" vector-effect="non-scaling-stroke" d="
  M 186.79 132.52
  Q 187.53 133.64 186.88 134.26
  Q 186.53 134.59 186.45 135.06
  Q 186.13 136.85 186.41 137.99
  Q 188.14 145.06 186.06 151.79
  Q 185.75 152.79 184.74 152.83
  A 0.52 0.52 0.0 0 1 184.19 152.28
  Q 184.37 148.75 181.69 147.01
  Q 181.55 146.92 181.39 146.90
  Q 181.17 146.86 181.01 147.01
  Q 180.60 147.38 180.97 147.79
  Q 183.54 150.70 182.78 155.67
  Q 182.65 156.56 181.79 157.01
  Q 180.74 157.58 179.41 156.98"
/>
<path stroke="#a1c6ff" vector-effect="non-scaling-stroke" d="
  M 179.41 156.98
  Q 175.33 157.89 175.10 156.04"
/>
<path stroke="#94999c" vector-effect="non-scaling-stroke" d="
  M 175.10 156.04
  L 169.52 151.16
  A 0.52 0.52 0.0 0 1 169.71 150.27
  L 176.68 148.07
  Q 176.77 148.04 176.76 148.00
  L 176.70 147.74
  Q 176.65 147.50 176.41 147.55
  Q 173.78 148.11 171.14 147.98
  Q 168.98 147.87 165.97 148.82
  Q 157.57 151.44 149.43 154.69"
/>
<path stroke="#a1c6ff" vector-effect="non-scaling-stroke" d="
  M 149.43 154.69
  L 143.42 156.45
  A 1.44 1.44 0.0 0 0 142.40 157.66
  L 141.34 166.52
  Q 141.28 166.97 141.73 166.97
  L 179.51 167.12"
/>
<path stroke="#f5f5f5" vector-effect="non-scaling-stroke" d="
  M 179.51 167.12
  Q 182.19 168.08 184.89 167.82
  Q 188.50 167.47 189.64 167.54
  Q 194.33 167.81 199.02 167.54
  Q 199.45 167.51 199.43 167.08
  L 199.42 166.83
  Q 199.41 166.68 199.27 166.69
  L 189.03 166.87
  A 0.56 0.56 0.0 0 1 188.62 165.92
  C 189.41 165.13 190.76 164.69 191.60 164.15
  Q 193.89 162.67 196.08 161.07
  Q 198.59 159.24 200.00 156.47"
/>
<path stroke="#f5f5f5" vector-effect="non-scaling-stroke" d="
  M 49.80 50.38
  Q 47.14 48.13 46.01 44.90
  A 0.45 0.44 -16.2 0 0 45.48 44.61
  L 45.21 44.67
  Q 45.16 44.68 45.16 44.88
  L 45.00 48.27
  A 0.78 0.78 0.0 0 1 44.37 49.00
  L 41.02 49.66
  Q 40.36 49.79 40.21 50.45
  Q 39.67 52.84 39.86 56.15
  C 39.99 58.37 42.28 59.07 44.09 58.50
  Q 48.38 57.14 52.25 57.54
  A 0.95 0.94 -80.6 0 0 53.26 56.81
  Q 53.97 53.78 53.74 50.49
  A 0.98 0.98 0.0 0 0 52.04 49.90
  Q 51.52 50.45 50.78 50.62
  Q 50.23 50.75 49.80 50.38"
/>
<path stroke="#a1c6ff" vector-effect="non-scaling-stroke" d="
  M 83.44 70.87
  A 0.66 0.66 0.0 0 1 82.88 70.30
  L 82.54 67.82
  A 0.66 0.66 0.0 0 0 81.24 67.81
  L 80.88 70.29
  A 0.66 0.66 0.0 0 1 80.31 70.85
  L 77.83 71.19
  A 0.66 0.66 0.0 0 0 77.82 72.49
  L 80.30 72.85
  A 0.66 0.66 0.0 0 1 80.86 73.42
  L 81.20 75.90
  A 0.66 0.66 0.0 0 0 82.50 75.91
  L 82.86 73.43
  A 0.66 0.66 0.0 0 1 83.43 72.87
  L 85.91 72.53
  A 0.66 0.66 0.0 0 0 85.92 71.23
  L 83.44 70.87"
/>
<path stroke="#94999c" vector-effect="non-scaling-stroke" d="
  M 108.95 74.70
  C 109.85 74.55 110.29 74.43 111.23 74.55
  Q 113.22 74.80 111.52 73.74
  Q 109.86 72.71 108.64 74.14
  Q 108.03 74.85 108.95 74.70"
/>
<path stroke="#94999c" vector-effect="non-scaling-stroke" d="
  M 121.03 74.21
  Q 120.17 72.66 119.07 73.65
  Q 118.30 74.35 119.29 74.65
  Q 120.12 74.91 120.87 74.63
  A 0.30 0.29 -24.7 0 0 121.03 74.21"
/>
<path stroke="#94999c" vector-effect="non-scaling-stroke" d="
  M 104.06 79.10
  Q 104.59 78.48 104.44 77.73
  Q 104.34 77.25 103.89 77.07
  L 100.74 75.80
  Q 100.03 75.51 100.20 76.26
  Q 100.85 79.07 100.90 81.63
  Q 100.97 84.93 102.95 82.29
  Q 103.71 81.29 103.75 79.89
  A 1.24 1.23 -23.9 0 1 104.06 79.10"
/>
<path stroke="#94999c" vector-effect="non-scaling-stroke" d="
  M 110.13 77.88
  Q 109.57 79.01 110.34 79.82
  Q 110.77 80.27 110.97 79.68
  Q 111.26 78.81 111.13 77.86
  A 0.53 0.52 -22.1 0 0 110.30 77.51
  Q 110.10 77.66 110.13 77.88"
/>
<path stroke="#94999c" vector-effect="non-scaling-stroke" d="
  M 119.61 78.88
  Q 119.11 79.17 119.39 79.66
  A 0.63 0.63 0.0 0 0 120.54 79.53
  Q 120.76 78.80 120.67 78.13
  Q 120.60 77.67 120.26 77.99
  Q 120.10 78.14 120.03 78.35
  Q 119.93 78.69 119.61 78.88"
/>
<path stroke="#cacbcc" vector-effect="non-scaling-stroke" d="
  M 115.47 78.04
  Q 115.13 78.21 115.32 78.53
  Q 117.21 81.77 117.11 84.66
  Q 117.06 86.06 117.70 84.82
  Q 118.33 83.59 117.69 81.91
  Q 116.91 79.87 115.96 77.98
  Q 115.89 77.84 115.75 77.91
  L 115.47 78.04"
/>
<path stroke="#cacbcc" vector-effect="non-scaling-stroke" d="
  M 98.87 82.51
  Q 98.95 82.30 98.89 82.10
  Q 98.46 80.55 97.99 82.09
  Q 97.63 83.30 98.50 84.14
  A 0.32 0.31 39.6 0 0 98.98 84.10
  Q 99.32 83.61 98.96 83.12
  Q 98.75 82.84 98.87 82.51"
/>
<path stroke="#f5f5f5" vector-effect="non-scaling-stroke" d="
  M 15.31 90.69
  Q 15.04 90.22 15.01 89.65
  A 0.73 0.73 0.0 0 1 15.57 88.89
  Q 16.29 88.71 16.96 89.09
  Q 17.05 89.15 17.10 89.05
  L 17.23 88.75
  Q 17.27 88.66 17.20 88.59
  Q 16.10 87.36 14.89 88.06
  Q 14.12 88.51 14.26 89.45
  Q 14.42 90.48 14.84 91.38
  A 0.91 0.90 -23.6 0 1 14.36 92.60
  L 7.39 95.43
  A 3.27 3.27 0.0 0 0 5.66 99.85
  L 19.82 129.93
  A 1.14 1.14 0.0 0 0 21.36 130.47
  Q 27.40 127.47 33.16 124.93
  Q 34.11 124.51 34.32 123.66
  Q 34.50 122.93 33.82 123.25
  L 21.90 128.84
  A 1.32 1.32 0.0 0 1 20.11 128.12
  C 18.22 123.25 15.72 118.80 13.59 114.20
  Q 10.22 106.90 6.62 99.47
  A 2.35 2.35 0.0 0 1 7.51 96.44
  C 9.98 94.94 12.71 95.02 15.31 93.79
  Q 19.57 91.76 23.15 89.20
  Q 24.92 87.94 27.06 87.13
  A 1.31 1.31 0.0 0 1 28.72 87.79
  L 39.09 109.78
  Q 39.35 110.33 39.83 109.95
  Q 40.34 109.54 40.01 108.98
  C 36.02 102.10 32.84 94.97 29.61 87.13
  A 1.63 1.62 -22.5 0 0 27.48 86.25
  Q 23.77 87.80 20.09 89.83
  Q 18.27 90.83 16.05 91.08
  Q 15.55 91.14 15.31 90.69"
/>
<path stroke="#cacbcc" vector-effect="non-scaling-stroke" d="
  M 115.4590 88.8113
  A 2.02 0.56 37.2 0 0 114.1886 87.1439
  A 2.02 0.56 37.2 0 0 112.2410 86.3687
  A 2.02 0.56 37.2 0 0 113.5114 88.0361
  A 2.02 0.56 37.2 0 0 115.4590 88.8113"
/>
<path stroke="#cacbcc" vector-effect="non-scaling-stroke" d="
  M 117.18 97.79
  L 117.18 97.48
  A 0.38 0.38 0.0 0 0 116.84 97.10
  Q 113.57 96.70 110.60 95.15
  Q 108.74 94.19 110.13 95.75
  Q 111.98 97.81 116.47 98.41
  Q 117.18 98.50 117.18 97.79"
/>
<path stroke="#94999c" vector-effect="non-scaling-stroke" d="
  M 17.69 148.07
  L 18.90 151.46
  A 0.13 0.13 0.0 0 0 19.07 151.53
  L 19.10 151.52
  A 1.83 1.80 70.3 0 0 20.18 149.19
  L 20.11 149.01
  A 1.83 1.80 70.3 0 0 17.80 147.89
  L 17.77 147.90
  A 0.13 0.13 0.0 0 0 17.69 148.07"
/>
<path stroke="#7eb1ff" vector-effect="non-scaling-stroke" d="
  M 176.27 105.34
  L 167.38 102.72"
/>
<path stroke="#dceaff" vector-effect="non-scaling-stroke" d="
  M 167.38 102.72
  Q 167.28 101.94 167.31 101.15
  Q 167.36 100.06 166.96 99.73
  Q 166.37 99.22 165.04 99.35"
/>
<path stroke="#a7b6cc" vector-effect="non-scaling-stroke" d="
  M 165.04 99.35
  Q 166.87 99.64 167.20 98.25"
/>
<path stroke="#dceaff" vector-effect="non-scaling-stroke" d="
  M 167.20 98.25
  Q 173.26 96.25 172.87 89.50
  Q 172.34 80.29 172.04 77.39
  Q 171.99 76.87 171.50 76.68
  Q 171.11 76.53 170.67 76.62
  Q 170.29 76.71 170.18 77.08
  L 170.05 77.48"
/>
<path stroke="#71849c" vector-effect="non-scaling-stroke" d="
  M 170.05 77.48
  Q 169.57 76.75 169.03 76.93"
/>
<path stroke="#dceaff" vector-effect="non-scaling-stroke" d="
  M 169.03 76.93
  Q 169.66 76.61 169.30 76.30"
/>
<path stroke="#71849c" vector-effect="non-scaling-stroke" d="
  M 169.30 76.30
  Q 173.60 77.56 174.92 73.41
  Q 175.89 70.38 172.69 69.46
  Q 170.47 68.81 169.18 66.95
  C 167.57 64.61 164.76 63.80 162.32 65.51
  Q 160.21 66.98 158.10 66.64
  C 155.34 66.18 152.97 67.63 152.60 70.53
  C 152.33 72.61 150.51 75.23 151.23 77.26
  Q 152.32 80.33 152.63 82.61"
/>
<path stroke="#dceaff" vector-effect="non-scaling-stroke" d="
  M 152.63 82.61
  Q 148.20 84.08 149.94 88.32
  Q 150.14 88.81 150.64 88.98
  L 152.17 89.47
  A 1.33 1.32 9.1 0 1 153.09 90.73
  L 153.02 103.14"
/>
<path stroke="#7eb1ff" vector-effect="non-scaling-stroke" d="
  M 153.02 103.14
  Q 146.49 102.73 140.22 107.63"
/>
<path stroke="#71849c" vector-effect="non-scaling-stroke" d="
  M 123.67 76.26
  Q 124.09 67.19 116.32 65.20"
/>
<path stroke="#7eb1ff" vector-effect="non-scaling-stroke" d="
  M 139.01 48.54
  A 0.95 0.94 -40.1 0 1 137.45 48.41
  Q 134.93 43.93 130.75 45.72
  C 127.27 47.22 126.72 51.49 127.92 54.68
  Q 129.85 59.84 135.38 62.80
  C 137.13 63.73 138.71 63.03 140.32 62.25
  Q 145.28 59.84 147.47 55.72
  C 150.80 49.45 143.93 42.41 139.01 48.54"
/>
<path stroke="#d2e0f5" vector-effect="non-scaling-stroke" d="
  M 184.45 71.64
  Q 181.93 71.62 180.90 74.09
  Q 178.87 78.95 177.00 83.91
  A 1.39 1.39 0.0 0 0 177.79 85.68
  L 185.71 88.82
  A 1.92 1.92 0.0 0 0 188.21 87.72
  Q 189.87 83.35 191.89 78.36
  Q 192.87 75.95 191.08 74.14
  Q 190.31 73.37 191.28 72.89
  Q 192.44 72.32 192.14 71.27
  Q 191.92 70.49 191.03 70.22
  Q 188.71 69.51 186.79 68.65
  Q 186.26 68.41 185.88 68.85
  Q 185.14 69.70 185.23 70.79
  Q 185.31 71.65 184.45 71.64"
/>
<path stroke="#94999c" vector-effect="non-scaling-stroke" d="
  M 169.30 76.30
  L 165.95 74.40
  Q 165.51 74.15 165.01 74.18
  Q 163.12 74.28 161.26 75.07
  A 1.44 1.43 50.9 0 1 159.86 74.92
  L 157.74 73.43
  Q 155.43 71.79 155.56 74.62
  C 155.66 76.65 156.15 77.86 154.70 79.62
  C 153.57 80.99 153.94 83.13 154.28 84.76
  A 0.29 0.27 -24.1 0 1 154.16 85.05
  L 153.82 85.30
  Q 153.45 85.56 153.33 85.13
  L 152.63 82.61"
/>
<path stroke="#35609c" vector-effect="non-scaling-stroke" d="
  M 67.74 97.21
  Q 64.79 97.55 63.24 99.99"
/>
<path stroke="#8a8f92" vector-effect="non-scaling-stroke" d="
  M 63.24 99.99
  Q 62.96 100.21 62.26 100.27"
/>
<path stroke="#94999c" vector-effect="non-scaling-stroke" d="
  M 62.26 100.27
  Q 61.69 99.89 62.23 98.47
  A 1.82 1.82 0.0 0 0 61.58 96.32
  Q 57.74 93.63 59.29 89.08
  C 60.33 86.02 58.36 84.68 56.31 83.14
  A 1.24 1.24 0.0 0 0 54.32 84.07
  L 54.23 86.01
  Q 54.22 86.12 54.11 86.13
  L 53.79 86.17
  Q 53.44 86.21 53.47 85.86
  Q 53.62 84.28 53.11 82.81
  Q 52.92 82.25 53.51 82.28
  Q 54.30 82.32 54.89 81.81
  A 1.05 1.04 69.4 0 0 55.24 81.03
  C 55.17 75.65 50.66 76.38 47.62 73.45
  Q 47.22 73.07 46.80 73.42
  Q 43.34 76.31 42.86 80.44
  Q 42.19 86.21 42.45 92.14
  C 42.62 96.16 44.29 99.20 48.23 100.89
  Q 49.77 101.56 51.39 101.05
  Q 53.53 100.39 55.42 99.52
  Q 55.57 99.45 55.65 99.60
  L 55.66 99.60
  Q 55.71 99.70 55.62 99.76
  Q 54.39 100.64 53.20 101.40
  Q 52.62 101.77 53.26 102.02
  Q 53.71 102.21 54.50 102.19"
/>
<path stroke="#35609c" vector-effect="non-scaling-stroke" d="
  M 54.50 102.19
  L 48.88 102.35"
/>
<path stroke="#94999c" vector-effect="non-scaling-stroke" d="
  M 169.03 76.93
  Q 168.40 77.15 168.52 77.77
  A 0.54 0.54 0.0 0 0 168.81 78.15
  Q 169.15 78.33 169.50 78.26
  A 0.46 0.45 -1.8 0 0 169.87 77.87
  Q 169.89 77.63 170.05 77.48"
/>
<path stroke="#cacbcc" vector-effect="non-scaling-stroke" d="
  M 167.20 98.25
  Q 163.54 98.03 161.51 96.92
  Q 158.95 95.52 160.94 97.65
  Q 162.18 98.99 165.04 99.35"
/>
<path stroke="#a1c6ff" vector-effect="non-scaling-stroke" d="
  M 167.38 102.72
  L 167.65 109.52
  A 0.78 0.78 0.0 0 1 166.58 110.27
  Q 159.03 107.30 153.02 103.14"
/>
<path stroke="#94999c" vector-effect="non-scaling-stroke" d="
  M 160.32 76.81
  Q 159.83 76.77 159.45 77.18
  Q 158.85 77.81 159.72 77.78
  L 161.41 77.73
  Q 162.02 77.71 161.88 77.12
  Q 161.79 76.73 161.41 76.62
  Q 161.01 76.50 160.66 76.72
  Q 160.51 76.82 160.32 76.81"
/>
<path stroke="#94999c" vector-effect="non-scaling-stroke" d="
  M 160.96 82.43
  Q 161.59 81.56 161.46 80.62
  Q 161.39 80.10 160.88 80.04
  Q 160.51 79.99 160.19 80.16
  Q 159.74 80.42 159.80 80.96
  Q 159.89 81.76 160.25 82.39
  A 0.43 0.42 47.9 0 0 160.96 82.43"
/>
<path stroke="#94999c" vector-effect="non-scaling-stroke" d="
  M 169.91 81.99
  Q 170.37 81.29 170.14 80.49
  Q 170.07 80.24 169.83 80.16
  Q 169.56 80.06 169.28 80.06
  Q 168.40 80.05 168.46 80.92
  Q 168.50 81.42 168.65 81.84
  A 0.71 0.71 0.0 0 0 169.91 81.99"
/>
<path stroke="#f5f5f5" vector-effect="non-scaling-stroke" d="
  M 166.17 84.79
  L 166.29 87.49
  A 0.52 0.52 0.0 0 0 167.06 87.92
  L 167.30 87.78
  Q 167.98 87.41 167.93 86.64
  Q 167.76 83.87 165.89 81.26
  Q 165.42 80.60 165.37 81.41
  Q 165.29 82.82 165.96 84.03
  Q 166.16 84.38 166.17 84.79"
/>
<path stroke="#cacbcc" vector-effect="non-scaling-stroke" d="
  M 165.2967 90.7430
  A 1.80 0.71 38.6 0 0 164.3330 89.0651
  A 1.80 0.71 38.6 0 0 162.4833 88.4970
  A 1.80 0.71 38.6 0 0 163.4470 90.1749
  A 1.80 0.71 38.6 0 0 165.2967 90.7430"
/>
<path stroke="#f5f5f5" vector-effect="non-scaling-stroke" d="
  M 62.26 100.27
  L 62.53 100.89
  Q 62.74 101.38 62.21 101.42
  L 61.71 101.46"
/>
<path stroke="#a1c6ff" vector-effect="non-scaling-stroke" d="
  M 61.71 101.46
  L 54.50 102.19"
/>
<path stroke="#94999c" vector-effect="non-scaling-stroke" d="
  M 46.7042 81.3400
  A 0.87 0.71 6.6 0 0 45.9216 80.5347
  A 0.87 0.71 6.6 0 0 44.9758 81.1400
  A 0.87 0.71 6.6 0 0 45.7584 81.9453
  A 0.87 0.71 6.6 0 0 46.7042 81.3400"
/>
<path stroke="#94999c" vector-effect="non-scaling-stroke" d="
  M 45.2116 85.7215
  A 1.10 0.63 105.2 0 0 46.1080 84.8252
  A 1.10 0.63 105.2 0 0 45.7884 83.5985
  A 1.10 0.63 105.2 0 0 44.8920 84.4948
  A 1.10 0.63 105.2 0 0 45.2116 85.7215"
/>
<path stroke="#94999c" vector-effect="non-scaling-stroke" d="
  M 48.61 85.80
  Q 47.49 88.00 47.32 90.18
  Q 47.31 90.37 47.50 90.39
  L 47.75 90.42
  Q 47.93 90.44 47.93 90.26
  Q 47.95 88.02 49.10 85.79
  Q 49.33 85.33 49.26 84.79
  Q 49.14 83.85 48.97 84.78
  Q 48.86 85.31 48.61 85.80"
/>
<path stroke="#cacbcc" vector-effect="non-scaling-stroke" d="
  M 51.9968 91.8564
  A 1.46 0.50 -41.3 0 0 50.5700 92.4444
  A 1.46 0.50 -41.3 0 0 49.8032 93.7836
  A 1.46 0.50 -41.3 0 0 51.2300 93.1956
  A 1.46 0.50 -41.3 0 0 51.9968 91.8564"
/>
<path stroke="#35609c" vector-effect="non-scaling-stroke" d="
  M 68.76 99.68
  Q 68.19 99.48 68.00 99.75
  Q 66.59 101.76 64.06 101.25"
/>
<path stroke="#97bcf5" vector-effect="non-scaling-stroke" d="
  M 64.06 101.25
  Q 63.96 100.51 63.24 99.99"
/>
<path stroke="#97bcf5" vector-effect="non-scaling-stroke" d="
  M 100.76 99.03
  Q 101.15 101.61 101.37 103.92
  Q 101.63 106.54 102.42 108.69
  Q 106.14 118.83 110.12 128.88
  Q 110.66 130.25 110.79 131.48
  Q 111.01 133.54 111.53 131.53
  Q 113.58 123.63 115.23 116.81
  Q 115.99 113.63 116.56 108.58
  Q 117.02 104.45 117.87 100.33"
/>
<path stroke="#97bcf5" vector-effect="non-scaling-stroke" d="
  M 136.45 111.72
  Q 139.32 116.23 139.54 118.99
  Q 140.02 125.19 140.33 131.19"
/>
<path stroke="#97bcf5" vector-effect="non-scaling-stroke" d="
  M 59.80 166.55
  Q 60.05 166.59 60.26 166.55
  Q 60.80 166.44 60.73 165.89
  L 59.58 156.66"
/>
<path stroke="#8ca5d1" vector-effect="non-scaling-stroke" d="
  M 59.58 156.66
  L 59.64 155.40
  Q 59.67 154.89 59.15 154.84
  L 55.50 154.55"
/>
<path stroke="#8a8f92" vector-effect="non-scaling-stroke" d="
  M 55.50 154.55
  L 52.47 153.89"
/>
<path stroke="#97bcf5" vector-effect="non-scaling-stroke" d="
  M 52.71 145.85
  L 58.23 145.01
  Q 58.71 144.94 58.68 144.46
  C 58.29 138.27 57.67 132.51 58.93 126.16
  Q 60.64 117.59 62.41 108.56
  Q 62.76 106.77 62.43 104.99
  Q 62.11 103.24 61.71 101.46"
/>
<path stroke="#8a8f92" vector-effect="non-scaling-stroke" d="
  M 64.06 101.25
  Q 63.17 101.95 63.35 102.73
  Q 63.47 103.27 64.29 103.74
  Q 68.70 106.27 73.74 108.23
  C 75.99 109.11 77.69 110.47 79.08 112.41
  Q 80.70 114.69 80.53 111.90
  L 80.34 108.71"
/>
<path stroke="#97bcf5" vector-effect="non-scaling-stroke" d="
  M 62.84 124.40
  L 62.90 131.66
  A 0.11 0.11 0.0 0 0 63.01 131.76
  L 63.09 131.76
  A 3.59 1.43 89.6 0 0 64.49 128.16
  L 64.49 127.86
  A 3.59 1.43 89.6 0 0 63.03 124.28
  L 62.95 124.28
  A 0.11 0.11 0.0 0 0 62.84 124.40"
/>
<path stroke="#f5f5f5" vector-effect="non-scaling-stroke" d="
  M 128.26 130.82
  Q 127.99 130.97 127.70 130.83
  Q 127.24 130.60 126.79 130.86
  Q 124.50 132.17 122.94 134.42
  Q 122.51 135.05 121.75 135.28
  Q 121.25 135.44 121.47 135.92
  Q 121.56 136.11 121.70 136.27
  Q 121.95 136.54 122.30 136.61
  Q 126.83 137.53 130.98 137.39
  Q 131.86 137.35 132.45 136.74
  C 133.71 135.44 135.73 134.30 137.16 133.20
  A 0.64 0.64 0.0 0 0 137.26 132.28
  L 135.77 130.56
  A 0.96 0.96 0.0 0 0 135.24 130.24
  L 129.98 129.05
  Q 129.47 128.93 129.27 129.43
  Q 129.04 130.00 128.63 130.51
  Q 128.47 130.71 128.26 130.82"
/>
<path stroke="#8a8f92" vector-effect="non-scaling-stroke" d="
  M 119.22 137.05
  A 0.82 0.81 18.7 0 0 120.20 136.57
  Q 120.43 135.99 120.25 135.35
  Q 120.10 134.83 119.55 134.82
  Q 118.84 134.80 118.23 135.16
  Q 117.70 135.47 117.94 136.03
  Q 118.26 136.77 119.22 137.05"
/>
<path stroke="#f5f5f5" vector-effect="non-scaling-stroke" d="
  M 101.15 144.24
  L 101.64 137.28
  A 0.28 0.28 0.0 0 0 101.39 136.98
  L 100.97 136.95
  A 10.66 3.49 4.1 0 0 90.08 139.66
  L 90.04 140.22
  A 10.66 3.49 4.1 0 0 100.43 144.47
  L 100.85 144.50
  A 0.28 0.28 0.0 0 0 101.15 144.24"
/>
<path stroke="#f5f5f5" vector-effect="non-scaling-stroke" d="
  M 74.17 156.00
  A 0.80 0.79 -21.9 0 0 73.72 157.04
  L 76.75 164.45
  A 2.29 2.29 0.0 0 0 78.90 165.87
  L 84.69 165.82
  Q 85.44 165.81 85.46 165.06
  L 85.55 158.72
  A 0.99 0.98 -83.6 0 0 84.78 157.74
  Q 81.56 157.04 78.40 155.69
  C 76.96 155.07 75.54 155.46 74.17 156.00"
/>
<path stroke="#6b92cc" vector-effect="non-scaling-stroke" d="
  M 44.82 141.23
  Q 47.65 138.23 50.98 135.50
  Q 51.71 134.90 51.12 134.27
  Q 50.77 133.90 50.36 134.21
  L 44.77 138.46"
/>
<path stroke="#3776db" vector-effect="non-scaling-stroke" d="
  M 58.35 104.70
  C 55.62 105.55 52.96 106.26 50.20 106.22
  Q 47.94 106.19 49.21 108.06
  Q 49.73 108.81 50.68 108.68
  Q 51.29 108.60 51.84 108.34
  Q 55.17 106.81 58.60 105.45
  Q 58.97 105.30 58.72 105.00
  L 58.51 104.75
  Q 58.44 104.67 58.35 104.70"
/>
<path stroke="#97bcf5" vector-effect="non-scaling-stroke" d="
  M 188.98 129.29
  Q 189.67 130.27 189.68 131.14
  Q 189.69 131.70 189.16 131.85
  L 186.79 132.52"
/>
<path stroke="#35609c" vector-effect="non-scaling-stroke" d="
  M 180.23 133.19
  L 181.39 127.15
  Q 181.52 126.47 180.84 126.47
  C 177.20 126.48 173.77 127.33 170.41 125.57
  C 169.09 124.88 167.29 124.82 166.20 126.01
  Q 165.82 126.42 165.28 126.57
  Q 160.67 127.84 156.51 127.63
  A 1.99 1.99 0.0 0 0 154.45 129.25
  L 152.13 141.58"
/>
<path stroke="#3776db" vector-effect="non-scaling-stroke" d="
  M 151.0008 105.9715
  A 0.31 0.31 0.0 0 0 150.7208 105.6342
  L 150.3424 105.5991
  A 0.31 0.31 0.0 0 0 150.0051 105.8791
  L 148.4792 122.3285
  A 0.31 0.31 0.0 0 0 148.7592 122.6658
  L 149.1376 122.7009
  A 0.31 0.31 0.0 0 0 149.4749 122.4209
  L 151.0008 105.9715"
/>
<path stroke="#3776db" vector-effect="non-scaling-stroke" d="
  M 171.08 115.59
  Q 171.18 114.50 171.05 113.25
  Q 170.96 112.27 170.73 113.23
  L 170.19 115.52
  Q 170.06 116.07 169.57 116.37
  C 168.14 117.21 166.97 117.58 166.76 119.51
  Q 166.64 120.59 167.08 119.59
  C 167.65 118.29 168.58 117.36 170.03 117.08
  C 171.47 116.81 172.57 118.23 173.19 119.33
  Q 173.42 119.73 173.37 120.18
  Q 173.35 120.40 173.42 120.56
  Q 173.83 121.51 173.90 120.47
  Q 174.06 117.96 171.62 116.61
  Q 171.02 116.27 171.08 115.59"
/>
<path stroke="#97bcf5" vector-effect="non-scaling-stroke" d="
  M 159.1358 125.6633
  A 0.71 0.71 0.0 0 0 158.4562 124.9242
  L 150.1834 124.5775
  A 0.71 0.71 0.0 0 0 149.4443 125.2571
  L 149.4242 125.7367
  A 0.71 0.71 0.0 0 0 150.1038 126.4758
  L 158.3766 126.8225
  A 0.71 0.71 0.0 0 0 159.1157 126.1429
  L 159.1358 125.6633"
/>
<path stroke="#97bcf5" vector-effect="non-scaling-stroke" d="
  M 148.8839 136.0270
  A 4.01 2.93 87.8 0 0 151.6578 131.9075
  A 4.01 2.93 87.8 0 0 148.5761 128.0130
  A 4.01 2.93 87.8 0 0 145.8022 132.1325
  A 4.01 2.93 87.8 0 0 148.8839 136.0270"
/>
<path stroke="#f5f5f5" vector-effect="non-scaling-stroke" d="
  M 200.00 126.75
  Q 198.38 129.66 197.01 130.60
  Q 192.59 133.61 197.88 134.36
  Q 198.91 134.51 200.00 135.77"
/>
<path stroke="#f5f5f5" vector-effect="non-scaling-stroke" d="
  M 200.00 140.45
  Q 196.88 143.59 192.06 145.32
  Q 191.05 145.68 190.04 147.40
  Q 189.68 148.02 189.93 148.70
  C 191.16 151.98 195.82 149.39 198.14 148.36
  Q 199.32 147.83 200.00 149.67"
/>
<path stroke="#97bcf5" vector-effect="non-scaling-stroke" d="
  M 179.51 167.12
  L 179.41 156.98"
/>
<path stroke="#2a4978" vector-effect="non-scaling-stroke" d="
  M 55.50 154.55
  L 55.84 155.44
  Q 56.05 156.00 55.46 155.92
  L 44.32 154.36"
/>
<path stroke="#8a8f92" vector-effect="non-scaling-stroke" d="
  M 44.32 154.36
  Q 42.62 153.64 40.68 153.75"
/>
<path stroke="#35609c" vector-effect="non-scaling-stroke" d="
  M 175.10 156.04
  Q 163.17 156.51 152.00 156.77
  Q 148.95 156.85 149.43 154.69"
/>
<path stroke="#8ca5d1" vector-effect="non-scaling-stroke" d="
  M 44.32 154.36
  L 43.92 163.67"
/>
<path stroke="#97bcf5" vector-effect="non-scaling-stroke" d="
  M 43.92 163.67
  L 43.48 166.73"
/>
<path stroke="#3776db" vector-effect="non-scaling-stroke" d="
  M 59.58 156.66
  Q 56.18 158.40 53.25 158.17
  Q 50.84 157.97 48.66 157.24
  A 1.97 1.96 10.1 0 0 46.07 159.04
  Q 45.97 162.22 43.92 163.67"
/>
</g>
<path fill="#ffffff" d="
  M 0.00 0.00
  L 200.00 0.00
  L 200.00 117.68
  Q 198.80 116.13 196.09 117.98
  C 193.50 119.75 191.85 124.10 190.64 126.91
  Q 190.49 127.26 190.26 127.55
  Q 189.99 127.90 190.13 128.34
  Q 190.31 128.91 189.73 129.07
  L 188.98 129.29
  Q 186.10 121.69 183.28 114.00
  Q 181.13 108.12 176.27 105.34
  Q 180.60 103.66 184.58 99.57
  C 191.86 92.08 195.92 83.51 196.45 73.24
  C 198.17 40.41 162.86 19.77 134.97 36.69
  Q 119.47 46.09 116.32 65.20
  Q 104.72 62.81 100.54 72.47
  A 1.12 1.12 0.0 0 0 101.37 74.02
  Q 102.66 74.25 103.70 74.96
  A 0.52 0.52 0.0 0 0 104.51 74.47
  C 104.08 70.95 106.80 66.47 110.79 67.11
  C 112.68 67.42 113.76 69.12 115.46 69.84
  Q 117.78 70.83 118.51 68.26
  A 0.81 0.80 32.2 0 1 119.89 67.95
  Q 122.98 71.45 123.67 76.26
  Q 123.81 78.41 123.62 80.60
  C 123.28 84.59 124.07 88.19 123.19 92.08
  C 122.80 93.83 123.95 95.01 124.97 96.28
  Q 131.34 104.17 140.22 107.63
  L 136.45 111.72
  L 117.87 100.33
  Q 116.95 101.08 116.32 102.21
  C 115.23 104.14 114.06 104.81 112.02 105.16
  Q 104.34 106.46 100.76 99.03
  Q 98.39 99.66 97.27 100.54
  C 95.42 102.00 94.14 103.88 92.01 104.82
  Q 87.48 106.80 82.86 110.36
  A 1.20 1.20 0.0 0 1 81.96 110.60
  Q 80.60 110.41 80.34 108.71
  C 79.38 105.22 76.13 106.52 73.64 105.18
  Q 72.60 104.62 71.46 102.83
  Q 70.32 101.04 68.76 99.68
  Q 67.76 98.52 67.74 97.21
  Q 70.33 94.05 70.31 89.70
  A 1.96 1.93 25.7 0 0 69.87 88.47
  Q 68.24 86.43 69.11 84.06
  A 3.23 3.23 0.0 0 0 68.06 80.39
  Q 66.11 78.88 66.14 76.39
  A 2.65 2.64 -79.9 0 0 64.37 73.85
  Q 62.94 73.35 61.48 72.73
  C 59.03 71.68 58.06 69.23 55.77 68.15
  C 50.94 65.89 46.18 67.67 44.45 72.63
  C 43.49 75.38 41.76 77.20 41.71 80.33
  Q 41.67 82.79 40.63 85.09
  C 39.06 88.54 41.00 94.34 42.39 97.51
  C 43.51 100.08 45.81 101.34 48.50 101.87
  Q 48.96 101.96 48.88 102.35
  Q 48.01 105.13 46.37 107.15
  Q 46.05 107.54 46.03 108.05
  L 44.77 138.46
  Q 44.58 139.28 42.69 140.74
  A 0.58 0.58 0.0 0 0 42.82 141.74
  Q 43.71 142.10 44.82 141.23
  Q 46.41 141.50 47.05 142.18
  Q 49.68 144.96 52.71 145.85
  L 53.71 153.28
  Q 53.79 153.86 53.21 153.87
  L 52.47 153.89
  L 32.05 143.79
  A 7.04 6.95 58.5 0 0 29.14 143.07
  L 9.23 142.64
  Q 7.43 142.60 9.14 143.14
  L 19.54 146.48
  Q 20.10 146.66 20.52 147.08
  Q 20.88 147.44 21.37 147.47
  Q 21.94 147.51 22.19 147.00
  Q 22.54 146.31 23.17 145.85
  A 0.99 0.99 0.0 0 1 24.75 146.71
  L 24.68 147.75
  Q 24.56 149.62 25.64 148.09
  Q 26.04 147.52 26.50 147.03
  Q 26.76 146.76 27.15 146.73
  Q 27.52 146.69 27.75 146.97
  C 28.26 147.58 28.03 148.39 27.79 149.06
  Q 27.53 149.77 28.22 150.08
  Q 34.33 152.79 40.68 153.75
  Q 41.33 154.29 41.12 155.18
  Q 41.00 155.69 40.47 155.68
  Q 39.62 155.65 39.16 156.40
  Q 36.72 160.30 35.97 164.52
  Q 35.90 164.91 35.56 165.12
  Q 34.52 165.78 33.00 165.78
  Q 19.46 165.78 5.81 165.77
  Q 5.67 165.77 5.61 165.89
  L 5.41 166.29
  Q 5.26 166.59 5.60 166.60
  L 43.48 166.73
  L 59.80 166.55
  Q 60.86 167.01 62.00 167.04
  Q 73.56 167.34 83.76 167.40
  Q 110.49 167.56 139.35 167.59
  A 0.36 0.35 -11.4 0 0 139.68 167.10
  L 139.53 166.74
  A 0.90 0.90 0.0 0 0 138.70 166.19
  L 132.29 166.20
  A 0.86 0.86 0.0 0 1 131.43 165.29
  L 131.91 156.88
  Q 131.94 156.35 132.38 156.05
  Q 133.15 155.52 134.04 155.13
  C 137.67 153.51 140.03 148.19 140.62 144.59
  Q 140.91 142.78 140.55 137.90
  Q 140.30 134.55 140.33 131.19
  Q 142.83 131.07 144.69 132.02
  Q 145.19 132.27 145.14 132.83
  L 144.38 142.35
  Q 144.34 142.81 144.79 142.74
  L 152.13 141.58
  C 157.49 140.95 163.32 140.33 168.31 138.20
  C 170.79 137.15 176.21 135.45 178.53 137.47
  A 0.48 0.48 0.0 0 0 179.32 137.12
  Q 179.36 134.90 180.23 133.19
  L 186.79 132.52
  Q 187.53 133.64 186.88 134.26
  Q 186.53 134.59 186.45 135.06
  Q 186.13 136.85 186.41 137.99
  Q 188.14 145.06 186.06 151.79
  Q 185.75 152.79 184.74 152.83
  A 0.52 0.52 0.0 0 1 184.19 152.28
  Q 184.37 148.75 181.69 147.01
  Q 181.55 146.92 181.39 146.90
  Q 181.17 146.86 181.01 147.01
  Q 180.60 147.38 180.97 147.79
  Q 183.54 150.70 182.78 155.67
  Q 182.65 156.56 181.79 157.01
  Q 180.74 157.58 179.41 156.98
  Q 175.33 157.89 175.10 156.04
  L 169.52 151.16
  A 0.52 0.52 0.0 0 1 169.71 150.27
  L 176.68 148.07
  Q 176.77 148.04 176.76 148.00
  L 176.70 147.74
  Q 176.65 147.50 176.41 147.55
  Q 173.78 148.11 171.14 147.98
  Q 168.98 147.87 165.97 148.82
  Q 157.57 151.44 149.43 154.69
  L 143.42 156.45
  A 1.44 1.44 0.0 0 0 142.40 157.66
  L 141.34 166.52
  Q 141.28 166.97 141.73 166.97
  L 179.51 167.12
  Q 182.19 168.08 184.89 167.82
  Q 188.50 167.47 189.64 167.54
  Q 194.33 167.81 199.02 167.54
  Q 199.45 167.51 199.43 167.08
  L 199.42 166.83
  Q 199.41 166.68 199.27 166.69
  L 189.03 166.87
  A 0.56 0.56 0.0 0 1 188.62 165.92
  C 189.41 165.13 190.76 164.69 191.60 164.15
  Q 193.89 162.67 196.08 161.07
  Q 198.59 159.24 200.00 156.47
  L 200.00 200.00
  L 0.00 200.00
  L 0.00 0.00
  Z
  M 49.80 50.38
  Q 47.14 48.13 46.01 44.90
  A 0.45 0.44 -16.2 0 0 45.48 44.61
  L 45.21 44.67
  Q 45.16 44.68 45.16 44.88
  L 45.00 48.27
  A 0.78 0.78 0.0 0 1 44.37 49.00
  L 41.02 49.66
  Q 40.36 49.79 40.21 50.45
  Q 39.67 52.84 39.86 56.15
  C 39.99 58.37 42.28 59.07 44.09 58.50
  Q 48.38 57.14 52.25 57.54
  A 0.95 0.94 -80.6 0 0 53.26 56.81
  Q 53.97 53.78 53.74 50.49
  A 0.98 0.98 0.0 0 0 52.04 49.90
  Q 51.52 50.45 50.78 50.62
  Q 50.23 50.75 49.80 50.38
  Z
  M 83.44 70.87
  A 0.66 0.66 0.0 0 1 82.88 70.30
  L 82.54 67.82
  A 0.66 0.66 0.0 0 0 81.24 67.81
  L 80.88 70.29
  A 0.66 0.66 0.0 0 1 80.31 70.85
  L 77.83 71.19
  A 0.66 0.66 0.0 0 0 77.82 72.49
  L 80.30 72.85
  A 0.66 0.66 0.0 0 1 80.86 73.42
  L 81.20 75.90
  A 0.66 0.66 0.0 0 0 82.50 75.91
  L 82.86 73.43
  A 0.66 0.66 0.0 0 1 83.43 72.87
  L 85.91 72.53
  A 0.66 0.66 0.0 0 0 85.92 71.23
  L 83.44 70.87
  Z
  M 108.95 74.70
  C 109.85 74.55 110.29 74.43 111.23 74.55
  Q 113.22 74.80 111.52 73.74
  Q 109.86 72.71 108.64 74.14
  Q 108.03 74.85 108.95 74.70
  Z
  M 121.03 74.21
  Q 120.17 72.66 119.07 73.65
  Q 118.30 74.35 119.29 74.65
  Q 120.12 74.91 120.87 74.63
  A 0.30 0.29 -24.7 0 0 121.03 74.21
  Z
  M 104.06 79.10
  Q 104.59 78.48 104.44 77.73
  Q 104.34 77.25 103.89 77.07
  L 100.74 75.80
  Q 100.03 75.51 100.20 76.26
  Q 100.85 79.07 100.90 81.63
  Q 100.97 84.93 102.95 82.29
  Q 103.71 81.29 103.75 79.89
  A 1.24 1.23 -23.9 0 1 104.06 79.10
  Z
  M 110.13 77.88
  Q 109.57 79.01 110.34 79.82
  Q 110.77 80.27 110.97 79.68
  Q 111.26 78.81 111.13 77.86
  A 0.53 0.52 -22.1 0 0 110.30 77.51
  Q 110.10 77.66 110.13 77.88
  Z
  M 119.61 78.88
  Q 119.11 79.17 119.39 79.66
  A 0.63 0.63 0.0 0 0 120.54 79.53
  Q 120.76 78.80 120.67 78.13
  Q 120.60 77.67 120.26 77.99
  Q 120.10 78.14 120.03 78.35
  Q 119.93 78.69 119.61 78.88
  Z
  M 115.47 78.04
  Q 115.13 78.21 115.32 78.53
  Q 117.21 81.77 117.11 84.66
  Q 117.06 86.06 117.70 84.82
  Q 118.33 83.59 117.69 81.91
  Q 116.91 79.87 115.96 77.98
  Q 115.89 77.84 115.75 77.91
  L 115.47 78.04
  Z
  M 98.87 82.51
  Q 98.95 82.30 98.89 82.10
  Q 98.46 80.55 97.99 82.09
  Q 97.63 83.30 98.50 84.14
  A 0.32 0.31 39.6 0 0 98.98 84.10
  Q 99.32 83.61 98.96 83.12
  Q 98.75 82.84 98.87 82.51
  Z
  M 15.31 90.69
  Q 15.04 90.22 15.01 89.65
  A 0.73 0.73 0.0 0 1 15.57 88.89
  Q 16.29 88.71 16.96 89.09
  Q 17.05 89.15 17.10 89.05
  L 17.23 88.75
  Q 17.27 88.66 17.20 88.59
  Q 16.10 87.36 14.89 88.06
  Q 14.12 88.51 14.26 89.45
  Q 14.42 90.48 14.84 91.38
  A 0.91 0.90 -23.6 0 1 14.36 92.60
  L 7.39 95.43
  A 3.27 3.27 0.0 0 0 5.66 99.85
  L 19.82 129.93
  A 1.14 1.14 0.0 0 0 21.36 130.47
  Q 27.40 127.47 33.16 124.93
  Q 34.11 124.51 34.32 123.66
  Q 34.50 122.93 33.82 123.25
  L 21.90 128.84
  A 1.32 1.32 0.0 0 1 20.11 128.12
  C 18.22 123.25 15.72 118.80 13.59 114.20
  Q 10.22 106.90 6.62 99.47
  A 2.35 2.35 0.0 0 1 7.51 96.44
  C 9.98 94.94 12.71 95.02 15.31 93.79
  Q 19.57 91.76 23.15 89.20
  Q 24.92 87.94 27.06 87.13
  A 1.31 1.31 0.0 0 1 28.72 87.79
  L 39.09 109.78
  Q 39.35 110.33 39.83 109.95
  Q 40.34 109.54 40.01 108.98
  C 36.02 102.10 32.84 94.97 29.61 87.13
  A 1.63 1.62 -22.5 0 0 27.48 86.25
  Q 23.77 87.80 20.09 89.83
  Q 18.27 90.83 16.05 91.08
  Q 15.55 91.14 15.31 90.69
  Z
  M 115.4590 88.8113
  A 2.02 0.56 37.2 0 0 114.1886 87.1439
  A 2.02 0.56 37.2 0 0 112.2410 86.3687
  A 2.02 0.56 37.2 0 0 113.5114 88.0361
  A 2.02 0.56 37.2 0 0 115.4590 88.8113
  Z
  M 117.18 97.79
  L 117.18 97.48
  A 0.38 0.38 0.0 0 0 116.84 97.10
  Q 113.57 96.70 110.60 95.15
  Q 108.74 94.19 110.13 95.75
  Q 111.98 97.81 116.47 98.41
  Q 117.18 98.50 117.18 97.79
  Z
  M 17.69 148.07
  L 18.90 151.46
  A 0.13 0.13 0.0 0 0 19.07 151.53
  L 19.10 151.52
  A 1.83 1.80 70.3 0 0 20.18 149.19
  L 20.11 149.01
  A 1.83 1.80 70.3 0 0 17.80 147.89
  L 17.77 147.90
  A 0.13 0.13 0.0 0 0 17.69 148.07
  Z"
/>
<path fill="#b9d5ff" d="
  M 176.27 105.34
  L 167.38 102.72
  Q 167.28 101.94 167.31 101.15
  Q 167.36 100.06 166.96 99.73
  Q 166.37 99.22 165.04 99.35
  Q 166.87 99.64 167.20 98.25
  Q 173.26 96.25 172.87 89.50
  Q 172.34 80.29 172.04 77.39
  Q 171.99 76.87 171.50 76.68
  Q 171.11 76.53 170.67 76.62
  Q 170.29 76.71 170.18 77.08
  L 170.05 77.48
  Q 169.57 76.75 169.03 76.93
  Q 169.66 76.61 169.30 76.30
  Q 173.60 77.56 174.92 73.41
  Q 175.89 70.38 172.69 69.46
  Q 170.47 68.81 169.18 66.95
  C 167.57 64.61 164.76 63.80 162.32 65.51
  Q 160.21 66.98 158.10 66.64
  C 155.34 66.18 152.97 67.63 152.60 70.53
  C 152.33 72.61 150.51 75.23 151.23 77.26
  Q 152.32 80.33 152.63 82.61
  Q 148.20 84.08 149.94 88.32
  Q 150.14 88.81 150.64 88.98
  L 152.17 89.47
  A 1.33 1.32 9.1 0 1 153.09 90.73
  L 153.02 103.14
  Q 146.49 102.73 140.22 107.63
  Q 131.34 104.17 124.97 96.28
  C 123.95 95.01 122.80 93.83 123.19 92.08
  C 124.07 88.19 123.28 84.59 123.62 80.60
  Q 123.81 78.41 123.67 76.26
  Q 124.09 67.19 116.32 65.20
  Q 119.47 46.09 134.97 36.69
  C 162.86 19.77 198.17 40.41 196.45 73.24
  C 195.92 83.51 191.86 92.08 184.58 99.57
  Q 180.60 103.66 176.27 105.34
  Z
  M 139.01 48.54
  A 0.95 0.94 -40.1 0 1 137.45 48.41
  Q 134.93 43.93 130.75 45.72
  C 127.27 47.22 126.72 51.49 127.92 54.68
  Q 129.85 59.84 135.38 62.80
  C 137.13 63.73 138.71 63.03 140.32 62.25
  Q 145.28 59.84 147.47 55.72
  C 150.80 49.45 143.93 42.41 139.01 48.54
  Z
  M 184.45 71.64
  Q 181.93 71.62 180.90 74.09
  Q 178.87 78.95 177.00 83.91
  A 1.39 1.39 0.0 0 0 177.79 85.68
  L 185.71 88.82
  A 1.92 1.92 0.0 0 0 188.21 87.72
  Q 189.87 83.35 191.89 78.36
  Q 192.87 75.95 191.08 74.14
  Q 190.31 73.37 191.28 72.89
  Q 192.44 72.32 192.14 71.27
  Q 191.92 70.49 191.03 70.22
  Q 188.71 69.51 186.79 68.65
  Q 186.26 68.41 185.88 68.85
  Q 185.14 69.70 185.23 70.79
  Q 185.31 71.65 184.45 71.64
  Z"
/>
<path fill="#ebebeb" d="
  M 50.78 50.62
  Q 51.52 50.45 52.04 49.90
  A 0.98 0.98 0.0 0 1 53.74 50.49
  Q 53.97 53.78 53.26 56.81
  A 0.95 0.94 -80.6 0 1 52.25 57.54
  Q 48.38 57.14 44.09 58.50
  C 42.28 59.07 39.99 58.37 39.86 56.15
  Q 39.67 52.84 40.21 50.45
  Q 40.36 49.79 41.02 49.66
  L 44.37 49.00
  A 0.78 0.78 0.0 0 0 45.00 48.27
  L 45.16 44.88
  Q 45.16 44.68 45.21 44.67
  L 45.48 44.61
  A 0.45 0.44 -16.2 0 1 46.01 44.90
  Q 47.14 48.13 49.80 50.38
  Q 50.23 50.75 50.78 50.62
  Z"
/>
<path fill="#428dff" d="
  M 139.01 48.54
  C 143.93 42.41 150.80 49.45 147.47 55.72
  Q 145.28 59.84 140.32 62.25
  C 138.71 63.03 137.13 63.73 135.38 62.80
  Q 129.85 59.84 127.92 54.68
  C 126.72 51.49 127.27 47.22 130.75 45.72
  Q 134.93 43.93 137.45 48.41
  A 0.95 0.94 -40.1 0 0 139.01 48.54
  Z"
/>
<path fill="#283239" d="
  M 169.30 76.30
  L 165.95 74.40
  Q 165.51 74.15 165.01 74.18
  Q 163.12 74.28 161.26 75.07
  A 1.44 1.43 50.9 0 1 159.86 74.92
  L 157.74 73.43
  Q 155.43 71.79 155.56 74.62
  C 155.66 76.65 156.15 77.86 154.70 79.62
  C 153.57 80.99 153.94 83.13 154.28 84.76
  A 0.29 0.27 -24.1 0 1 154.16 85.05
  L 153.82 85.30
  Q 153.45 85.56 153.33 85.13
  L 152.63 82.61
  Q 152.32 80.33 151.23 77.26
  C 150.51 75.23 152.33 72.61 152.60 70.53
  C 152.97 67.63 155.34 66.18 158.10 66.64
  Q 160.21 66.98 162.32 65.51
  C 164.76 63.80 167.57 64.61 169.18 66.95
  Q 170.47 68.81 172.69 69.46
  Q 175.89 70.38 174.92 73.41
  Q 173.60 77.56 169.30 76.30
  Z"
/>
<path fill="#283239" d="
  M 116.32 65.20
  Q 124.09 67.19 123.67 76.26
  Q 122.98 71.45 119.89 67.95
  A 0.81 0.80 32.2 0 0 118.51 68.26
  Q 117.78 70.83 115.46 69.84
  C 113.76 69.12 112.68 67.42 110.79 67.11
  C 106.80 66.47 104.08 70.95 104.51 74.47
  A 0.52 0.52 0.0 0 1 103.70 74.96
  Q 102.66 74.25 101.37 74.02
  A 1.12 1.12 0.0 0 1 100.54 72.47
  Q 104.72 62.81 116.32 65.20
  Z"
/>
<path fill="#283239" d="
  M 67.74 97.21
  Q 64.79 97.55 63.24 99.99
  Q 62.96 100.21 62.26 100.27
  Q 61.69 99.89 62.23 98.47
  A 1.82 1.82 0.0 0 0 61.58 96.32
  Q 57.74 93.63 59.29 89.08
  C 60.33 86.02 58.36 84.68 56.31 83.14
  A 1.24 1.24 0.0 0 0 54.32 84.07
  L 54.23 86.01
  Q 54.22 86.12 54.11 86.13
  L 53.79 86.17
  Q 53.44 86.21 53.47 85.86
  Q 53.62 84.28 53.11 82.81
  Q 52.92 82.25 53.51 82.28
  Q 54.30 82.32 54.89 81.81
  A 1.05 1.04 69.4 0 0 55.24 81.03
  C 55.17 75.65 50.66 76.38 47.62 73.45
  Q 47.22 73.07 46.80 73.42
  Q 43.34 76.31 42.86 80.44
  Q 42.19 86.21 42.45 92.14
  C 42.62 96.16 44.29 99.20 48.23 100.89
  Q 49.77 101.56 51.39 101.05
  Q 53.53 100.39 55.42 99.52
  Q 55.57 99.45 55.65 99.60
  L 55.66 99.60
  Q 55.71 99.70 55.62 99.76
  Q 54.39 100.64 53.20 101.40
  Q 52.62 101.77 53.26 102.02
  Q 53.71 102.21 54.50 102.19
  L 48.88 102.35
  Q 48.96 101.96 48.50 101.87
  C 45.81 101.34 43.51 100.08 42.39 97.51
  C 41.00 94.34 39.06 88.54 40.63 85.09
  Q 41.67 82.79 41.71 80.33
  C 41.76 77.20 43.49 75.38 44.45 72.63
  C 46.18 67.67 50.94 65.89 55.77 68.15
  C 58.06 69.23 59.03 71.68 61.48 72.73
  Q 62.94 73.35 64.37 73.85
  A 2.65 2.64 -79.9 0 1 66.14 76.39
  Q 66.11 78.88 68.06 80.39
  A 3.23 3.23 0.0 0 1 69.11 84.06
  Q 68.24 86.43 69.87 88.47
  A 1.96 1.93 25.7 0 1 70.31 89.70
  Q 70.33 94.05 67.74 97.21
  Z"
/>
<path fill="#428dff" d="
  M 83.44 70.87
  L 85.92 71.23
  A 0.66 0.66 0.0 0 1 85.91 72.53
  L 83.43 72.87
  A 0.66 0.66 0.0 0 0 82.86 73.43
  L 82.50 75.91
  A 0.66 0.66 0.0 0 1 81.20 75.90
  L 80.86 73.42
  A 0.66 0.66 0.0 0 0 80.30 72.85
  L 77.82 72.49
  A 0.66 0.66 0.0 0 1 77.83 71.19
  L 80.31 70.85
  A 0.66 0.66 0.0 0 0 80.88 70.29
  L 81.24 67.81
  A 0.66 0.66 0.0 0 1 82.54 67.82
  L 82.88 70.30
  A 0.66 0.66 0.0 0 0 83.44 70.87
  Z"
/>
<path fill="#ebebeb" d="
  M 185.23 70.79
  Q 185.14 69.70 185.88 68.85
  Q 186.26 68.41 186.79 68.65
  Q 188.71 69.51 191.03 70.22
  Q 191.92 70.49 192.14 71.27
  Q 192.44 72.32 191.28 72.89
  Q 190.31 73.37 191.08 74.14
  Q 192.87 75.95 191.89 78.36
  Q 189.87 83.35 188.21 87.72
  A 1.92 1.92 0.0 0 1 185.71 88.82
  L 177.79 85.68
  A 1.39 1.39 0.0 0 1 177.00 83.91
  Q 178.87 78.95 180.90 74.09
  Q 181.93 71.62 184.45 71.64
  Q 185.31 71.65 185.23 70.79
  Z"
/>
<path fill="#ffffff" d="
  M 169.30 76.30
  Q 169.66 76.61 169.03 76.93
  Q 168.40 77.15 168.52 77.77
  A 0.54 0.54 0.0 0 0 168.81 78.15
  Q 169.15 78.33 169.50 78.26
  A 0.46 0.45 -1.8 0 0 169.87 77.87
  Q 169.89 77.63 170.05 77.48
  L 170.18 77.08
  Q 170.29 76.71 170.67 76.62
  Q 171.11 76.53 171.50 76.68
  Q 171.99 76.87 172.04 77.39
  Q 172.34 80.29 172.87 89.50
  Q 173.26 96.25 167.20 98.25
  Q 163.54 98.03 161.51 96.92
  Q 158.95 95.52 160.94 97.65
  Q 162.18 98.99 165.04 99.35
  Q 166.37 99.22 166.96 99.73
  Q 167.36 100.06 167.31 101.15
  Q 167.28 101.94 167.38 102.72
  L 167.65 109.52
  A 0.78 0.78 0.0 0 1 166.58 110.27
  Q 159.03 107.30 153.02 103.14
  L 153.09 90.73
  A 1.33 1.32 9.1 0 0 152.17 89.47
  L 150.64 88.98
  Q 150.14 88.81 149.94 88.32
  Q 148.20 84.08 152.63 82.61
  L 153.33 85.13
  Q 153.45 85.56 153.82 85.30
  L 154.16 85.05
  A 0.29 0.27 -24.1 0 0 154.28 84.76
  C 153.94 83.13 153.57 80.99 154.70 79.62
  C 156.15 77.86 155.66 76.65 155.56 74.62
  Q 155.43 71.79 157.74 73.43
  L 159.86 74.92
  A 1.44 1.43 50.9 0 0 161.26 75.07
  Q 163.12 74.28 165.01 74.18
  Q 165.51 74.15 165.95 74.40
  L 169.30 76.30
  Z
  M 160.32 76.81
  Q 159.83 76.77 159.45 77.18
  Q 158.85 77.81 159.72 77.78
  L 161.41 77.73
  Q 162.02 77.71 161.88 77.12
  Q 161.79 76.73 161.41 76.62
  Q 161.01 76.50 160.66 76.72
  Q 160.51 76.82 160.32 76.81
  Z
  M 160.96 82.43
  Q 161.59 81.56 161.46 80.62
  Q 161.39 80.10 160.88 80.04
  Q 160.51 79.99 160.19 80.16
  Q 159.74 80.42 159.80 80.96
  Q 159.89 81.76 160.25 82.39
  A 0.43 0.42 47.9 0 0 160.96 82.43
  Z
  M 169.91 81.99
  Q 170.37 81.29 170.14 80.49
  Q 170.07 80.24 169.83 80.16
  Q 169.56 80.06 169.28 80.06
  Q 168.40 80.05 168.46 80.92
  Q 168.50 81.42 168.65 81.84
  A 0.71 0.71 0.0 0 0 169.91 81.99
  Z
  M 166.17 84.79
  L 166.29 87.49
  A 0.52 0.52 0.0 0 0 167.06 87.92
  L 167.30 87.78
  Q 167.98 87.41 167.93 86.64
  Q 167.76 83.87 165.89 81.26
  Q 165.42 80.60 165.37 81.41
  Q 165.29 82.82 165.96 84.03
  Q 166.16 84.38 166.17 84.79
  Z
  M 165.2967 90.7430
  A 1.80 0.71 38.6 0 0 164.3330 89.0651
  A 1.80 0.71 38.6 0 0 162.4833 88.4970
  A 1.80 0.71 38.6 0 0 163.4470 90.1749
  A 1.80 0.71 38.6 0 0 165.2967 90.7430
  Z"
/>
<path fill="#ffffff" d="
  M 62.26 100.27
  L 62.53 100.89
  Q 62.74 101.38 62.21 101.42
  L 61.71 101.46
  L 54.50 102.19
  Q 53.71 102.21 53.26 102.02
  Q 52.62 101.77 53.20 101.40
  Q 54.39 100.64 55.62 99.76
  Q 55.71 99.70 55.66 99.60
  L 55.65 99.60
  Q 55.57 99.45 55.42 99.52
  Q 53.53 100.39 51.39 101.05
  Q 49.77 101.56 48.23 100.89
  C 44.29 99.20 42.62 96.16 42.45 92.14
  Q 42.19 86.21 42.86 80.44
  Q 43.34 76.31 46.80 73.42
  Q 47.22 73.07 47.62 73.45
  C 50.66 76.38 55.17 75.65 55.24 81.03
  A 1.05 1.04 69.4 0 1 54.89 81.81
  Q 54.30 82.32 53.51 82.28
  Q 52.92 82.25 53.11 82.81
  Q 53.62 84.28 53.47 85.86
  Q 53.44 86.21 53.79 86.17
  L 54.11 86.13
  Q 54.22 86.12 54.23 86.01
  L 54.32 84.07
  A 1.24 1.24 0.0 0 1 56.31 83.14
  C 58.36 84.68 60.33 86.02 59.29 89.08
  Q 57.74 93.63 61.58 96.32
  A 1.82 1.82 0.0 0 1 62.23 98.47
  Q 61.69 99.89 62.26 100.27
  Z
  M 46.7042 81.3400
  A 0.87 0.71 6.6 0 0 45.9216 80.5347
  A 0.87 0.71 6.6 0 0 44.9758 81.1400
  A 0.87 0.71 6.6 0 0 45.7584 81.9453
  A 0.87 0.71 6.6 0 0 46.7042 81.3400
  Z
  M 45.2116 85.7215
  A 1.10 0.63 105.2 0 0 46.1080 84.8252
  A 1.10 0.63 105.2 0 0 45.7884 83.5985
  A 1.10 0.63 105.2 0 0 44.8920 84.4948
  A 1.10 0.63 105.2 0 0 45.2116 85.7215
  Z
  M 48.61 85.80
  Q 47.49 88.00 47.32 90.18
  Q 47.31 90.37 47.50 90.39
  L 47.75 90.42
  Q 47.93 90.44 47.93 90.26
  Q 47.95 88.02 49.10 85.79
  Q 49.33 85.33 49.26 84.79
  Q 49.14 83.85 48.97 84.78
  Q 48.86 85.31 48.61 85.80
  Z
  M 51.9968 91.8564
  A 1.46 0.50 -41.3 0 0 50.5700 92.4444
  A 1.46 0.50 -41.3 0 0 49.8032 93.7836
  A 1.46 0.50 -41.3 0 0 51.2300 93.1956
  A 1.46 0.50 -41.3 0 0 51.9968 91.8564
  Z"
/>
<path fill="#283239" d="
  M 111.23 74.55
  C 110.29 74.43 109.85 74.55 108.95 74.70
  Q 108.03 74.85 108.64 74.14
  Q 109.86 72.71 111.52 73.74
  Q 113.22 74.80 111.23 74.55
  Z"
/>
<path fill="#283239" d="
  M 121.03 74.21
  A 0.30 0.29 -24.7 0 1 120.87 74.63
  Q 120.12 74.91 119.29 74.65
  Q 118.30 74.35 119.07 73.65
  Q 120.17 72.66 121.03 74.21
  Z"
/>
<path fill="#283239" d="
  M 103.75 79.89
  Q 103.71 81.29 102.95 82.29
  Q 100.97 84.93 100.90 81.63
  Q 100.85 79.07 100.20 76.26
  Q 100.03 75.51 100.74 75.80
  L 103.89 77.07
  Q 104.34 77.25 104.44 77.73
  Q 104.59 78.48 104.06 79.10
  A 1.24 1.23 -23.9 0 0 103.75 79.89
  Z"
/>
<path fill="#283239" d="
  M 160.66 76.72
  Q 161.01 76.50 161.41 76.62
  Q 161.79 76.73 161.88 77.12
  Q 162.02 77.71 161.41 77.73
  L 159.72 77.78
  Q 158.85 77.81 159.45 77.18
  Q 159.83 76.77 160.32 76.81
  Q 160.51 76.82 160.66 76.72
  Z"
/>
<path fill="#283239" d="
  M 169.03 76.93
  Q 169.57 76.75 170.05 77.48
  Q 169.89 77.63 169.87 77.87
  A 0.46 0.45 -1.8 0 1 169.50 78.26
  Q 169.15 78.33 168.81 78.15
  A 0.54 0.54 0.0 0 1 168.52 77.77
  Q 168.40 77.15 169.03 76.93
  Z"
/>
<path fill="#283239" d="
  M 110.13 77.88
  Q 110.10 77.66 110.30 77.51
  A 0.53 0.52 -22.1 0 1 111.13 77.86
  Q 111.26 78.81 110.97 79.68
  Q 110.77 80.27 110.34 79.82
  Q 109.57 79.01 110.13 77.88
  Z"
/>
<path fill="#283239" d="
  M 120.03 78.35
  Q 120.10 78.14 120.26 77.99
  Q 120.60 77.67 120.67 78.13
  Q 120.76 78.80 120.54 79.53
  A 0.63 0.63 0.0 0 1 119.39 79.66
  Q 119.11 79.17 119.61 78.88
  Q 119.93 78.69 120.03 78.35
  Z"
/>
<path fill="#949698" d="
  M 115.96 77.98
  Q 116.91 79.87 117.69 81.91
  Q 118.33 83.59 117.70 84.82
  Q 117.06 86.06 117.11 84.66
  Q 117.21 81.77 115.32 78.53
  Q 115.13 78.21 115.47 78.04
  L 115.75 77.91
  Q 115.89 77.84 115.96 77.98
  Z"
/>
<path fill="#283239" d="
  M 160.96 82.43
  A 0.43 0.42 47.9 0 1 160.25 82.39
  Q 159.89 81.76 159.80 80.96
  Q 159.74 80.42 160.19 80.16
  Q 160.51 79.99 160.88 80.04
  Q 161.39 80.10 161.46 80.62
  Q 161.59 81.56 160.96 82.43
  Z"
/>
<path fill="#283239" d="
  M 169.91 81.99
  A 0.71 0.71 0.0 0 1 168.65 81.84
  Q 168.50 81.42 168.46 80.92
  Q 168.40 80.05 169.28 80.06
  Q 169.56 80.06 169.83 80.16
  Q 170.07 80.24 170.14 80.49
  Q 170.37 81.29 169.91 81.99
  Z"
/>
<ellipse fill="#283239" cx="0.00" cy="0.00" transform="translate(45.84,81.24) rotate(6.6)" rx="0.87" ry="0.71"/>
<path fill="#ebebeb" d="
  M 165.96 84.03
  Q 165.29 82.82 165.37 81.41
  Q 165.42 80.60 165.89 81.26
  Q 167.76 83.87 167.93 86.64
  Q 167.98 87.41 167.30 87.78
  L 167.06 87.92
  A 0.52 0.52 0.0 0 1 166.29 87.49
  L 166.17 84.79
  Q 166.16 84.38 165.96 84.03
  Z"
/>
<path fill="#949698" d="
  M 98.96 83.12
  Q 99.32 83.61 98.98 84.10
  A 0.32 0.31 39.6 0 1 98.50 84.14
  Q 97.63 83.30 97.99 82.09
  Q 98.46 80.55 98.89 82.10
  Q 98.95 82.30 98.87 82.51
  Q 98.75 82.84 98.96 83.12
  Z"
/>
<ellipse fill="#283239" cx="0.00" cy="0.00" transform="translate(45.50,84.66) rotate(105.2)" rx="1.10" ry="0.63"/>
<path fill="#283239" d="
  M 48.61 85.80
  Q 48.86 85.31 48.97 84.78
  Q 49.14 83.85 49.26 84.79
  Q 49.33 85.33 49.10 85.79
  Q 47.95 88.02 47.93 90.26
  Q 47.93 90.44 47.75 90.42
  L 47.50 90.39
  Q 47.31 90.37 47.32 90.18
  Q 47.49 88.00 48.61 85.80
  Z"
/>
<path fill="#ebebeb" d="
  M 16.05 91.08
  Q 18.27 90.83 20.09 89.83
  Q 23.77 87.80 27.48 86.25
  A 1.63 1.62 -22.5 0 1 29.61 87.13
  C 32.84 94.97 36.02 102.10 40.01 108.98
  Q 40.34 109.54 39.83 109.95
  Q 39.35 110.33 39.09 109.78
  L 28.72 87.79
  A 1.31 1.31 0.0 0 0 27.06 87.13
  Q 24.92 87.94 23.15 89.20
  Q 19.57 91.76 15.31 93.79
  C 12.71 95.02 9.98 94.94 7.51 96.44
  A 2.35 2.35 0.0 0 0 6.62 99.47
  Q 10.22 106.90 13.59 114.20
  C 15.72 118.80 18.22 123.25 20.11 128.12
  A 1.32 1.32 0.0 0 0 21.90 128.84
  L 33.82 123.25
  Q 34.50 122.93 34.32 123.66
  Q 34.11 124.51 33.16 124.93
  Q 27.40 127.47 21.36 130.47
  A 1.14 1.14 0.0 0 1 19.82 129.93
  L 5.66 99.85
  A 3.27 3.27 0.0 0 1 7.39 95.43
  L 14.36 92.60
  A 0.91 0.90 -23.6 0 0 14.84 91.38
  Q 14.42 90.48 14.26 89.45
  Q 14.12 88.51 14.89 88.06
  Q 16.10 87.36 17.20 88.59
  Q 17.27 88.66 17.23 88.75
  L 17.10 89.05
  Q 17.05 89.15 16.96 89.09
  Q 16.29 88.71 15.57 88.89
  A 0.73 0.73 0.0 0 0 15.01 89.65
  Q 15.04 90.22 15.31 90.69
  Q 15.55 91.14 16.05 91.08
  Z"
/>
<ellipse fill="#949698" cx="0.00" cy="0.00" transform="translate(113.85,87.59) rotate(37.2)" rx="2.02" ry="0.56"/>
<ellipse fill="#949698" cx="0.00" cy="0.00" transform="translate(163.89,89.62) rotate(38.6)" rx="1.80" ry="0.71"/>
<ellipse fill="#949698" cx="0.00" cy="0.00" transform="translate(50.90,92.82) rotate(-41.3)" rx="1.46" ry="0.50"/>
<path fill="#949698" d="
  M 116.47 98.41
  Q 111.98 97.81 110.13 95.75
  Q 108.74 94.19 110.60 95.15
  Q 113.57 96.70 116.84 97.10
  A 0.38 0.38 0.0 0 1 117.18 97.48
  L 117.18 97.79
  Q 117.18 98.50 116.47 98.41
  Z"
/>
<path fill="#949698" d="
  M 167.20 98.25
  Q 166.87 99.64 165.04 99.35
  Q 162.18 98.99 160.94 97.65
  Q 158.95 95.52 161.51 96.92
  Q 163.54 98.03 167.20 98.25
  Z"
/>
<path fill="#428dff" d="
  M 67.74 97.21
  Q 67.76 98.52 68.76 99.68
  Q 68.19 99.48 68.00 99.75
  Q 66.59 101.76 64.06 101.25
  Q 63.96 100.51 63.24 99.99
  Q 64.79 97.55 67.74 97.21
  Z"
/>
<path fill="#ebebeb" d="
  M 100.76 99.03
  Q 101.15 101.61 101.37 103.92
  Q 101.63 106.54 102.42 108.69
  Q 106.14 118.83 110.12 128.88
  Q 110.66 130.25 110.79 131.48
  Q 111.01 133.54 111.53 131.53
  Q 113.58 123.63 115.23 116.81
  Q 115.99 113.63 116.56 108.58
  Q 117.02 104.45 117.87 100.33
  L 136.45 111.72
  Q 139.32 116.23 139.54 118.99
  Q 140.02 125.19 140.33 131.19
  Q 140.30 134.55 140.55 137.90
  Q 140.91 142.78 140.62 144.59
  C 140.03 148.19 137.67 153.51 134.04 155.13
  Q 133.15 155.52 132.38 156.05
  Q 131.94 156.35 131.91 156.88
  L 131.43 165.29
  A 0.86 0.86 0.0 0 0 132.29 166.20
  L 138.70 166.19
  A 0.90 0.90 0.0 0 1 139.53 166.74
  L 139.68 167.10
  A 0.36 0.35 -11.4 0 1 139.35 167.59
  Q 110.49 167.56 83.76 167.40
  Q 73.56 167.34 62.00 167.04
  Q 60.86 167.01 59.80 166.55
  Q 60.05 166.59 60.26 166.55
  Q 60.80 166.44 60.73 165.89
  L 59.58 156.66
  L 59.64 155.40
  Q 59.67 154.89 59.15 154.84
  L 55.50 154.55
  L 52.47 153.89
  L 53.21 153.87
  Q 53.79 153.86 53.71 153.28
  L 52.71 145.85
  L 58.23 145.01
  Q 58.71 144.94 58.68 144.46
  C 58.29 138.27 57.67 132.51 58.93 126.16
  Q 60.64 117.59 62.41 108.56
  Q 62.76 106.77 62.43 104.99
  Q 62.11 103.24 61.71 101.46
  L 62.21 101.42
  Q 62.74 101.38 62.53 100.89
  L 62.26 100.27
  Q 62.96 100.21 63.24 99.99
  Q 63.96 100.51 64.06 101.25
  Q 63.17 101.95 63.35 102.73
  Q 63.47 103.27 64.29 103.74
  Q 68.70 106.27 73.74 108.23
  C 75.99 109.11 77.69 110.47 79.08 112.41
  Q 80.70 114.69 80.53 111.90
  L 80.34 108.71
  Q 80.60 110.41 81.96 110.60
  A 1.20 1.20 0.0 0 0 82.86 110.36
  Q 87.48 106.80 92.01 104.82
  C 94.14 103.88 95.42 102.00 97.27 100.54
  Q 98.39 99.66 100.76 99.03
  Z
  M 62.84 124.40
  L 62.90 131.66
  A 0.11 0.11 0.0 0 0 63.01 131.76
  L 63.09 131.76
  A 3.59 1.43 89.6 0 0 64.49 128.16
  L 64.49 127.86
  A 3.59 1.43 89.6 0 0 63.03 124.28
  L 62.95 124.28
  A 0.11 0.11 0.0 0 0 62.84 124.40
  Z
  M 128.26 130.82
  Q 127.99 130.97 127.70 130.83
  Q 127.24 130.60 126.79 130.86
  Q 124.50 132.17 122.94 134.42
  Q 122.51 135.05 121.75 135.28
  Q 121.25 135.44 121.47 135.92
  Q 121.56 136.11 121.70 136.27
  Q 121.95 136.54 122.30 136.61
  Q 126.83 137.53 130.98 137.39
  Q 131.86 137.35 132.45 136.74
  C 133.71 135.44 135.73 134.30 137.16 133.20
  A 0.64 0.64 0.0 0 0 137.26 132.28
  L 135.77 130.56
  A 0.96 0.96 0.0 0 0 135.24 130.24
  L 129.98 129.05
  Q 129.47 128.93 129.27 129.43
  Q 129.04 130.00 128.63 130.51
  Q 128.47 130.71 128.26 130.82
  Z
  M 119.22 137.05
  A 0.82 0.81 18.7 0 0 120.20 136.57
  Q 120.43 135.99 120.25 135.35
  Q 120.10 134.83 119.55 134.82
  Q 118.84 134.80 118.23 135.16
  Q 117.70 135.47 117.94 136.03
  Q 118.26 136.77 119.22 137.05
  Z
  M 101.15 144.24
  L 101.64 137.28
  A 0.28 0.28 0.0 0 0 101.39 136.98
  L 100.97 136.95
  A 10.66 3.49 4.1 0 0 90.08 139.66
  L 90.04 140.22
  A 10.66 3.49 4.1 0 0 100.43 144.47
  L 100.85 144.50
  A 0.28 0.28 0.0 0 0 101.15 144.24
  Z
  M 74.17 156.00
  A 0.80 0.79 -21.9 0 0 73.72 157.04
  L 76.75 164.45
  A 2.29 2.29 0.0 0 0 78.90 165.87
  L 84.69 165.82
  Q 85.44 165.81 85.46 165.06
  L 85.55 158.72
  A 0.99 0.98 -83.6 0 0 84.78 157.74
  Q 81.56 157.04 78.40 155.69
  C 76.96 155.07 75.54 155.46 74.17 156.00
  Z"
/>
<path fill="#428dff" d="
  M 100.76 99.03
  Q 104.34 106.46 112.02 105.16
  C 114.06 104.81 115.23 104.14 116.32 102.21
  Q 116.95 101.08 117.87 100.33
  Q 117.02 104.45 116.56 108.58
  Q 115.99 113.63 115.23 116.81
  Q 113.58 123.63 111.53 131.53
  Q 111.01 133.54 110.79 131.48
  Q 110.66 130.25 110.12 128.88
  Q 106.14 118.83 102.42 108.69
  Q 101.63 106.54 101.37 103.92
  Q 101.15 101.61 100.76 99.03
  Z"
/>
<path fill="#283239" d="
  M 68.76 99.68
  Q 70.32 101.04 71.46 102.83
  Q 72.60 104.62 73.64 105.18
  C 76.13 106.52 79.38 105.22 80.34 108.71
  L 80.53 111.90
  Q 80.70 114.69 79.08 112.41
  C 77.69 110.47 75.99 109.11 73.74 108.23
  Q 68.70 106.27 64.29 103.74
  Q 63.47 103.27 63.35 102.73
  Q 63.17 101.95 64.06 101.25
  Q 66.59 101.76 68.00 99.75
  Q 68.19 99.48 68.76 99.68
  Z"
/>
<path fill="#428dff" d="
  M 61.71 101.46
  Q 62.11 103.24 62.43 104.99
  Q 62.76 106.77 62.41 108.56
  Q 60.64 117.59 58.93 126.16
  C 57.67 132.51 58.29 138.27 58.68 144.46
  Q 58.71 144.94 58.23 145.01
  L 52.71 145.85
  Q 49.68 144.96 47.05 142.18
  Q 46.41 141.50 44.82 141.23
  Q 47.65 138.23 50.98 135.50
  Q 51.71 134.90 51.12 134.27
  Q 50.77 133.90 50.36 134.21
  L 44.77 138.46
  L 46.03 108.05
  Q 46.05 107.54 46.37 107.15
  Q 48.01 105.13 48.88 102.35
  L 54.50 102.19
  L 61.71 101.46
  Z
  M 58.35 104.70
  C 55.62 105.55 52.96 106.26 50.20 106.22
  Q 47.94 106.19 49.21 108.06
  Q 49.73 108.81 50.68 108.68
  Q 51.29 108.60 51.84 108.34
  Q 55.17 106.81 58.60 105.45
  Q 58.97 105.30 58.72 105.00
  L 58.51 104.75
  Q 58.44 104.67 58.35 104.70
  Z"
/>
<path fill="#428dff" d="
  M 176.27 105.34
  Q 181.13 108.12 183.28 114.00
  Q 186.10 121.69 188.98 129.29
  Q 189.67 130.27 189.68 131.14
  Q 189.69 131.70 189.16 131.85
  L 186.79 132.52
  L 180.23 133.19
  L 181.39 127.15
  Q 181.52 126.47 180.84 126.47
  C 177.20 126.48 173.77 127.33 170.41 125.57
  C 169.09 124.88 167.29 124.82 166.20 126.01
  Q 165.82 126.42 165.28 126.57
  Q 160.67 127.84 156.51 127.63
  A 1.99 1.99 0.0 0 0 154.45 129.25
  L 152.13 141.58
  L 144.79 142.74
  Q 144.34 142.81 144.38 142.35
  L 145.14 132.83
  Q 145.19 132.27 144.69 132.02
  Q 142.83 131.07 140.33 131.19
  Q 140.02 125.19 139.54 118.99
  Q 139.32 116.23 136.45 111.72
  L 140.22 107.63
  Q 146.49 102.73 153.02 103.14
  Q 159.03 107.30 166.58 110.27
  A 0.78 0.78 0.0 0 0 167.65 109.52
  L 167.38 102.72
  L 176.27 105.34
  Z
  M 151.0008 105.9715
  A 0.31 0.31 0.0 0 0 150.7208 105.6342
  L 150.3424 105.5991
  A 0.31 0.31 0.0 0 0 150.0051 105.8791
  L 148.4792 122.3285
  A 0.31 0.31 0.0 0 0 148.7592 122.6658
  L 149.1376 122.7009
  A 0.31 0.31 0.0 0 0 149.4749 122.4209
  L 151.0008 105.9715
  Z
  M 171.08 115.59
  Q 171.18 114.50 171.05 113.25
  Q 170.96 112.27 170.73 113.23
  L 170.19 115.52
  Q 170.06 116.07 169.57 116.37
  C 168.14 117.21 166.97 117.58 166.76 119.51
  Q 166.64 120.59 167.08 119.59
  C 167.65 118.29 168.58 117.36 170.03 117.08
  C 171.47 116.81 172.57 118.23 173.19 119.33
  Q 173.42 119.73 173.37 120.18
  Q 173.35 120.40 173.42 120.56
  Q 173.83 121.51 173.90 120.47
  Q 174.06 117.96 171.62 116.61
  Q 171.02 116.27 171.08 115.59
  Z
  M 159.1358 125.6633
  A 0.71 0.71 0.0 0 0 158.4562 124.9242
  L 150.1834 124.5775
  A 0.71 0.71 0.0 0 0 149.4443 125.2571
  L 149.4242 125.7367
  A 0.71 0.71 0.0 0 0 150.1038 126.4758
  L 158.3766 126.8225
  A 0.71 0.71 0.0 0 0 159.1157 126.1429
  L 159.1358 125.6633
  Z
  M 148.8839 136.0270
  A 4.01 2.93 87.8 0 0 151.6578 131.9075
  A 4.01 2.93 87.8 0 0 148.5761 128.0130
  A 4.01 2.93 87.8 0 0 145.8022 132.1325
  A 4.01 2.93 87.8 0 0 148.8839 136.0270
  Z"
/>
<path fill="#2c5fb6" d="
  M 50.20 106.22
  C 52.96 106.26 55.62 105.55 58.35 104.70
  Q 58.44 104.67 58.51 104.75
  L 58.72 105.00
  Q 58.97 105.30 58.60 105.45
  Q 55.17 106.81 51.84 108.34
  Q 51.29 108.60 50.68 108.68
  Q 49.73 108.81 49.21 108.06
  Q 47.94 106.19 50.20 106.22
  Z"
/>
<rect fill="#2c5fb6" x="-0.50" y="-8.57" transform="translate(149.74,114.15) rotate(5.3)" width="1.00" height="17.14" rx="0.31"/>
<path fill="#2c5fb6" d="
  M 171.62 116.61
  Q 174.06 117.96 173.90 120.47
  Q 173.83 121.51 173.42 120.56
  Q 173.35 120.40 173.37 120.18
  Q 173.42 119.73 173.19 119.33
  C 172.57 118.23 171.47 116.81 170.03 117.08
  C 168.58 117.36 167.65 118.29 167.08 119.59
  Q 166.64 120.59 166.76 119.51
  C 166.97 117.58 168.14 117.21 169.57 116.37
  Q 170.06 116.07 170.19 115.52
  L 170.73 113.23
  Q 170.96 112.27 171.05 113.25
  Q 171.18 114.50 171.08 115.59
  Q 171.02 116.27 171.62 116.61
  Z"
/>
<path fill="#ebebeb" d="
  M 200.00 117.68
  L 200.00 126.75
  Q 198.38 129.66 197.01 130.60
  Q 192.59 133.61 197.88 134.36
  Q 198.91 134.51 200.00 135.77
  L 200.00 140.45
  Q 196.88 143.59 192.06 145.32
  Q 191.05 145.68 190.04 147.40
  Q 189.68 148.02 189.93 148.70
  C 191.16 151.98 195.82 149.39 198.14 148.36
  Q 199.32 147.83 200.00 149.67
  L 200.00 156.47
  Q 198.59 159.24 196.08 161.07
  Q 193.89 162.67 191.60 164.15
  C 190.76 164.69 189.41 165.13 188.62 165.92
  A 0.56 0.56 0.0 0 0 189.03 166.87
  L 199.27 166.69
  Q 199.41 166.68 199.42 166.83
  L 199.43 167.08
  Q 199.45 167.51 199.02 167.54
  Q 194.33 167.81 189.64 167.54
  Q 188.50 167.47 184.89 167.82
  Q 182.19 168.08 179.51 167.12
  L 179.41 156.98
  Q 180.74 157.58 181.79 157.01
  Q 182.65 156.56 182.78 155.67
  Q 183.54 150.70 180.97 147.79
  Q 180.60 147.38 181.01 147.01
  Q 181.17 146.86 181.39 146.90
  Q 181.55 146.92 181.69 147.01
  Q 184.37 148.75 184.19 152.28
  A 0.52 0.52 0.0 0 0 184.74 152.83
  Q 185.75 152.79 186.06 151.79
  Q 188.14 145.06 186.41 137.99
  Q 186.13 136.85 186.45 135.06
  Q 186.53 134.59 186.88 134.26
  Q 187.53 133.64 186.79 132.52
  L 189.16 131.85
  Q 189.69 131.70 189.68 131.14
  Q 189.67 130.27 188.98 129.29
  L 189.73 129.07
  Q 190.31 128.91 190.13 128.34
  Q 189.99 127.90 190.26 127.55
  Q 190.49 127.26 190.64 126.91
  C 191.85 124.10 193.50 119.75 196.09 117.98
  Q 198.80 116.13 200.00 117.68
  Z"
/>
<path fill="#428dff" d="
  M 62.84 124.40
  A 0.11 0.11 0.0 0 1 62.95 124.28
  L 63.03 124.28
  A 3.59 1.43 89.6 0 1 64.49 127.86
  L 64.49 128.16
  A 3.59 1.43 89.6 0 1 63.09 131.76
  L 63.01 131.76
  A 0.11 0.11 0.0 0 1 62.90 131.66
  L 62.84 124.40
  Z"
/>
<rect fill="#ebebeb" x="-4.85" y="-0.95" transform="translate(154.28,125.70) rotate(2.4)" width="9.70" height="1.90" rx="0.71"/>
<path fill="#283239" d="
  M 180.23 133.19
  Q 179.36 134.90 179.32 137.12
  A 0.48 0.48 0.0 0 1 178.53 137.47
  C 176.21 135.45 170.79 137.15 168.31 138.20
  C 163.32 140.33 157.49 140.95 152.13 141.58
  L 154.45 129.25
  A 1.99 1.99 0.0 0 1 156.51 127.63
  Q 160.67 127.84 165.28 126.57
  Q 165.82 126.42 166.20 126.01
  C 167.29 124.82 169.09 124.88 170.41 125.57
  C 173.77 127.33 177.20 126.48 180.84 126.47
  Q 181.52 126.47 181.39 127.15
  L 180.23 133.19
  Z"
/>
<path fill="#ffffff" d="
  M 200.00 126.75
  L 200.00 135.77
  Q 198.91 134.51 197.88 134.36
  Q 192.59 133.61 197.01 130.60
  Q 198.38 129.66 200.00 126.75
  Z"
/>
<ellipse fill="#ebebeb" cx="0.00" cy="0.00" transform="translate(148.73,132.02) rotate(87.8)" rx="4.01" ry="2.93"/>
<path fill="#ffffff" d="
  M 128.63 130.51
  Q 129.04 130.00 129.27 129.43
  Q 129.47 128.93 129.98 129.05
  L 135.24 130.24
  A 0.96 0.96 0.0 0 1 135.77 130.56
  L 137.26 132.28
  A 0.64 0.64 0.0 0 1 137.16 133.20
  C 135.73 134.30 133.71 135.44 132.45 136.74
  Q 131.86 137.35 130.98 137.39
  Q 126.83 137.53 122.30 136.61
  Q 121.95 136.54 121.70 136.27
  Q 121.56 136.11 121.47 135.92
  Q 121.25 135.44 121.75 135.28
  Q 122.51 135.05 122.94 134.42
  Q 124.50 132.17 126.79 130.86
  Q 127.24 130.60 127.70 130.83
  Q 127.99 130.97 128.26 130.82
  Q 128.47 130.71 128.63 130.51
  Z"
/>
<path fill="#949698" d="
  M 44.82 141.23
  Q 43.71 142.10 42.82 141.74
  A 0.58 0.58 0.0 0 1 42.69 140.74
  Q 44.58 139.28 44.77 138.46
  L 50.36 134.21
  Q 50.77 133.90 51.12 134.27
  Q 51.71 134.90 50.98 135.50
  Q 47.65 138.23 44.82 141.23
  Z"
/>
<path fill="#283239" d="
  M 119.22 137.05
  Q 118.26 136.77 117.94 136.03
  Q 117.70 135.47 118.23 135.16
  Q 118.84 134.80 119.55 134.82
  Q 120.10 134.83 120.25 135.35
  Q 120.43 135.99 120.20 136.57
  A 0.82 0.81 18.7 0 1 119.22 137.05
  Z"
/>
<path fill="#ffffff" d="
  M 101.15 144.24
  A 0.28 0.28 0.0 0 1 100.85 144.50
  L 100.43 144.47
  A 10.66 3.49 4.1 0 1 90.04 140.22
  L 90.08 139.66
  A 10.66 3.49 4.1 0 1 100.97 136.95
  L 101.39 136.98
  A 0.28 0.28 0.0 0 1 101.64 137.28
  L 101.15 144.24
  Z"
/>
<path fill="#ffffff" d="
  M 200.00 140.45
  L 200.00 149.67
  Q 199.32 147.83 198.14 148.36
  C 195.82 149.39 191.16 151.98 189.93 148.70
  Q 189.68 148.02 190.04 147.40
  Q 191.05 145.68 192.06 145.32
  Q 196.88 143.59 200.00 140.45
  Z"
/>
<path fill="#283239" d="
  M 52.47 153.89
  L 55.50 154.55
  L 55.84 155.44
  Q 56.05 156.00 55.46 155.92
  L 44.32 154.36
  Q 42.62 153.64 40.68 153.75
  Q 34.33 152.79 28.22 150.08
  Q 27.53 149.77 27.79 149.06
  C 28.03 148.39 28.26 147.58 27.75 146.97
  Q 27.52 146.69 27.15 146.73
  Q 26.76 146.76 26.50 147.03
  Q 26.04 147.52 25.64 148.09
  Q 24.56 149.62 24.68 147.75
  L 24.75 146.71
  A 0.99 0.99 0.0 0 0 23.17 145.85
  Q 22.54 146.31 22.19 147.00
  Q 21.94 147.51 21.37 147.47
  Q 20.88 147.44 20.52 147.08
  Q 20.10 146.66 19.54 146.48
  L 9.14 143.14
  Q 7.43 142.60 9.23 142.64
  L 29.14 143.07
  A 7.04 6.95 58.5 0 1 32.05 143.79
  L 52.47 153.89
  Z"
/>
<path fill="#283239" d="
  M 175.10 156.04
  Q 163.17 156.51 152.00 156.77
  Q 148.95 156.85 149.43 154.69
  Q 157.57 151.44 165.97 148.82
  Q 168.98 147.87 171.14 147.98
  Q 173.78 148.11 176.41 147.55
  Q 176.65 147.50 176.70 147.74
  L 176.76 148.00
  Q 176.77 148.04 176.68 148.07
  L 169.71 150.27
  A 0.52 0.52 0.0 0 0 169.52 151.16
  L 175.10 156.04
  Z"
/>
<path fill="#283239" d="
  M 17.69 148.07
  A 0.13 0.13 0.0 0 1 17.77 147.90
  L 17.80 147.89
  A 1.83 1.80 70.3 0 1 20.11 149.01
  L 20.18 149.19
  A 1.83 1.80 70.3 0 1 19.10 151.52
  L 19.07 151.53
  A 0.13 0.13 0.0 0 1 18.90 151.46
  L 17.69 148.07
  Z"
/>
<path fill="#ebebeb" d="
  M 40.68 153.75
  Q 42.62 153.64 44.32 154.36
  L 43.92 163.67
  L 43.48 166.73
  L 5.60 166.60
  Q 5.26 166.59 5.41 166.29
  L 5.61 165.89
  Q 5.67 165.77 5.81 165.77
  Q 19.46 165.78 33.00 165.78
  Q 34.52 165.78 35.56 165.12
  Q 35.90 164.91 35.97 164.52
  Q 36.72 160.30 39.16 156.40
  Q 39.62 155.65 40.47 155.68
  Q 41.00 155.69 41.12 155.18
  Q 41.33 154.29 40.68 153.75
  Z"
/>
<path fill="#2c5fb6" d="
  M 55.50 154.55
  L 59.15 154.84
  Q 59.67 154.89 59.64 155.40
  L 59.58 156.66
  Q 56.18 158.40 53.25 158.17
  Q 50.84 157.97 48.66 157.24
  A 1.97 1.96 10.1 0 0 46.07 159.04
  Q 45.97 162.22 43.92 163.67
  L 44.32 154.36
  L 55.46 155.92
  Q 56.05 156.00 55.84 155.44
  L 55.50 154.55
  Z"
/>
<path fill="#428dff" d="
  M 149.43 154.69
  Q 148.95 156.85 152.00 156.77
  Q 163.17 156.51 175.10 156.04
  Q 175.33 157.89 179.41 156.98
  L 179.51 167.12
  L 141.73 166.97
  Q 141.28 166.97 141.34 166.52
  L 142.40 157.66
  A 1.44 1.44 0.0 0 1 143.42 156.45
  L 149.43 154.69
  Z"
/>
<path fill="#ffffff" d="
  M 74.17 156.00
  C 75.54 155.46 76.96 155.07 78.40 155.69
  Q 81.56 157.04 84.78 157.74
  A 0.99 0.98 -83.6 0 1 85.55 158.72
  L 85.46 165.06
  Q 85.44 165.81 84.69 165.82
  L 78.90 165.87
  A 2.29 2.29 0.0 0 1 76.75 164.45
  L 73.72 157.04
  A 0.80 0.79 -21.9 0 1 74.17 156.00
  Z"
/>
<path fill="#428dff" d="
  M 59.58 156.66
  L 60.73 165.89
  Q 60.80 166.44 60.26 166.55
  Q 60.05 166.59 59.80 166.55
  L 43.48 166.73
  L 43.92 163.67
  Q 45.97 162.22 46.07 159.04
  A 1.97 1.96 10.1 0 1 48.66 157.24
  Q 50.84 157.97 53.25 158.17
  Q 56.18 158.40 59.58 156.66
  Z"
/>
</svg>
