<svg xmlns="http://www.w3.org/2000/svg" version="1.1" viewBox="0.00 0.00 512.00 512.00">
<g stroke-width="2.00" fill="none" stroke-linecap="butt">
<path stroke="#a837b0" vector-effect="non-scaling-stroke" d="   M 455.84 195.26   C 471.54 175.18 478.32 149.48 475.69 124.25   C 471.53 84.34 442.66 50.43 404.04 39.72   C 374.21 31.44 341.81 37.28 317.19 56.38   Q 311.54 60.76 302.45 69.84   Q 250.05 122.20 199.38 172.88   A 0.51 0.51 0.0 0 0 199.38 173.60   L 338.90 313.11   A 0.29 0.28 -44.3 0 0 339.31 313.11   Q 393.42 258.85 442.44 210.04   Q 450.74 201.78 455.84 195.26"/>
<path stroke="#f9aee9" vector-effect="non-scaling-stroke" d="   M 407.87 65.76   C 377.34 51.46 342.59 57.07 317.65 80.08   Q 313.92 83.52 312.30 87.18   C 308.21 96.42 312.72 107.49 322.15 111.11   C 329.58 113.97 336.85 111.87 342.34 106.40   Q 345.35 103.41 348.66 101.33   C 369.20 88.45 394.80 92.77 409.50 112.25   Q 412.43 116.14 414.87 117.94   C 424.43 125.06 439.48 120.49 442.61 108.50   Q 444.77 100.28 440.84 94.27   Q 428.49 75.41 407.87 65.76"/>
</g>
<path fill="#212121" d="   M 372.62 0.00   L 382.24 0.00   Q 432.71 2.46 468.64 35.61   Q 507.17 71.15 512.00 124.87   L 512.00 145.25   Q 507.46 195.83 471.40 231.90   Q 351.67 351.67 231.93 471.43   Q 193.98 509.39 139.88 512.00   L 130.75 512.00   Q 76.95 509.37 39.60 472.15   C -9.64 423.08 -12.88 343.13 31.96 290.09   Q 35.74 285.63 45.75 275.61   Q 163.39 157.94 281.10 40.35   Q 318.83 2.65 372.62 0.00   Z   M 455.84 195.26   C 471.54 175.18 478.32 149.48 475.69 124.25   C 471.53 84.34 442.66 50.43 404.04 39.72   C 374.21 31.44 341.81 37.28 317.19 56.38   Q 311.54 60.76 302.45 69.84   Q 250.05 122.20 199.38 172.88   A 0.51 0.51 0.0 0 0 199.38 173.60   L 338.90 313.11   A 0.29 0.28 -44.3 0 0 339.31 313.11   Q 393.42 258.85 442.44 210.04   Q 450.74 201.78 455.84 195.26   Z   M 313.04 338.39   L 173.94 199.29   A 0.81 0.81 0.0 0 0 172.79 199.29   L 65.99 306.09   A 100.11 99.05 -45.0 0 0 65.24 446.92   L 65.41 447.09   A 100.11 99.05 -45.0 0 0 206.24 446.34   L 313.04 339.54   A 0.81 0.81 0.0 0 0 313.04 338.39   Z"/>
<path fill="#212121" d="   M 475.69 124.25   C 478.32 149.48 471.54 175.18 455.84 195.26   Q 450.74 201.78 442.44 210.04   Q 393.42 258.85 339.31 313.11   A 0.29 0.28 -44.3 0 1 338.90 313.11   L 199.38 173.60   A 0.51 0.51 0.0 0 1 199.38 172.88   Q 250.05 122.20 302.45 69.84   Q 311.54 60.76 317.19 56.38   C 341.81 37.28 374.21 31.44 404.04 39.72   C 442.66 50.43 471.53 84.34 475.69 124.25   Z   M 407.87 65.76   C 377.34 51.46 342.59 57.07 317.65 80.08   Q 313.92 83.52 312.30 87.18   C 308.21 96.42 312.72 107.49 322.15 111.11   C 329.58 113.97 336.85 111.87 342.34 106.40   Q 345.35 103.41 348.66 101.33   C 369.20 88.45 394.80 92.77 409.50 112.25   Q 412.43 116.14 414.87 117.94   C 424.43 125.06 439.48 120.49 442.61 108.50   Q 444.77 100.28 440.84 94.27   Q 428.49 75.41 407.87 65.76   Z"/>
<path fill="#ffffff" d="   M 407.87 65.76   Q 428.49 75.41 440.84 94.27   Q 444.77 100.28 442.61 108.50   C 439.48 120.49 424.43 125.06 414.87 117.94   Q 412.43 116.14 409.50 112.25   C 394.80 92.77 369.20 88.45 348.66 101.33   Q 345.35 103.41 342.34 106.40   C 336.85 111.87 329.58 113.97 322.15 111.11   C 312.72 107.49 308.21 96.42 312.30 87.18   Q 313.92 83.52 317.65 80.08   C 342.59 57.07 377.34 51.46 407.87 65.76   Z"/>
</svg>